<svg width="25" height="25" viewBox="0 0 25 25" fill="none" xmlns="http://www.w3.org/2000/svg">
<g clip-path="url(#clip0_1_2206)">
<path fill-rule="evenodd" clip-rule="evenodd" d="M23.4289 4.00009C23.4289 3.23109 23.1229 2.4931 22.5799 1.9491C22.0359 1.4061 21.2979 1.1001 20.5289 1.1001C16.6969 1.1001 8.3609 1.1001 4.5289 1.1001C3.7599 1.1001 3.02191 1.4061 2.47791 1.9491C1.93491 2.4931 1.62891 3.23109 1.62891 4.00009C1.62891 7.83209 1.62891 16.1681 1.62891 20.0001C1.62891 20.7691 1.93491 21.5071 2.47791 22.0511C3.02191 22.5941 3.7599 22.9001 4.5289 22.9001C8.3609 22.9001 16.6969 22.9001 20.5289 22.9001C21.2979 22.9001 22.0359 22.5941 22.5799 22.0511C23.1229 21.5071 23.4289 20.7691 23.4289 20.0001V4.00009ZM21.6289 4.00009V20.0001C21.6289 20.2921 21.5129 20.5721 21.3069 20.7781C21.1009 20.9841 20.8209 21.1001 20.5289 21.1001C16.6969 21.1001 8.3609 21.1001 4.5289 21.1001C4.2369 21.1001 3.95689 20.9841 3.75089 20.7781C3.54489 20.5721 3.42889 20.2921 3.42889 20.0001C3.42889 16.1681 3.42889 7.83209 3.42889 4.00009C3.42889 3.70809 3.54489 3.42808 3.75089 3.22208C3.95689 3.01608 4.2369 2.90009 4.5289 2.90009C8.3609 2.90009 16.6969 2.90009 20.5289 2.90009C20.8209 2.90009 21.1009 3.01608 21.3069 3.22208C21.5129 3.42808 21.6289 3.70809 21.6289 4.00009ZM17.1659 18.3291L12.9969 10.8841C12.7549 10.4501 12.9099 9.90109 13.3429 9.65909C13.7769 9.41609 14.3249 9.57109 14.5679 10.0041L16.7599 13.9201H19.0189C19.5159 13.9201 19.9189 14.3231 19.9189 14.8201C19.9189 15.3171 19.5159 15.7201 19.0189 15.7201H17.7679L18.7359 17.4501C18.9789 17.8831 18.8239 18.4321 18.3899 18.6751C17.9569 18.9171 17.4079 18.7621 17.1659 18.3291ZM6.9209 16.2861L6.25989 17.4421C6.01289 17.8731 6.1629 18.4241 6.5939 18.6711C7.0249 18.9171 7.5749 18.7681 7.8219 18.3361L8.48389 17.1801C8.72989 16.7491 8.5809 16.1991 8.1499 15.9521C7.7189 15.7061 7.1679 15.8551 6.9209 16.2861ZM11.5219 8.24808L10.5719 6.55008C10.3289 6.11708 10.4839 5.5681 10.9169 5.3251C11.3509 5.0831 11.8999 5.23808 12.1419 5.67108L12.5649 6.42609L13.0019 5.66409C13.2479 5.23209 13.7989 5.0831 14.2299 5.3291C14.6609 5.5761 14.8109 6.12711 14.5639 6.55811L13.3689 8.64609C13.3499 8.68509 13.3279 8.72309 13.3039 8.75909L10.3499 13.9201H13.7829C14.2789 13.9201 14.6829 14.3231 14.6829 14.8201C14.6829 15.3171 14.2789 15.7201 13.7829 15.7201H6.03891C5.54191 15.7201 5.13889 15.3171 5.13889 14.8201C5.13889 14.3231 5.54191 13.9201 6.03891 13.9201H8.27591L11.5219 8.24808Z" fill="#C71A1A"/>
</g>
<defs>
<clipPath id="clip0_1_2206">
<rect width="24" height="24" fill="white" transform="translate(0.333008 0.0854492)"/>
</clipPath>
</defs>
</svg>
