<svg width="48" height="48" viewBox="0 0 48 48" fill="none" xmlns="http://www.w3.org/2000/svg">
<circle cx="24.002" cy="24" r="23.5" transform="rotate(-180 24.002 24)" stroke="black"/>
<path d="M14.292 27.7898L23.292 18.7898C23.385 18.6961 23.4956 18.6217 23.6174 18.5709C23.7393 18.5202 23.87 18.494 24.002 18.494C24.134 18.494 24.2647 18.5202 24.3866 18.5709C24.5084 18.6217 24.6191 18.6961 24.712 18.7898L33.712 27.7898C33.9003 27.9781 34.0061 28.2335 34.0061 28.4998C34.0061 28.7661 33.9003 29.0215 33.712 29.2098C33.5237 29.3981 33.2683 29.5039 33.002 29.5039C32.7357 29.5039 32.4803 29.3981 32.292 29.2098L24.002 20.9098L15.712 29.2098C15.5237 29.3981 15.2683 29.5039 15.002 29.5039C14.7357 29.5039 14.4803 29.3981 14.292 29.2098C14.1037 29.0215 13.9979 28.7661 13.9979 28.4998C13.9979 28.2335 14.1037 27.9781 14.292 27.7898Z" fill="#C71A1A"/>
</svg>
