<svg width="163" height="163" viewBox="0 0 163 163" fill="none" xmlns="http://www.w3.org/2000/svg">
<path d="M81.9245 155.361C122.835 155.361 155.999 122.197 155.999 81.2871C155.999 40.3771 122.835 7.21289 81.9245 7.21289C41.0144 7.21289 7.85027 40.3771 7.85027 81.2871C7.85027 122.197 41.0144 155.361 81.9245 155.361Z" fill="white"/>
<path d="M81.9238 161.287C126.107 161.287 161.924 125.47 161.924 81.2871C161.924 37.1043 126.107 1.28711 81.9238 1.28711C37.741 1.28711 1.92383 37.1043 1.92383 81.2871C1.92383 125.47 37.741 161.287 81.9238 161.287Z" stroke="white" stroke-width="2" stroke-miterlimit="10"/>
<mask id="mask0_1_1987" style="mask-type:luminance" maskUnits="userSpaceOnUse" x="7" y="7" width="150" height="149">
<path d="M81.9265 155.361C122.837 155.361 156.001 122.197 156.001 81.2871C156.001 40.3771 122.837 7.21289 81.9265 7.21289C41.0164 7.21289 7.85226 40.3771 7.85226 81.2871C7.85226 122.197 41.0164 155.361 81.9265 155.361Z" fill="white"/>
</mask>
<g mask="url(#mask0_1_1987)">
<path d="M110.361 71.2183C110.361 87.3288 100.115 106.556 81.1901 106.556C62.2653 106.556 52.0197 87.3288 52.0197 71.2183C52.0197 55.1077 65.0796 42.0479 81.1901 42.0479C97.3006 42.0479 110.361 55.1077 110.361 71.2183Z" fill="#EBA08C"/>
<path d="M55.2684 72.8943C56.747 70.8101 57.5097 68.2979 57.9589 65.7821C58.4556 62.9996 58.5581 59.9801 57.192 57.5061C56.7711 56.7442 56.1959 56.036 55.4205 55.6391C54.0501 54.9387 52.3013 55.3809 51.1311 56.3798C49.9603 57.3788 49.2761 58.8326 48.795 60.295C47.3858 64.5808 47.4806 69.202 48.28 73.5975C48.6613 75.6952 48.5821 77.2764 51.0116 76.3404C52.7314 75.6761 54.2093 74.3871 55.2684 72.8943Z" fill="#000035"/>
<path d="M108.332 72.8943C106.854 70.8101 106.091 68.2979 105.642 65.7821C105.145 62.9996 105.043 59.9801 106.409 57.5061C106.83 56.7442 107.405 56.036 108.18 55.6391C109.551 54.9387 111.3 55.3809 112.47 56.3798C113.641 57.3788 114.325 58.8326 114.806 60.295C116.215 64.5808 116.12 69.202 115.321 73.5975C114.94 75.6952 115.019 77.2764 112.589 76.3404C110.869 75.6761 109.391 74.3871 108.332 72.8943Z" fill="#000035"/>
<path d="M73.545 69.5531C73.545 70.985 72.3847 72.1453 70.9528 72.1453C69.5209 72.1453 68.3606 70.9843 68.3606 69.5531C68.3606 68.1212 69.5216 66.9609 70.9528 66.9609C72.384 66.9609 73.545 68.1219 73.545 69.5531Z" fill="#000035"/>
<path d="M62.1489 67.9514C62.6342 66.6156 63.4124 65.3797 64.3364 64.2477C65.2794 63.1299 66.4135 62.1543 67.682 61.3683C68.0025 61.1787 68.3237 60.9863 68.6428 60.7818L69.6417 60.2364C69.9891 60.0843 70.3449 59.9463 70.7064 59.8282C71.0757 59.7362 71.4521 59.6697 71.8292 59.6216C73.3453 59.4978 74.9329 59.7298 76.2502 60.6411L76.2198 60.9134C74.7808 61.5183 73.566 61.8926 72.3633 62.31C72.0662 62.4218 71.7677 62.5137 71.4627 62.5817C71.1628 62.6708 70.8571 62.7394 70.5437 62.7953L69.607 63.009C69.3 63.1016 68.9958 63.2071 68.6902 63.3146C67.4974 63.8042 66.3456 64.4473 65.2794 65.2403C64.1942 66.0178 63.2405 66.9892 62.3873 68.0836L62.1489 67.9514Z" fill="#000035"/>
<path d="M93.2588 72.1453C94.6904 72.1453 95.851 70.9847 95.851 69.5531C95.851 68.1215 94.6904 66.9609 93.2588 66.9609C91.8272 66.9609 90.6667 68.1215 90.6667 69.5531C90.6667 70.9847 91.8272 72.1453 93.2588 72.1453Z" fill="#000035"/>
<path d="M101.823 68.0836C100.97 66.9899 100.016 66.0185 98.9311 65.2403C97.865 64.4473 96.7132 63.8042 95.5204 63.3146C95.2148 63.2071 94.9099 63.1016 94.6036 63.009L93.6669 62.7953C93.3535 62.7394 93.0471 62.6708 92.7479 62.5817C92.4429 62.513 92.1451 62.4211 91.8472 62.31C90.6438 61.8926 89.4298 61.5183 87.9908 60.9134L87.9604 60.6411C89.2784 59.7298 90.866 59.4978 92.3814 59.6216C92.7585 59.6697 93.1348 59.7362 93.5041 59.8282C93.8657 59.9463 94.2215 60.0843 94.5689 60.2364L95.5685 60.7818C95.8876 60.9863 96.2095 61.1787 96.5293 61.3683C97.7978 62.1543 98.9319 63.1299 99.8749 64.2477C100.799 65.3797 101.576 66.6164 102.062 67.9514L101.823 68.0836Z" fill="#000035"/>
<path d="M73.221 87.4837C74.609 88.7685 76.1251 89.8813 77.7601 90.7069C78.5787 91.1137 79.4227 91.4625 80.2999 91.6571C80.7322 91.7823 81.1765 91.8276 81.6158 91.8997C82.0587 91.9118 82.5065 91.9698 82.9367 91.9068C83.8083 91.8771 84.6686 91.6175 85.4857 91.2602C86.3191 90.9284 87.0853 90.4247 87.8359 89.9018C89.3258 88.8265 90.6637 87.5056 91.9074 86.0801C91.0124 87.7532 89.8062 89.2778 88.3318 90.5329C86.873 91.7773 85.0513 92.7996 83.0067 92.9319C81.9964 93.0055 81.0003 92.8704 80.0502 92.5959C79.0993 92.3249 78.1952 91.9238 77.3731 91.4066C75.7162 90.3957 74.2921 89.0522 73.221 87.4837Z" fill="#000035"/>
<path d="M83.2994 127.978C90.7632 127.978 95.3356 122.2 97.6129 118.185C94.7753 116.735 92.7031 115.185 92.0593 113.444C89.6277 106.864 90.6005 99.4258 90.6005 99.4258L82.5467 99.9811L73.9191 99.4258C73.9191 99.4258 75.4656 106.864 73.034 113.444C72.3499 115.296 70.0563 116.933 66.9356 118.462C69.5632 121.984 75.2201 127.978 83.2994 127.978Z" fill="#EBA08C"/>
<path d="M125.247 129.895C120.07 126.013 108.747 123.026 100.722 119.623C97.9255 124.556 92.3068 131.661 83.1331 131.661C73.3275 131.661 66.4269 124.474 63.1484 120.129C55.2333 123.325 44.7655 126.206 39.8472 129.895C31.8365 135.903 28.1174 161.365 28.1174 161.365H82.3322H82.7616H136.976C136.976 161.365 133.257 135.903 125.247 129.895Z" fill="#C21B1B"/>
<path d="M83.1335 131.66C92.3073 131.66 97.926 124.556 100.723 119.623C99.614 119.152 98.5712 118.674 97.6133 118.185C95.3359 122.2 90.7636 127.977 83.2998 127.977C75.2204 127.977 69.5642 121.984 66.936 118.462C65.7757 119.031 64.4973 119.584 63.1482 120.129C66.4273 124.475 73.328 131.66 83.1335 131.66Z" fill="#700A0A"/>
<path d="M67.2093 102.444C69.7201 103.62 72.3342 104.468 74.9808 105.082C77.631 105.657 80.3428 105.99 83.0205 105.906C85.6813 105.823 88.3152 105.146 90.8197 104.127C93.322 103.092 95.7196 101.741 97.9637 100.115C96.0903 102.173 93.779 103.837 91.2597 105.099C90.0018 105.74 88.6662 106.232 87.2979 106.623C85.9226 106.987 84.5027 107.217 83.0701 107.276C80.2204 107.34 77.4032 106.927 74.7085 106.117C72.0279 105.287 69.4378 104.116 67.2093 102.444Z" fill="#000035"/>
<path opacity="0.2" d="M97.4726 85.3461C100.875 85.3461 103.633 83.2537 103.633 80.6726C103.633 78.0914 100.875 75.999 97.4726 75.999C94.0702 75.999 91.312 78.0914 91.312 80.6726C91.312 83.2537 94.0702 85.3461 97.4726 85.3461Z" fill="#EBA08C"/>
<path opacity="0.2" d="M67.5903 85.3461C70.9927 85.3461 73.7509 83.2537 73.7509 80.6726C73.7509 78.0914 70.9927 75.999 67.5903 75.999C64.1878 75.999 61.4296 78.0914 61.4296 80.6726C61.4296 83.2537 64.1878 85.3461 67.5903 85.3461Z" fill="#EBA08C"/>
<path d="M81.7502 65.8584C82.1308 68.6161 82.3494 71.3837 83.0915 73.9915C83.4686 75.2861 83.9483 76.5504 84.6204 77.7022C85.2741 78.8617 86.1138 79.908 87.1227 80.7598L87.4297 81.0188L87.2352 81.3407C86.5383 82.4939 85.6434 83.5034 84.6437 84.3644C83.6455 85.2289 82.5376 85.952 81.3596 86.5073C82.3926 85.7157 83.3611 84.8653 84.2291 83.9343C85.0923 82.999 85.8563 81.9859 86.4478 80.8907L86.5595 81.4716C85.3915 80.6014 84.4562 79.4538 83.7325 78.2129C83.0243 76.9593 82.5043 75.6116 82.1902 74.2242C81.8634 72.8418 81.7141 71.4347 81.6617 70.0374C81.6051 68.6388 81.6547 67.2479 81.7502 65.8584Z" fill="#000035"/>
<path d="M115.019 69.2857C117.967 66.4423 120.422 43.4757 119.145 39.6243C118.715 41.0746 117.73 42.9763 116.569 43.9731C117.203 42.2278 117.688 40.4131 117.762 38.5624C117.915 34.6882 116.91 30.73 115.3 27.1869C112.069 29.5739 107.99 30.7229 103.942 30.8332C99.8944 30.9436 95.7769 30.7738 91.9743 29.4141C93.1161 28.2269 93.9998 26.6464 94.5509 25.1084C90.8388 26.1611 86.9173 26.2347 83.0524 26.2241C79.1868 26.2135 75.2851 26.1307 71.498 26.8891C67.7109 27.6475 63.9019 29.8576 61.4887 32.8099C61.7519 30.8509 62.4318 28.1371 62.424 26.1618C60.765 28.3691 58.0193 29.5711 56.2237 31.6744C54.7465 33.4049 54.0008 35.7141 54.1947 37.9596C53.7674 37.4269 52.5831 37.2118 51.8905 37.1991C51.1978 37.1863 50.5201 37.378 49.86 37.5818C47.6492 38.2638 45.49 39.1043 43.4043 40.0933C45.4334 41.5068 48.1147 42.3622 50.5654 41.9221C47.553 44.1528 45.1384 47.9356 44.861 51.6194C44.583 55.3039 45.606 67.2807 48.2512 69.9195C51.4957 69.8339 55.2021 60.4826 57.657 58.4076C60.112 56.3326 61.8035 53.4107 62.3582 50.2844C66.2585 54.0064 71.3487 56.5314 76.7962 56.7238C76.0569 54.0934 74.5995 51.5147 72.5252 49.6901C75.6968 51.9937 79.1662 52.1267 83.1146 52.2519C87.063 52.3771 91.1168 52.2278 94.8431 53.5112C99.0193 54.9502 105.539 59.848 108.441 63.1165" fill="#000035"/>
<path d="M118.109 76.1241C117.717 78.2048 116.569 80.1298 115.109 81.5716C114.117 82.5508 112.958 83.3382 111.717 83.6721C110.478 84.006 109.156 83.8547 108.172 83.0984C107.271 82.4065 106.709 81.2625 106.434 80.0386C105.802 77.2129 106.657 73.9324 108.393 71.4746C109.599 69.7675 111.305 68.3738 113.14 68.1432C116.84 67.6762 118.801 72.4432 118.109 76.1241Z" fill="#EBA08C"/>
<path d="M107.692 80.458C108.579 80.407 109.46 80.0908 110.207 79.5538C110.434 79.3911 110.671 79.1612 110.659 78.8739C110.654 78.7141 110.569 78.5733 110.484 78.4438C109.98 77.679 109.351 77.0105 108.632 76.4749C109.157 75.2942 109.689 74.0985 110.472 73.089C111.254 72.0794 112.328 71.2587 113.528 71.0925C114.729 70.9255 116.038 71.5389 116.497 72.7183C116.497 72.7183 118.108 76.1233 114.312 79.8092C110.309 83.6968 107.692 80.458 107.692 80.458Z" fill="#EBA08C"/>
<path d="M116.496 72.7197C116.04 71.8792 115.166 71.4236 114.316 71.3705C113.463 71.309 112.643 71.6698 111.967 72.1982C111.286 72.7338 110.741 73.4328 110.282 74.2025C109.828 74.9765 109.434 75.807 109.044 76.6588L108.901 76.1141C109.369 76.4841 109.793 76.9036 110.165 77.3628C110.347 77.5955 110.516 77.8375 110.672 78.0865C110.747 78.2132 110.827 78.3249 110.906 78.5082C110.988 78.6822 111.014 78.9539 110.927 79.1555C110.753 79.5595 110.441 79.7194 110.199 79.8672C109.943 80.0172 109.668 80.129 109.392 80.2252C108.838 80.4098 108.257 80.5054 107.69 80.4587C108.245 80.3462 108.773 80.1651 109.247 79.8962C109.485 79.7632 109.704 79.604 109.918 79.4442C110.134 79.2843 110.314 79.0968 110.335 78.9595C110.342 78.8937 110.334 78.8661 110.294 78.7876C110.255 78.7155 110.165 78.6009 110.084 78.494C109.919 78.2818 109.745 78.078 109.56 77.8849C109.197 77.4937 108.796 77.1399 108.362 76.8378L108.072 76.6355L108.22 76.2931C108.591 75.4335 108.96 74.5463 109.477 73.7151C109.983 72.8831 110.637 72.0907 111.479 71.5247C112.303 70.9595 113.372 70.6029 114.395 70.8321C115.391 71.0373 116.277 71.783 116.496 72.7197Z" fill="#000035"/>
<path d="M43.4681 76.1241C43.86 78.2048 45.0075 80.1298 46.4677 81.5716C47.4596 82.5508 48.6192 83.3382 49.8594 83.6721C51.0988 84.006 52.4211 83.8547 53.4059 83.0984C54.3065 82.4065 54.869 81.2625 55.1435 80.0386C55.7759 77.2129 54.9206 73.9324 53.1845 71.4746C51.9789 69.7675 50.2732 68.3738 48.4373 68.1432C44.7366 67.6762 42.7755 72.4432 43.4681 76.1241Z" fill="#EBA08C"/>
<path d="M53.8848 80.458C52.9976 80.407 52.1175 80.0908 51.3697 79.5538C51.1433 79.3911 50.9063 79.1612 50.9176 78.8739C50.9233 78.7141 51.0082 78.5733 51.0931 78.4438C51.5975 77.679 52.2264 77.0105 52.9445 76.4749C52.4203 75.2942 51.8876 74.0985 51.1058 73.089C50.3233 72.0794 49.2501 71.2587 48.0495 71.0925C46.8483 70.9255 45.5394 71.5389 45.081 72.7183C45.081 72.7183 43.4694 76.1233 47.2657 79.8092C51.2685 83.6968 53.8848 80.458 53.8848 80.458Z" fill="#EBA08C"/>
<path d="M45.0797 72.7184C45.299 71.7817 46.1855 71.036 47.1802 70.8302C48.2025 70.6009 49.2729 70.9575 50.0971 71.5228C50.9397 72.0895 51.5927 72.8818 52.0992 73.7138C52.6164 74.5451 52.9857 75.4323 53.3564 76.2918L53.5036 76.6343L53.2135 76.8366C52.7798 77.1387 52.3787 77.4924 52.0158 77.8836C51.8311 78.0768 51.6564 78.2805 51.4915 78.4928C51.4109 78.5996 51.321 78.7142 51.2821 78.7864C51.2418 78.8649 51.234 78.8925 51.2411 78.9583C51.2616 79.0963 51.4413 79.2837 51.6578 79.4429C51.8714 79.6028 52.0907 79.762 52.3285 79.895C52.8032 80.1638 53.3295 80.3442 53.8856 80.4574C53.3182 80.5041 52.7381 80.4086 52.1834 80.2239C51.9075 80.1284 51.6323 80.016 51.3769 79.866C51.135 79.7181 50.8223 79.5582 50.6489 79.1543C50.5619 78.9526 50.5881 78.681 50.6694 78.5069C50.7487 78.3237 50.8293 78.2119 50.9043 78.0853C51.0607 77.8362 51.2298 77.595 51.4116 77.3615C51.7837 76.9024 52.2082 76.4836 52.6751 76.1128L52.5322 76.6576C52.1424 75.8058 51.7483 74.9745 51.2941 74.2013C50.835 73.4315 50.2902 72.7333 49.6089 72.197C48.9333 71.6685 48.1134 71.3077 47.2608 71.3693C46.4098 71.4223 45.536 71.8772 45.0797 72.7184Z" fill="#000035"/>
<g opacity="0.35">
<path d="M61.1794 36.4785C62.1953 38.6292 63.952 40.3349 65.9435 41.5582C67.9513 42.7821 70.1777 43.5921 72.4395 44.2437L72.1756 44.5889C71.4392 43.4605 70.5152 42.446 69.5693 41.4605L66.6588 38.5394L67.0995 38.1135C68.4741 39.5235 70.2343 40.5217 72.1021 41.1789C73.9747 41.8454 75.9542 42.1786 77.9493 42.3689C79.9458 42.5642 81.9649 42.6491 83.9897 42.8097C86.0137 42.9908 88.0406 43.2412 90.0293 43.6799C94.011 44.521 97.8858 45.9423 101.389 48.0195C102.274 48.5239 103.108 49.1069 103.944 49.6856L105.142 50.63C105.542 50.9427 105.904 51.3021 106.286 51.6354C107.776 53.0142 109.117 54.5515 110.242 56.2339C107.822 52.9887 104.696 50.3251 101.179 48.3838C97.6771 46.4043 93.8249 45.1196 89.9013 44.2932C87.9367 43.8744 85.9395 43.6431 83.938 43.4782C81.9316 43.3268 79.9062 43.278 77.8793 43.0651C75.8566 42.8571 73.8184 42.5012 71.8806 41.7959C69.9485 41.1004 68.1041 40.0428 66.6581 38.538L67.0988 38.1121C68.0511 39.094 69.0359 40.0611 69.9726 41.0792C70.9071 42.0972 71.8254 43.1464 72.5697 44.342L72.9022 44.8755L72.3058 44.6873C70.0454 43.9742 67.7829 43.1266 65.7921 41.7944C63.814 40.4793 62.0807 38.6851 61.1794 36.4785Z" fill="white"/>
<path d="M77.027 31.3125C78.9754 32.9121 81.1515 34.2061 83.4586 35.1668C85.7628 36.1374 88.2128 36.7246 90.6861 36.9666L90.4873 37.5269C88.8163 36.4452 86.9974 35.4448 85.5768 33.8983L83.431 31.5629L86.0246 33.3967C86.8842 34.0044 87.9157 34.3277 88.9839 34.4593C90.0536 34.598 91.1566 34.5654 92.2638 34.5032C93.3702 34.4339 94.4944 34.3504 95.6264 34.3426C96.7562 34.3433 97.8846 34.4112 99.0052 34.5428C101.244 34.8399 103.439 35.4045 105.537 36.2139C107.624 37.048 109.612 38.124 111.412 39.4498C110.461 38.8626 109.487 38.32 108.489 37.829C107.484 37.3508 106.452 36.9369 105.408 36.5633C103.313 35.8318 101.138 35.3486 98.938 35.1286C97.8386 35.0211 96.735 34.9602 95.6313 34.973C94.5298 34.9921 93.4268 35.0854 92.3055 35.1682C91.1856 35.2425 90.0458 35.292 88.8962 35.1562C87.7508 35.0239 86.5948 34.6411 85.6291 33.945L86.0769 33.4427C87.3822 34.9001 89.1353 35.9011 90.8219 37.0147L91.8725 37.708L90.6239 37.5757C88.0847 37.3062 85.6093 36.5796 83.2987 35.5319C80.9902 34.4749 78.8572 33.0444 77.027 31.3125Z" fill="white"/>
<path d="M57.6347 43.2725C57.6298 43.6835 57.6192 44.096 57.5993 44.5091L57.4685 45.7444L57.2301 46.9662L56.9131 48.1724C56.4405 49.7699 55.7182 51.2923 54.8289 52.7045C53.9255 54.1074 52.8508 55.4056 51.6028 56.5092L50.6428 57.3058L49.6361 58.0381L48.5713 58.6776C48.2049 58.8701 47.8356 59.054 47.4648 59.2316C47.7981 58.9868 48.1327 58.7491 48.4702 58.5199L49.4302 57.7586L50.3549 56.9634L51.2265 56.1152C52.352 54.9507 53.3715 53.6892 54.2325 52.3238C55.1069 50.9669 55.8194 49.5102 56.4002 47.9984C56.9739 46.4823 57.373 44.8975 57.6347 43.2725Z" fill="white"/>
</g>
</g>
</svg>
