<svg width="469" height="540" viewBox="0 0 469 540" fill="none" xmlns="http://www.w3.org/2000/svg">
<path d="M311.154 337.526L309.725 335.529L307.908 332.512L306.092 329.496L305.168 327.248L304.244 325.001L303.267 319.835L302.289 314.67L300.572 308.462L298.856 302.254L297.449 298.148L296.043 294.041L294.251 290.26L292.459 286.48L290.969 281.107L289.478 275.734V274.369V273.003L288.066 267.163L286.653 261.323L284.493 255.829L282.332 250.334V249.972V249.61L280.969 245.389L279.605 241.168L279.074 239.214L278.544 237.261L278.033 232.024L277.522 226.786L276.04 219.37L274.558 211.954L275.11 212.061L275.663 212.168V210.782V209.396L275.014 209.308L274.364 209.221L274.057 204.8L273.75 200.379L274.742 197.468L275.735 194.557L274.677 190.155L273.62 185.754L274.641 184.751L275.663 183.748V183.49V183.231L274.653 182.472L273.642 181.714L273.453 179.142L273.263 176.571L272.608 175.437L271.953 174.304L271.426 176.832L270.899 179.36L270.897 180.568L270.896 181.775L269.933 183.039L268.971 184.303L265.987 184.19L263.003 184.077L260.304 183.094L257.605 182.11L255.716 179.646L253.828 177.182L252.002 173.547L250.176 169.911L247.926 165.69L245.676 161.469L244.396 158.501L243.116 155.533L243.615 155.247L244.114 154.96L244.434 155.741L244.754 156.523L246.75 157.673L248.747 158.822L250.473 159.266L252.199 159.71L254.424 158.737L256.649 157.764L256.469 157.452L256.289 157.141L253.149 156.221L250.009 155.301L248.406 154.029L246.802 152.756L244.107 149.257L241.411 145.757L240.672 143.623L239.934 141.49V140.814V140.138L241.166 139.919L242.398 139.7L242.139 139.251L241.88 138.803L240.165 138.979L238.45 139.155L238.207 139.015L237.965 138.875L238.116 137.452L238.266 136.029L240.046 136.886L241.825 137.744L242.528 136.993L243.23 136.242L245.274 137.495L247.318 138.747L250.05 140.67L252.781 142.593L255.175 143.268L257.568 143.943L258.136 144.924L258.703 145.906L259.83 146.557L260.958 147.208L261.849 147.172L262.74 147.137L262.469 144.922L262.197 142.707L261.07 138.004L259.942 133.302V132.544V131.786L258.032 129.802L256.122 127.819L255.835 126.331L255.547 124.844L255.873 122.022L256.2 119.2L255.189 118.617L254.178 118.033L252.779 116.392L251.381 114.751L251.093 113.261L250.805 111.772L251.205 111.198L251.605 110.624L255 108.407L258.395 106.19L259.375 106.756L260.354 107.321L260.643 108.537L260.932 109.752L261.53 110.67L262.129 111.588L265.68 112.904L269.232 114.219L269.946 114.26L270.661 114.302L272.566 112.608L274.472 110.914L275.801 110.254L277.131 109.594L279.25 108.414L281.368 107.234L282.639 104.974L283.91 102.713L285.146 102.545L286.382 102.377L287.454 101.903L288.526 101.429V100.642V99.8558L290.473 98.1559L292.421 96.4561L293.017 96.4104L293.614 96.3646L293.501 92.5709L293.388 88.7772L294.111 88.2544L294.834 87.7315L296.563 88.0883L298.292 88.4451L298.887 88.2441L299.482 88.0431V87.2795V86.5159L297.423 84.1731L295.363 81.8304L294.844 79.9457L294.325 78.0611L293.398 77.5258L292.471 76.9906L289.665 73.7397L286.858 70.4888L286.294 62.8702L285.73 55.2516L288.399 53.9977L291.068 52.7439L290.747 51.5947L290.426 50.4455L289.503 49.6338L288.579 48.8222L288.433 47.5605L288.287 46.2989L286.62 44.4325L284.953 42.566L284.045 40.8844L283.138 39.2028L281.799 38.43L280.46 37.6572L279.941 36.2382L279.421 34.8192L279.686 34.0111L279.95 33.203L282.353 31.8648L284.755 30.5266L287.236 31.9589L289.717 33.3913L289.555 32.2293L289.394 31.0673L290.057 32.0843L290.72 33.1012L292.124 33.0481L293.528 32.995L297.006 34.9135L300.483 36.8321L303.724 42.2873L306.965 47.7426L308.537 49.9977L310.11 52.2528L311.04 54.6068L311.97 56.9608L314.063 58.777L316.156 60.5931V61.6262V62.6592L317.995 63.7207L319.833 64.7822L322.544 64.6798L325.256 64.5774L327.447 65.587L329.638 66.5966L330.247 66.3657L330.856 66.1348L332.296 67.8243L333.735 69.5137L334.437 69.9189L335.139 70.324L336.604 72.5919L338.07 74.8598V75.8233V76.7868L337.155 79.325L336.24 81.8632L334.442 82.7801L332.643 83.6969L332.141 85.1726L331.639 86.6482L329.972 85.7112L328.304 84.7742V86.5112V88.2483L327.947 88.4558L327.59 88.6632V89.9534V91.2436L329.257 93.1228L330.924 95.002L330.941 96.1456L330.958 97.2892L331.639 99.0551L332.32 100.821L332.337 101.534L332.353 102.248L331.52 102.105L330.686 101.962L329.132 102.39L327.578 102.817L326.75 100.662L325.922 98.5072L325.385 98.1938L324.848 97.8803L324.235 98.3775L323.623 98.8747L324.692 102.467L325.762 106.059L326.105 109.173L326.448 112.286L326.803 113.152L327.157 114.018L328.1 113.887L329.042 113.756L330.207 116.141L331.372 118.526L334.079 121.567L336.787 124.607L337.727 126.528L338.667 128.449L341.18 131.181L343.693 133.913L341.224 135.426L338.755 136.939L337.633 140.648L336.511 144.356L337.886 146.418L339.261 148.48L339.69 148.731L340.119 148.981L342.787 151.999L345.454 155.017L346.523 156.824L347.593 158.632L349.62 160.917L351.647 163.203L353.315 164.838L354.982 166.474L356.305 167.514L357.629 168.555L358.098 169.836L358.566 171.116L360.175 172.393L361.784 173.67L365.291 175.054L368.797 176.437L370.514 178.268L372.231 180.099L373.022 181.948L373.813 183.796L375.693 185.987L377.573 188.177L378.962 188.98L380.352 189.782L380.896 190.851L381.439 191.919L383.931 193.767L386.424 195.615L388.913 197.156L391.401 198.696L391.731 199.267L392.061 199.837L394.959 201.502L397.857 203.167L398.435 203.077L399.014 202.987L399.052 196.44L399.091 189.893L399.122 188.711L399.153 187.528L401.077 187.752L403.001 187.975L403.502 188.842L404.003 189.709L404.14 193.718L404.277 197.728L405.003 199.425L405.73 201.122L407.034 202.289L408.338 203.456L411.434 205.161L414.531 206.866L416.674 208.02L418.818 209.174L424.195 211.398L429.571 213.622L429.255 210.923L428.939 208.224L428.704 207.62L428.468 207.016L426.859 205.312L425.249 203.608V202.48V201.352L426.259 202.304L427.269 203.256L428.522 203.315L429.775 203.374L431.398 203.413L433.021 203.451L433.229 202.656L433.436 201.862L435.298 201.212L437.159 200.562V199.745V198.928L439.267 199.103L441.375 199.279L444.155 197.516L446.935 195.754L448.359 197.432L449.784 199.11L451.303 199.99L452.822 200.871L454.999 199.956L457.176 199.041L458.276 200.887L459.375 202.732L458.986 203.029L458.597 203.326V204.382V205.438L459.363 205.147L460.129 204.856L460.792 206.284L461.455 207.712L461.438 208.284L461.421 208.856L460.741 209.836L460.06 210.815L460.043 211.241L460.026 211.667L461.574 212.439L463.123 213.21L464.898 214.334L466.674 215.458L467.472 217.323L468.27 219.188L467.238 220.071L466.206 220.953L465.672 221.849L465.139 222.744L466.139 225.276L467.14 227.808L466.77 227.595L466.401 227.381L465.477 226.041L464.552 224.701L463.552 224.106L462.551 223.511L460.626 223.91L458.701 224.309L455.552 225.904L452.404 227.5V232.079V236.659L451.177 237.842L449.95 239.025L450.207 241.37L450.464 243.715L448.959 247.788L447.454 251.862L447.006 251.956L446.558 252.05L443.779 250.155L441 248.26L441.461 250.383L441.923 252.505V255.882V259.259L441.209 259.163L440.494 259.066V264.47V269.874L439.899 270.408L439.303 270.942L438.257 269.869L437.212 268.796L436.9 266.527L436.588 264.259L435.473 258.673L434.359 253.087L433.732 250.529L433.106 247.971L432.4 247.563L431.694 247.156L431.023 248.381L430.353 249.606L430.12 251.853L429.887 254.1L429.402 254.166L428.917 254.231L427.994 252.239L427.072 250.248L426.698 250.298L426.324 250.349L425.506 247.407L424.688 244.464L425.326 242.542L425.964 240.62L427.349 240.999L428.733 241.377L430.304 240.529L431.875 239.681L432.225 238.181L432.575 236.682L432.464 235.931L432.354 235.181L432.909 235.502L433.465 235.823L432.872 234.656L432.279 233.49L424.119 228.725L415.96 223.959L414.769 222.89L413.578 221.82L413.232 218.351L412.886 214.881L412.347 213.196L411.807 211.512L411.093 212.323L410.379 213.134L409.358 211.938L408.338 210.741L407.237 208.666L406.136 206.59L405.887 207.133L405.638 207.676L404.844 207.2L404.05 206.724L403.125 205.384L402.201 204.044L401.787 203.805L401.374 203.566L401.648 204.236L401.922 204.906L400.723 206.25L399.524 207.594V208.113V208.633L401.073 211.097L402.621 213.562L404.252 215.769L405.882 217.976L406.078 218.775L406.273 219.574L405.27 218.995L404.267 218.416L402.134 219.451L400.001 220.486V221.486V222.487L401.594 224.807L403.187 227.128L403.967 227.578L404.747 228.028L405.034 229.515L405.322 231.003L404.52 231.95L403.719 232.897L404.718 235.338L405.718 237.779V238.727V239.674L406.633 240.479L407.548 241.283L407.329 242.889L407.111 244.494L408.035 249.378L408.96 254.261L408.717 254.851L408.474 255.441L407.317 254.773L406.16 254.105L404.962 254.318L403.763 254.531L403.357 253.804L402.952 253.076L402.786 251.922L402.621 250.769L401.376 252.206L400.131 253.644L397.69 253.216L395.25 252.788L393.958 253.323L392.666 253.858L393.2 256.847L393.734 259.835L393.056 260.311L392.379 260.787V261.686V262.586L390.747 263.524L389.115 264.463L386.489 264.379L383.863 264.295L383.158 263.888L382.454 263.482L382.266 262.726L382.079 261.969L381.27 261.86L380.461 261.751L379.876 262.939L379.291 264.127L375.883 267.376L372.475 270.625L369.757 271.741L367.04 272.857L365.647 274.269L364.254 275.681L362 275.879L359.746 276.076L358.674 276.629L357.602 277.182V279.332V281.481L355.339 281.391L353.076 281.3L351.197 280.26L349.318 279.221L347.863 280.635L346.407 282.049L345.797 282.737L345.187 283.426L344.924 282.587L344.66 281.749L343.377 281.008L342.093 280.267L341.028 280.512L339.963 280.757L338.999 282.378L338.035 284L338.263 289.759L338.491 295.518L338.995 297.338L339.499 299.159V299.672V300.185L338.785 299.773L338.07 299.36V299.89V300.42L339.083 301.629L340.095 302.839L339.785 305.699L339.475 308.56L338.852 309.634L338.228 310.709L336.883 312.912L335.539 315.116L335.623 322.069L335.707 329.022L335.963 330.113L336.219 331.203L335.12 330.848L334.021 330.493L332.62 329.835L331.22 329.177L330.143 330.752L329.066 332.327L328.228 333.655L327.39 334.984L327.928 336.288L328.466 337.591L325.995 336.802L323.523 336.013L322.017 336.199L320.51 336.385L320.199 338.595L319.889 340.804L317.595 340.967L315.301 341.128L313.942 340.326L312.583 339.524L311.154 337.527L311.154 337.526Z" stroke="black"/>
<path d="M382.152 300.967L302.231 255.862L296.241 290.972L293.595 327.106L382.152 367.401V300.967Z" fill="#FFF9F9"/>
<path d="M327.858 403.804L316.375 397.104C315.878 396.82 315.582 396.299 315.582 395.719C315.582 395.139 315.878 394.618 316.375 394.334L330.178 386.213C331.374 385.502 332.866 385.502 334.061 386.201L341.803 390.723L341.389 391.433L333.647 386.911C332.7 386.367 331.528 386.367 330.593 386.923L316.79 395.044C316.541 395.186 316.399 395.435 316.399 395.719C316.399 396.003 316.553 396.251 316.79 396.393L328.272 403.082L327.858 403.804Z" fill="black"/>
<path d="M324.954 407.165L316.253 402.122C315.732 401.814 315.424 401.246 315.46 400.643L315.578 395.611L316.395 395.623L316.288 400.678C316.265 400.986 316.419 401.258 316.667 401.4L325.368 406.455L324.954 407.165Z" fill="black"/>
<path d="M341.444 395.529L340.627 395.446L341.681 384.413L342.497 384.496L341.444 395.529Z" fill="black"/>
<path d="M409.3 422.899C408.483 422.899 407.595 422.626 406.684 422.106L397.947 417.039L398.634 415.843L407.37 420.91C408.507 421.573 409.549 421.691 410.306 421.253C411.052 420.827 411.466 419.856 411.466 418.531V377.133H412.84V418.531C412.84 420.377 412.177 421.762 410.993 422.449C410.484 422.745 409.916 422.899 409.3 422.899Z" fill="black"/>
<path d="M356.68 393.137L300.307 360.476C297.3 358.736 294.85 354.486 294.85 350.994V265.736C294.85 263.901 295.501 262.516 296.696 261.83C297.892 261.131 299.419 261.25 301.005 262.173L363.439 298.338L362.753 299.534L300.319 263.369C299.171 262.706 298.129 262.587 297.383 263.013C296.637 263.451 296.223 264.422 296.223 265.736V350.994C296.223 353.989 298.413 357.789 300.994 359.28L357.366 391.942L356.68 393.137Z" fill="black"/>
<path d="M406.212 410.432C405.928 410.432 405.632 410.361 405.383 410.207C403.288 409 397.854 405.839 397.57 405.685C397.546 405.673 310.181 354.888 310.181 354.888C310.099 354.841 310.039 354.77 310.004 354.687L300.522 349.182C299.208 348.413 298.379 346.98 298.379 345.453V270.862C298.379 269.997 298.829 269.228 299.575 268.79C300.32 268.352 301.22 268.352 301.966 268.79C304.357 270.175 308.891 272.815 309.128 272.933C309.14 272.957 363.713 304.742 363.713 304.742L363.299 305.452L308.725 273.667L308.749 273.632C308.347 273.454 307.447 272.921 305.138 271.584L301.552 269.5C301.066 269.216 300.474 269.228 299.989 269.5C299.504 269.784 299.208 270.293 299.208 270.862V345.453C299.208 346.684 299.871 347.844 300.948 348.472L310.596 354.071C310.679 354.119 310.738 354.19 310.773 354.273L397.961 404.963L397.937 404.999C398.363 405.176 399.334 405.744 401.879 407.224L405.797 409.497C406.046 409.639 406.354 409.639 406.614 409.497C406.875 409.343 407.029 409.083 407.029 408.787V373.498H407.857V408.787C407.857 409.379 407.549 409.911 407.029 410.219C406.768 410.361 406.484 410.432 406.212 410.432Z" fill="black"/>
<path d="M362.907 293.71L305.528 260.469C304.427 259.829 303.397 259.687 302.616 260.054L297.786 262.742L297.123 261.534L301.988 258.823C303.243 258.243 304.723 258.409 306.215 259.273L363.606 292.514L362.907 293.71Z" fill="black"/>
<path d="M306.267 155.823C333.312 162.225 328.519 191.666 324.925 198.171C283.819 272.556 341.339 244.435 343.239 264.926" stroke="black" stroke-dasharray="6 6"/>
<path d="M410.498 422.674L409.906 421.431C412.144 420.353 415.529 418.708 415.908 418.507C415.932 418.495 415.955 418.483 415.967 418.471C416.772 418.069 417.21 417.086 417.21 415.713L417.258 380.033H418.631L418.584 415.713C418.584 417.607 417.861 419.063 416.595 419.702L416.583 419.667C416.038 419.998 414.606 420.697 410.498 422.674Z" fill="black"/>
<path fill-rule="evenodd" clip-rule="evenodd" d="M346.593 354.084L307.492 331.402V307.513L346.593 330.206V354.084Z" fill="black"/>
<path d="M307.897 331.165L346.193 353.373V330.443L307.897 308.235V331.165ZM346.596 354.498C346.524 354.498 346.453 354.486 346.394 354.451L307.281 331.757C307.151 331.686 307.08 331.544 307.08 331.402V307.513C307.08 307.371 307.151 307.229 307.281 307.158C307.412 307.086 307.565 307.086 307.696 307.158L346.809 329.851C346.939 329.922 347.01 330.064 347.01 330.206V354.084C347.01 354.237 346.939 354.38 346.809 354.451C346.738 354.486 346.678 354.498 346.596 354.498Z" fill="black"/>
<path d="M355.296 368.715C355.225 368.715 355.154 368.692 355.083 368.656L338.901 359.269L339.315 358.546L354.882 367.579V322.855C354.882 322.701 354.965 322.571 355.095 322.488L359.523 320.025L357.38 316.32L352.088 319.268V361.66C352.088 361.814 352.006 361.944 351.875 362.027C351.745 362.098 351.591 362.098 351.461 362.027L307.897 336.753V340.446L313.141 343.488L312.727 344.211L307.281 341.05C307.151 340.979 307.08 340.837 307.08 340.683V336.03C307.08 335.888 307.151 335.746 307.281 335.675C307.412 335.604 307.565 335.604 307.696 335.675L351.26 360.95V319.031C351.26 318.877 351.343 318.747 351.473 318.664L357.333 315.397C357.522 315.278 357.771 315.349 357.889 315.551L360.446 319.978C360.505 320.085 360.517 320.191 360.482 320.298C360.458 320.404 360.387 320.499 360.292 320.558L355.711 323.103V368.301C355.711 368.443 355.628 368.585 355.498 368.656C355.439 368.692 355.368 368.715 355.296 368.715Z" fill="black"/>
<path d="M331.575 355.22L319.666 348.306L320.08 347.596L331.989 354.498L331.575 355.22Z" fill="black"/>
<path d="M314.559 343.749C314.287 343.749 314.039 343.808 313.826 343.938C313.269 344.258 312.973 344.968 312.973 345.939C312.973 348.129 314.5 350.816 316.383 351.929C317.211 352.414 317.981 352.497 318.525 352.189C319.082 351.87 319.389 351.159 319.389 350.177C319.389 347.987 317.85 345.299 315.968 344.198C315.459 343.903 314.974 343.749 314.559 343.749ZM317.803 353.195C317.235 353.195 316.607 353.006 315.968 352.639C313.861 351.408 312.145 348.401 312.145 345.939C312.145 344.66 312.594 343.689 313.411 343.216C314.24 342.742 315.282 342.837 316.383 343.476C318.502 344.719 320.206 347.726 320.206 350.177C320.206 351.467 319.756 352.438 318.94 352.899C318.596 353.101 318.217 353.195 317.803 353.195Z" fill="black"/>
<path d="M334.12 354.652C333.848 354.652 333.599 354.711 333.386 354.829C332.83 355.149 332.534 355.871 332.534 356.842C332.534 359.043 334.061 361.719 335.943 362.82C336.784 363.317 337.541 363.412 338.086 363.092C338.642 362.772 338.95 362.062 338.95 361.08C338.95 358.878 337.411 356.202 335.529 355.101C335.02 354.805 334.534 354.652 334.12 354.652ZM337.364 364.098C336.795 364.098 336.168 363.909 335.529 363.542C333.422 362.299 331.705 359.304 331.705 356.842C331.705 355.563 332.155 354.592 332.972 354.119C333.789 353.645 334.854 353.74 335.943 354.379C338.05 355.622 339.779 358.617 339.779 361.08C339.779 362.37 339.317 363.329 338.5 363.802C338.157 364.004 337.778 364.098 337.364 364.098Z" fill="black"/>
<path fill-rule="evenodd" clip-rule="evenodd" d="M329.94 333.012L324.873 330.076V317.658L329.94 320.594V333.012Z" fill="black"/>
<path d="M325.288 329.827L329.538 332.289V320.83L325.288 318.38V329.827ZM329.94 333.426C329.869 333.426 329.798 333.402 329.739 333.367L324.672 330.431C324.542 330.36 324.459 330.218 324.459 330.076V317.658C324.459 317.504 324.542 317.374 324.672 317.303C324.79 317.22 324.956 317.22 325.075 317.303L330.153 320.238C330.271 320.309 330.354 320.451 330.354 320.593V333.012C330.354 333.154 330.271 333.296 330.153 333.367C330.082 333.402 330.011 333.426 329.94 333.426Z" fill="black"/>
<path d="M373.942 378.778L364.59 373.368C362.885 372.374 361.488 369.971 361.488 367.994C361.488 366.017 362.885 365.224 364.59 366.206L373.942 371.628C375.658 372.623 377.043 375.026 377.043 377.003C377.043 378.98 375.658 379.773 373.942 378.778Z" fill="black"/>
<mask id="mask0_1_333" style="mask-type:luminance" maskUnits="userSpaceOnUse" x="363" y="270" width="86" height="122">
<path d="M363.598 270.626H448.417V391.847H363.598V270.626Z" fill="white"/>
</mask>
<g mask="url(#mask0_1_333)">
<path d="M440.331 388.852L439.928 388.13C439.928 388.13 446.226 384.555 446.83 384.212C447.327 383.928 447.587 383.288 447.587 382.412V317.587C447.587 316.676 446.936 315.516 446.143 315.066L374.31 273.715C373.99 273.526 373.718 273.49 373.54 273.609C373.256 273.786 366.876 277.575 366.603 277.74L366.189 277.03C368.486 275.669 372.877 273.052 373.091 272.91C373.54 272.626 374.132 272.65 374.724 272.993L446.558 314.344C447.599 314.947 448.416 316.368 448.416 317.587V382.412C448.416 383.596 448.002 384.484 447.244 384.922C446.64 385.277 440.331 388.852 440.331 388.852Z" fill="black"/>
</g>
<path d="M387.806 360.31C388.836 360.31 389.949 360.653 391.085 361.316L437.644 388.023C438.402 388.461 439.088 388.544 439.586 388.26C440.083 387.975 440.343 387.336 440.343 386.46V321.599C440.343 320.688 439.692 319.528 438.899 319.078L366.888 277.621C366.58 277.443 366.308 277.408 366.13 277.514C365.953 277.609 365.846 277.881 365.846 278.225V360.949C365.846 361.482 366.19 362.145 366.663 362.5C366.852 362.654 367.042 362.725 367.16 362.689C367.184 362.677 367.196 362.677 367.219 362.677L386.729 360.452C387.072 360.357 387.427 360.31 387.806 360.31ZM438.923 389.254C438.402 389.254 437.822 389.076 437.242 388.745L390.682 362.038C389.321 361.245 387.972 360.973 386.906 361.257C386.882 361.269 386.871 361.269 386.847 361.269L367.338 363.494C366.971 363.577 366.557 363.459 366.154 363.163C365.491 362.642 365.018 361.742 365.018 360.949V278.225C365.018 277.562 365.266 277.053 365.716 276.792C366.166 276.532 366.722 276.579 367.302 276.911L439.313 318.356C440.355 318.96 441.172 320.392 441.172 321.599V386.46C441.172 387.644 440.757 388.532 440 388.97C439.68 389.159 439.313 389.254 438.923 389.254Z" fill="black"/>
<path d="M393.297 346.626L379.529 338.647L379.944 337.925L393.711 345.904L393.297 346.626Z" fill="black"/>
<path d="M415.752 359.162L399.084 349.774L399.498 349.052L416.154 358.44L415.752 359.162Z" fill="black"/>
<path d="M425.911 351.953L380.275 325.779V328.384L425.911 354.558V351.953Z" fill="black"/>
<path d="M402.707 328.431L380.262 315.681L380.664 314.971L403.121 327.72L402.707 328.431Z" fill="black"/>
<path d="M414.298 335.462L407.053 331.26L407.467 330.549L414.712 334.74L414.298 335.462Z" fill="black"/>
<path d="M406.331 319.848L379.529 304.328L379.944 303.606L406.745 319.126L406.331 319.848Z" fill="black"/>
<path d="M237.649 491.215C237.424 491.215 237.235 491.026 237.235 490.801C237.223 490.682 237.258 490.54 237.329 490.457C237.412 490.363 237.531 490.292 237.637 490.292C237.874 490.292 238.063 490.469 238.063 490.706V490.801C238.063 491.026 237.874 491.215 237.649 491.215Z" fill="black"/>
<path d="M175.134 527.713C174.388 527.713 173.63 527.535 173.015 527.18L173.701 525.985C174.412 526.399 175.548 526.458 176.14 526.115L236.774 491.003C236.917 490.909 236.964 490.837 236.964 490.814C236.964 490.766 236.893 490.577 236.55 490.376L157.4 444.539C156.69 444.124 155.554 444.065 154.962 444.409L143.952 450.789L143.266 449.594L154.275 443.213C155.281 442.633 156.962 442.68 158.087 443.343L237.236 489.192C237.935 489.594 238.349 490.186 238.349 490.814C238.349 491.37 238.017 491.867 237.461 492.187L176.827 527.311C176.365 527.583 175.761 527.713 175.134 527.713Z" fill="black"/>
<path d="M164.232 522.006L93.8666 481.331C93.1681 480.928 92.7656 480.337 92.7656 479.709C92.7656 479.165 93.0853 478.656 93.6535 478.324L106.758 470.736L107.445 471.931L94.3401 479.52C94.1862 479.614 94.1388 479.697 94.1388 479.709C94.1388 479.756 94.2217 479.946 94.565 480.135L164.919 520.799L164.232 522.006Z" fill="black"/>
<path d="M193.527 507.682L193.113 506.972L223.312 489.475L153.207 448.859L146.494 452.754L146.08 452.031L153.005 448.03C153.136 447.959 153.289 447.959 153.42 448.03L224.353 489.12C224.472 489.191 224.555 489.333 224.555 489.475C224.555 489.617 224.472 489.759 224.353 489.83L193.527 507.682Z" fill="black"/>
<path d="M168.608 517.685L101.297 478.691C101.167 478.62 101.084 478.489 101.084 478.336C101.084 478.193 101.167 478.051 101.297 477.98L110.081 472.89L110.495 473.612L102.327 478.336L169.023 516.975L168.608 517.685Z" fill="black"/>
<path d="M175.133 533.323C174.695 533.323 174.234 533.264 173.819 533.134C173.512 533.039 173.239 532.921 173.014 532.791L169.641 530.837L170.327 529.63L173.701 531.595C173.843 531.678 174.021 531.749 174.222 531.808C174.755 531.974 175.382 531.986 175.844 531.844C175.962 531.82 176.057 531.773 176.14 531.725L236.762 496.602C236.893 496.542 236.952 496.471 236.952 496.424C236.964 496.128 236.964 492.92 236.964 490.801H238.337V495.595C238.325 495.986 238.325 496.294 238.301 496.531C238.29 497.052 237.982 497.501 237.449 497.809L176.826 532.921C176.649 533.027 176.459 533.11 176.246 533.169C175.903 533.276 175.524 533.323 175.133 533.323Z" fill="black"/>
<path d="M160.325 525.262L93.8666 486.942C93.18 486.54 92.7893 485.984 92.7656 485.368L92.7775 480.55C92.7775 479.413 92.7775 478.987 93.4641 478.987V479.674L94.1507 479.709C94.1388 479.911 94.1388 483.19 94.1388 485.333C94.1388 485.38 94.2335 485.557 94.565 485.747L161.012 524.067L160.325 525.262Z" fill="black"/>
<path d="M140.805 465.622L140.391 464.912L155.532 456.14L155.946 456.862L140.805 465.622Z" fill="black"/>
<path d="M121.826 482.574L121.412 481.852L160.679 459.123L161.093 459.833L121.826 482.574Z" fill="black"/>
<path d="M126.963 485.557L126.549 484.835L165.816 462.094L166.23 462.816L126.963 485.557Z" fill="black"/>
<path d="M148.733 478.892L148.318 478.17L155.09 474.252L155.504 474.962L148.733 478.892Z" fill="black"/>
<path d="M160.039 472.346L159.625 471.624L170.954 465.066L171.368 465.788L160.039 472.346Z" fill="black"/>
<path d="M147.907 500.177L147.492 499.455L160.467 491.95L160.869 492.672L147.907 500.177Z" fill="black"/>
<path d="M157.363 500.568L156.961 499.846L165.603 494.933L166.005 495.655L157.363 500.568Z" fill="black"/>
<path d="M162.61 503.574L162.195 502.852L170.731 497.904L171.145 498.626L162.61 503.574Z" fill="black"/>
<path d="M187.611 477.874C187.848 477.981 188.073 478.087 188.298 478.206C187.398 479.271 187.067 480.538 187.28 482.053C187.457 483.343 187.919 484.645 188.677 486.007C188.321 485.912 187.931 485.841 187.54 485.806C186.392 485.675 185.35 485.888 184.734 486.386C184.616 486.48 184.521 486.587 184.45 486.682C184.356 486.824 184.285 486.942 184.249 487.06C184.166 487.238 184.119 487.416 184.083 487.593C182.059 487.049 180.378 486.208 179.265 485.178C177.691 483.71 177.182 481.769 177.88 479.887C178.224 478.939 178.827 478.206 179.656 477.708C180.674 477.105 182.189 476.773 183.633 476.832C185.279 476.903 186.629 477.424 187.611 477.874ZM193.27 483.071C193.648 483.935 193.944 484.965 193.199 486.066C193.045 486.303 192.772 486.492 192.453 486.611C192.098 486.741 191.802 486.788 191.518 486.741C190.961 486.67 190.429 486.267 190.073 485.64C189.316 484.302 188.854 483.035 188.677 481.769C188.511 480.585 188.712 479.579 189.268 478.75C191.162 479.91 192.524 481.39 193.27 483.071ZM190.204 488.138C190.168 488.173 190.097 488.185 190.002 488.197C188.842 488.303 187.599 488.256 186.191 488.031C185.93 487.996 185.681 487.948 185.433 487.901C185.445 487.617 185.492 487.333 185.61 487.049C185.646 486.954 185.705 486.835 185.776 486.776C185.966 486.622 186.51 486.599 186.948 486.646C188.416 486.812 189.6 487.356 190.204 488.138ZM177.643 498.378C178.78 499.573 179.644 500.603 180.082 501.751C179.395 501.313 178.851 500.793 178.389 500.319C177.549 499.443 176.779 498.46 176.104 497.383C175.856 496.993 175.595 496.59 175.347 496.199C175.323 496.164 175.3 496.128 175.288 496.093C176.104 496.839 176.898 497.608 177.643 498.378ZM194.169 475.447C192.334 475.625 190.429 476.371 189.138 477.389C188.972 477.306 188.807 477.223 188.629 477.14C187.54 476.643 186.025 476.063 184.083 475.98C182.213 475.897 180.2 476.359 178.815 477.176C177.714 477.839 176.933 478.762 176.507 479.91C175.738 482.017 176.294 484.148 178.034 485.758C179.395 487.025 181.503 488.007 184.06 488.587C184.131 489.12 184.308 489.629 184.498 490.138C184.592 490.411 184.699 490.695 184.77 490.979C184.805 491.109 184.794 491.204 184.77 491.263C184.746 491.263 184.723 491.263 184.687 491.263C184.072 491.239 183.491 491.109 182.888 490.967C182.308 490.837 181.728 490.706 181.053 490.647C180.781 490.624 180.461 490.612 180.082 490.718C179.751 490.813 179.455 490.967 179.277 491.168C178.366 490.126 177.513 489.049 176.696 487.996C175.619 486.634 174.506 485.225 173.263 483.9L172.956 483.556C172.553 483.13 171.677 483.012 170.754 483.249C169.854 483.497 169.191 484.03 169.12 484.586C169.037 485.214 169.108 485.817 169.179 486.279C169.44 487.865 169.972 489.392 170.671 490.872C170.185 490.553 169.712 490.221 169.215 489.902L168.753 489.606C167.699 488.931 166.61 488.232 165.829 487.416L164.574 487.984C165.415 488.848 166.527 489.57 167.617 490.268L168.078 490.564C169.428 491.44 170.718 492.352 171.937 493.299C172.6 494.447 173.311 495.572 174.009 496.673C174.27 497.075 174.518 497.466 174.767 497.869C175.465 498.958 176.258 499.976 177.123 500.875C177.821 501.609 178.721 502.438 180.035 503.006L180.331 503.125L180.733 502.994C181.432 502.758 181.751 502.284 181.586 501.74C181.124 500.212 179.964 498.91 178.91 497.821C177.194 496.045 175.3 494.353 173.228 492.743C171.997 490.588 170.967 488.351 170.588 485.983C170.517 485.557 170.446 485.001 170.529 484.42C170.552 484.172 170.908 484.054 171.014 484.03C171.133 483.994 171.499 483.911 171.689 484.125L171.997 484.456C173.228 485.758 174.329 487.167 175.394 488.516C176.933 490.482 178.519 492.506 180.544 494.317L181.81 493.773L180.544 491.843C180.449 491.713 180.425 491.571 180.449 491.488C180.461 491.488 180.485 491.488 180.52 491.5C181.065 491.535 181.574 491.654 182.118 491.784C182.769 491.926 183.444 492.08 184.214 492.115C184.474 492.127 184.817 492.127 185.184 492.021C185.954 491.772 186.333 491.239 186.167 490.624C186.084 490.328 185.977 490.044 185.871 489.759C185.764 489.464 185.658 489.168 185.575 488.872C187.126 489.12 188.534 489.168 189.86 489.037C190.724 488.954 191.364 488.67 191.601 488.268C191.766 487.96 191.589 487.723 191.506 487.629C191.956 487.593 192.441 487.487 192.938 487.309C193.589 487.06 194.134 486.682 194.453 486.244C194.465 486.232 194.465 486.22 194.489 486.208C195.412 484.847 195.057 483.592 194.643 482.657C193.814 480.774 192.24 479.141 190.062 477.886C191.044 477.045 192.571 476.442 194.015 476.3C195.578 476.146 196.999 476.572 197.484 477.341C197.591 477.519 197.626 477.673 197.567 477.803C197.52 477.898 197.389 477.981 197.342 477.981L197.283 478.821C197.993 478.726 198.68 478.312 198.905 477.839C199.058 477.519 199.035 477.199 198.81 476.868C198.147 475.814 196.277 475.246 194.169 475.447Z" fill="black"/>
<path d="M121.496 461.265C118.88 461.265 116.76 460.07 116.76 458.59C116.76 457.122 118.88 455.914 121.496 455.914C124.112 455.914 126.243 457.122 126.243 458.59C126.243 460.07 124.112 461.265 121.496 461.265ZM145.184 452.008L139.004 448.421C138.483 448.113 137.631 448.113 137.098 448.421L128.504 453.405C124.538 451.309 118.394 451.369 114.559 453.594C110.723 455.808 110.628 459.371 114.239 461.668L105.645 466.64C105.124 466.947 105.124 467.445 105.645 467.752L111.824 471.328C112.345 471.635 113.209 471.635 113.73 471.328L145.184 453.109C145.716 452.801 145.716 452.304 145.184 452.008Z" fill="black"/>
<path d="M121.496 456.329C119.152 456.329 117.163 457.37 117.163 458.59C117.163 459.821 119.152 460.851 121.496 460.851C123.852 460.851 125.829 459.821 125.829 458.59C125.829 457.37 123.852 456.329 121.496 456.329ZM121.496 461.679C118.608 461.679 116.346 460.318 116.346 458.59C116.346 456.861 118.608 455.5 121.496 455.5C124.396 455.5 126.657 456.861 126.657 458.59C126.657 460.318 124.396 461.679 121.496 461.679ZM121.697 452.28C119.176 452.28 116.678 452.836 114.76 453.949C113.02 454.955 112.037 456.27 112.014 457.655C111.99 459.004 112.854 460.294 114.464 461.313C114.583 461.395 114.654 461.526 114.654 461.679C114.654 461.822 114.571 461.952 114.452 462.023L105.858 467.007C105.716 467.089 105.669 467.161 105.669 467.196C105.669 467.232 105.716 467.314 105.858 467.385L112.026 470.972C112.428 471.197 113.126 471.197 113.529 470.972L144.983 452.754C145.125 452.671 145.172 452.588 145.172 452.564C145.172 452.529 145.125 452.446 144.983 452.363L138.803 448.776C138.401 448.551 137.702 448.551 137.312 448.776L128.717 453.76C128.587 453.831 128.445 453.843 128.315 453.772C126.432 452.777 124.053 452.28 121.697 452.28ZM112.771 471.967C112.357 471.967 111.943 471.884 111.611 471.694L105.444 468.108C105.053 467.883 104.84 467.551 104.84 467.196C104.84 466.841 105.053 466.509 105.444 466.285L113.47 461.632C111.966 460.519 111.161 459.111 111.185 457.643C111.221 455.962 112.345 454.387 114.358 453.227C118.217 450.99 124.384 450.871 128.492 452.931L136.897 448.066C137.548 447.687 138.566 447.687 139.218 448.066L145.397 451.641C145.776 451.866 146.001 452.197 146.001 452.564C146.001 452.907 145.776 453.239 145.397 453.464L113.931 471.694C113.612 471.884 113.198 471.967 112.771 471.967Z" fill="black"/>
<path d="M118.027 460.555L117.199 460.508C117.246 459.798 117.803 458.744 118.643 458.259C120.312 457.288 122.928 457.288 124.598 458.259C125.332 458.685 125.935 459.431 126.054 460.07L125.249 460.224C125.178 459.88 124.763 459.312 124.195 458.981C122.775 458.164 120.466 458.164 119.046 458.981C118.454 459.324 118.039 460.129 118.027 460.555ZM112.168 462.923C111.552 462.13 111.221 461.23 111.197 460.342H111.244C111.197 459.951 111.197 459.135 111.197 457.418H112.026C112.026 458.507 112.026 460.153 112.026 460.307C112.037 461.052 112.298 461.751 112.819 462.414L112.168 462.923ZM112.771 473.802C112.357 473.802 111.943 473.719 111.611 473.53L105.444 469.943C105.088 469.741 104.887 469.457 104.852 469.126L104.84 469.043V467.137H105.669V469.055C105.669 469.079 105.728 469.15 105.846 469.232L112.026 472.808C112.428 473.044 113.126 473.044 113.529 472.808L144.983 454.589C145.16 454.482 145.172 454.399 145.172 454.364V452.553H145.989V454.388C145.977 454.672 145.859 455.039 145.397 455.311L113.931 473.53C113.612 473.719 113.198 473.802 112.771 473.802Z" fill="black"/>
<path d="M208.255 491.973L207.498 491.642L209.783 486.409L204.503 488.268L204.23 487.475L209.794 485.533C209.936 485.474 210.102 485.51 210.221 485.628L210.576 485.983C210.694 486.113 210.73 486.291 210.67 486.445L208.255 491.973Z" fill="black"/>
<path d="M160.099 529.334L159.531 528.73L203.675 487.806C204.066 487.403 204.729 487.285 205.463 487.522C206.09 487.711 206.73 488.137 207.262 488.705L206.659 489.274C206.221 488.812 205.712 488.457 205.214 488.303C204.788 488.173 204.433 488.208 204.244 488.41L160.099 529.334Z" fill="black"/>
<path d="M209.486 489.133L208.788 488.683C208.812 488.647 208.824 488.553 208.788 488.399C208.693 487.937 208.184 487.392 207.723 487.239C207.581 487.203 207.474 487.203 207.427 487.239L206.953 486.552C207.225 486.374 207.581 486.327 207.971 486.457C208.717 486.682 209.427 487.463 209.605 488.221C209.7 488.671 209.593 488.967 209.486 489.133Z" fill="black"/>
<path d="M163.815 533.311L163.246 532.708L207.319 491.831C207.58 491.63 207.639 491.286 207.544 490.837C207.45 490.422 207.236 489.984 206.929 489.582L163.01 530.198L162.453 529.594L206.68 488.682C206.846 488.528 207.106 488.54 207.26 488.706C207.817 489.298 208.195 489.984 208.349 490.647C208.527 491.428 208.337 492.091 207.852 492.458L163.815 533.311Z" fill="black"/>
<path d="M158.251 531.299C158.049 531.299 157.884 531.358 157.765 531.465C157.576 531.643 157.517 531.986 157.623 532.412C157.86 533.454 158.925 534.614 159.944 534.934C160.358 535.064 160.701 535.028 160.902 534.851C161.092 534.673 161.151 534.33 161.044 533.916C160.808 532.862 159.742 531.702 158.724 531.382C158.547 531.323 158.393 531.299 158.251 531.299ZM160.429 535.845C160.192 535.845 159.955 535.81 159.695 535.727C158.381 535.312 157.114 533.939 156.806 532.59C156.653 531.856 156.783 531.24 157.209 530.849C157.635 530.459 158.251 530.376 158.961 530.589C160.287 531.003 161.553 532.377 161.849 533.726C162.015 534.46 161.873 535.076 161.459 535.466C161.187 535.715 160.831 535.845 160.429 535.845Z" fill="black"/>
<path d="M163.804 531.677C163.532 530.47 162.36 529.203 161.199 528.836C160.596 528.659 160.11 528.742 159.814 529.026L157.494 531.157C157.79 530.884 158.264 530.801 158.844 530.991C160.016 531.346 161.176 532.625 161.448 533.82C161.59 534.412 161.472 534.862 161.199 535.134C161.199 535.146 163.532 533.015 163.532 533.015C163.816 532.743 163.934 532.269 163.804 531.677Z" fill="black"/>
<path d="M158.783 530.541C158.842 530.553 158.901 530.576 158.96 530.588C160.286 531.003 161.553 532.376 161.849 533.725C161.872 533.796 161.884 533.867 161.896 533.95C162.524 533.358 163.246 532.707 163.246 532.707C163.435 532.53 163.494 532.186 163.4 531.76C163.163 530.707 162.097 529.558 161.067 529.239C160.641 529.108 160.298 529.132 160.109 529.322L158.783 530.541ZM161.103 535.56C161.02 535.56 160.973 535.501 160.902 535.43C160.819 535.359 160.783 535.252 160.783 535.134C160.783 535.027 160.819 534.921 160.902 534.85C161.091 534.66 161.138 534.329 161.044 533.915C160.807 532.861 159.742 531.701 158.724 531.381C158.309 531.251 157.966 531.275 157.776 531.452C157.599 531.606 157.338 531.594 157.185 531.429C157.031 531.263 157.043 531.003 157.208 530.849C157.22 530.849 159.54 528.718 159.54 528.718C159.943 528.327 160.594 528.221 161.316 528.445C162.63 528.86 163.897 530.233 164.205 531.583C164.37 532.305 164.228 532.932 163.802 533.323C162.666 534.353 162.026 534.945 161.636 535.252C161.588 535.323 161.541 535.383 161.482 535.442L161.446 535.406C161.281 535.513 161.186 535.56 161.103 535.56Z" fill="black"/>
<path d="M71.9755 434.464L71.502 433.173L99.0728 423.087L137.842 400.69L138.529 401.874L99.7002 424.307C99.6647 424.33 99.6292 424.342 99.5937 424.366L71.9755 434.464Z" fill="black"/>
<path d="M69.4649 429.729L69.0387 429.019L89.7317 416.518L66.4225 396.038L44.7707 399.27L44.6523 398.453L66.4936 395.186C66.6119 395.174 66.7303 395.198 66.825 395.281L90.7024 416.281C90.7971 416.364 90.8563 416.494 90.8444 416.625C90.8326 416.755 90.7616 416.873 90.6432 416.944L69.4649 429.729Z" fill="black"/>
<path d="M71.3037 392.439C71.3984 392.439 71.5049 392.474 71.576 392.545L95.2284 413.889L108.073 406.503L97.0278 378.423L65.5977 392.889L71.2682 392.439C71.28 392.439 71.2919 392.439 71.3037 392.439ZM95.1692 414.813C95.0745 414.813 94.9798 414.777 94.8969 414.706L71.1616 393.279L63.3485 393.895C63.1473 393.919 62.9697 393.788 62.9105 393.587C62.8632 393.398 62.9579 393.197 63.1473 393.114L97.0751 377.487C97.1817 377.44 97.3001 377.44 97.4066 377.476C97.5131 377.523 97.596 377.606 97.6315 377.712L108.972 406.526C109.043 406.716 108.972 406.929 108.795 407.035L95.3823 414.754C95.3113 414.801 95.2402 414.813 95.1692 414.813Z" fill="black"/>
<path d="M115.16 408.646L107.607 389.669C107.548 389.539 107.572 389.385 107.654 389.267C107.749 389.148 107.891 389.089 108.033 389.113L123.636 391.043C123.754 391.054 123.861 391.125 123.932 391.232C124.003 391.338 124.015 391.469 123.967 391.587C122.807 395.079 123.423 399.507 125.494 402.336L124.831 402.821C122.665 399.874 121.979 395.505 123.044 391.8L108.625 390.013L115.929 408.338L115.16 408.646Z" fill="black"/>
<path d="M52.2424 366.466L66.9807 370.953L57.6642 356.688L52.2424 366.466ZM67.9515 372.089C67.916 372.089 67.8686 372.089 67.8331 372.077L51.5084 367.105C51.39 367.07 51.2953 366.975 51.248 366.869C51.2006 366.75 51.2125 366.62 51.2716 366.513L57.2854 355.693C57.3564 355.563 57.4866 355.48 57.6287 355.48C57.7589 355.48 57.9128 355.54 57.9838 355.658L68.2948 371.45C68.3895 371.604 68.3895 371.793 68.2829 371.923C68.2001 372.03 68.0817 372.089 67.9515 372.089Z" fill="black"/>
<path d="M44.5474 382.27L49.7088 395.635L54.8228 394.487L81.3874 381.157L74.5332 382.116C74.3911 382.14 74.2254 382.069 74.1307 381.927L71.6447 378.091L52.6091 372.302C52.5026 375.901 50.4546 379.263 47.1518 381.169C46.3349 381.631 45.4589 382.009 44.5474 382.27ZM49.5312 396.523L49.4483 396.12L49.0577 396.274L43.6122 382.14C43.5648 382.033 43.5767 381.903 43.624 381.796C43.6832 381.702 43.7779 381.619 43.8963 381.595C44.8907 381.335 45.8496 380.956 46.7374 380.447C49.9574 378.6 51.887 375.274 51.7804 371.758C51.7804 371.627 51.8396 371.497 51.9462 371.414C52.0527 371.332 52.1948 371.308 52.3131 371.343L72.0354 377.345C72.1301 377.381 72.2011 377.44 72.2603 377.523L74.6871 381.252L83.7669 379.985C83.9563 379.95 84.1575 380.08 84.2167 380.269C84.2759 380.459 84.1812 380.672 84.0036 380.766L55.1424 395.256C55.1069 395.268 55.0833 395.28 55.0477 395.292L49.5312 396.523Z" fill="black"/>
<path d="M93.5586 333.118C93.535 333.118 93.5113 333.118 93.4876 333.118L69.7168 328.549L69.8707 327.732L93.1325 332.207L92.4932 316.734L93.3219 316.699L93.973 332.692C93.9848 332.81 93.9256 332.941 93.8309 333.023C93.7599 333.083 93.6652 333.118 93.5586 333.118Z" fill="black"/>
<path d="M71.314 366.999C71.1838 366.999 71.0418 366.94 70.9707 366.822L57.9844 346.934L58.6828 346.484L71.5153 366.135L94.564 362.465L93.5696 338.268L63.1221 332.42L63.276 331.604L94.0549 337.511C94.2444 337.546 94.3746 337.712 94.3864 337.901L95.4045 362.797C95.4163 363.01 95.2624 363.188 95.0612 363.223L71.3851 366.999C71.3614 366.999 71.3377 366.999 71.314 366.999Z" fill="black"/>
<path d="M99.9134 352.154C99.8068 352.154 99.7121 352.119 99.6411 352.06C99.5582 351.977 99.499 351.87 99.499 351.752L98.4336 325.732L99.2504 325.696L100.304 351.278L109.419 350.154L109.526 350.97L99.9607 352.154C99.937 352.154 99.9252 352.154 99.9134 352.154Z" fill="black"/>
<path d="M125.838 387.692C125.814 387.692 125.802 387.692 125.779 387.692L106.08 385.242C105.926 385.23 105.796 385.124 105.749 384.982L101.889 375.274L79.3141 379.323C79.1366 379.358 78.9827 379.287 78.888 379.145L74.0225 371.522C73.9515 371.403 73.9396 371.249 73.9988 371.131C74.058 371.001 74.1646 370.906 74.3066 370.882L99.8176 366.585L99.9597 367.402L75.0643 371.605L79.4325 378.459L102.067 374.398C102.268 374.363 102.458 374.458 102.529 374.647L106.423 384.449L125.648 386.84C126.323 385.988 127.093 385.183 127.921 384.449L122.535 363.128L123.34 362.927L128.785 384.496C128.833 384.65 128.774 384.816 128.655 384.911C127.72 385.704 126.879 386.592 126.157 387.527C126.086 387.633 125.968 387.692 125.838 387.692Z" fill="black"/>
<path d="M104.425 364.691L100.116 363.341C99.9504 363.282 99.832 363.128 99.832 362.939V356.807C99.832 356.593 99.9859 356.416 100.187 356.392L109.137 355.279L109.243 356.108L100.661 357.174V362.643L104.674 363.909L104.425 364.691Z" fill="black"/>
<path d="M71.7407 434.511C71.5276 434.511 71.3145 434.417 71.1843 434.227L49.9705 405.259C49.8521 405.106 49.8048 404.904 49.8521 404.715C49.8876 404.514 50.006 404.36 50.1836 404.253L141.076 351.751C141.384 351.574 141.775 351.657 141.976 351.941L153.435 367.827L152.322 368.644L141.23 353.255L51.5331 405.07L71.9301 432.913L137.844 394.842L138.531 396.038L72.084 434.417C71.9775 434.476 71.8591 434.511 71.7407 434.511Z" fill="black"/>
<mask id="mask1_1_333" style="mask-type:luminance" maskUnits="userSpaceOnUse" x="0" y="313" width="122" height="98">
<path d="M0.650391 313.053H121.15V410.03H0.650391V313.053Z" fill="white"/>
</mask>
<g mask="url(#mask1_1_333)">
<path d="M28.0337 409.19C27.8088 409.19 27.5839 409.083 27.4537 408.882L0.770679 368.112C0.664137 367.958 0.628622 367.757 0.675974 367.579C0.711486 367.39 0.82987 367.236 0.995602 367.141L23.4524 354.167L24.139 355.362L2.32146 367.97L28.2468 407.58L117.731 355.895L91.7935 316.285L60.3635 334.433L59.6769 333.237L91.6633 314.758C91.9829 314.58 92.3854 314.675 92.5867 314.983L119.281 355.753C119.376 355.907 119.412 356.096 119.376 356.286C119.329 356.475 119.21 356.629 119.045 356.724L28.377 409.095C28.2705 409.166 28.1521 409.19 28.0337 409.19Z" fill="black"/>
</g>
<path d="M38.4269 352.071L38.0836 351.314C42.4282 349.337 46.1098 342.956 45.6481 338.185L46.465 338.102C46.9621 343.264 43.1385 349.929 38.4269 352.071ZM44.4406 374.859L39.0188 372.326C38.9004 372.255 38.8412 372.184 38.8057 372.149L38.8412 372.113C38.3796 371.746 37.1839 370.574 33.5496 367.011L28.2935 361.849C26.4823 360.062 25.0973 357.825 24.1976 355.196C23.653 353.634 23.3926 352.225 23.3926 351.006C23.3926 341.145 30.306 329.117 38.8294 324.181C43.174 321.671 47.3883 321.363 50.3952 323.352L55.8525 326.525L55.4382 327.235L49.9572 324.062C47.1634 322.204 43.3634 322.512 39.2319 324.903C30.9453 329.697 24.2094 341.417 24.2094 351.006C24.2094 352.13 24.4698 353.456 24.9789 354.924C25.8431 357.422 27.1571 359.553 28.8736 361.258C32.3895 364.714 39.078 371.273 39.3858 371.557C39.3976 371.569 39.4213 371.58 39.4331 371.604L44.7839 374.114L44.4406 374.859Z" fill="black"/>
<path d="M37.905 350.343C37.8932 352.296 38.5916 353.823 39.8228 354.545C41.0539 355.255 42.7231 355.102 44.4041 354.107C48.1331 351.917 51.1873 346.614 51.211 342.281C51.2347 340.328 50.5244 338.801 49.2932 338.078C48.0621 337.368 46.3929 337.522 44.7119 338.516C40.9829 340.706 37.9287 346.01 37.905 350.343ZM41.5511 355.812C40.7817 355.812 40.0477 355.622 39.4084 355.255C37.9168 354.391 37.0645 352.592 37.0763 350.343C37.1119 345.667 40.2845 340.162 44.2976 337.794C46.239 336.658 48.216 336.492 49.7076 337.368C51.1991 338.232 52.0515 340.02 52.0396 342.281C52.016 346.957 48.8434 352.462 44.8184 354.829C43.7057 355.48 42.5929 355.812 41.5511 355.812ZM51.3649 326.063C49.3524 326.063 47.1032 326.749 44.7711 328.099C36.4844 332.905 29.7367 344.613 29.7367 354.214C29.7367 355.338 29.9972 356.652 30.5062 358.132C31.3704 360.63 32.6844 362.761 34.4009 364.465L44.4396 374.35L54.6322 352.485C56.3842 348.709 57.7219 344.992 58.5979 341.429C59.1188 339.345 59.3792 337.7 59.3792 336.563C59.3792 332.005 57.864 328.62 55.1175 327.033C54.0048 326.382 52.7381 326.063 51.3649 326.063ZM44.4988 375.333C44.3449 375.333 44.1792 375.274 44.0608 375.155L33.8327 365.057C32.0097 363.258 30.6364 361.021 29.7249 358.404C29.1922 356.842 28.9199 355.433 28.9199 354.214C28.9199 344.353 35.8452 332.325 44.3567 327.389C48.5593 324.95 52.525 324.571 55.5319 326.323C58.5387 328.063 60.2079 331.698 60.2079 336.563C60.2079 337.771 59.9356 339.475 59.4029 341.63C58.5151 345.24 57.1655 349.005 55.378 352.829L45.0552 374.978C44.9723 375.155 44.8066 375.285 44.6053 375.321C44.5698 375.333 44.5343 375.333 44.4988 375.333Z" fill="black"/>
<path d="M118.807 356.807L118.594 355.446L141.311 351.669L141.536 353.031L118.807 356.807Z" fill="black"/>
<path d="M230.726 395.647L230.027 394.451L289.265 360.026L285.867 358.061L286.554 356.865L290.982 359.434C291.195 359.553 291.325 359.778 291.325 360.026C291.325 360.275 291.195 360.5 290.982 360.63L230.726 395.647Z" fill="black"/>
<path d="M189.526 342.909H188.697V334.658H189.526V342.909Z" fill="black"/>
<path d="M230.379 392.415C230.308 392.415 230.237 392.391 230.166 392.356C230.048 392.285 229.965 392.143 229.965 392.001V358.203H230.782V391.279L284.976 359.789V326.217H285.805V360.026C285.805 360.168 285.734 360.31 285.604 360.381L230.58 392.356C230.509 392.391 230.45 392.415 230.379 392.415Z" fill="black"/>
<path d="M190.061 334.563L229.979 357.718L284.482 326.039L244.564 302.884L190.061 334.563ZM229.979 358.606C229.908 358.606 229.837 358.582 229.766 358.547L189.031 334.918C188.901 334.847 188.818 334.705 188.818 334.563C188.818 334.421 188.901 334.279 189.031 334.208L244.351 302.044C244.481 301.972 244.635 301.972 244.765 302.044L285.512 325.684C285.642 325.755 285.713 325.885 285.713 326.039C285.713 326.181 285.642 326.323 285.512 326.394L230.181 358.547C230.121 358.582 230.05 358.606 229.979 358.606Z" fill="black"/>
<path d="M258.286 410.373L248.531 404.727L249.218 403.531L258.972 409.178L258.286 410.373Z" fill="black"/>
<path d="M199.899 444.514L189.15 438.288L189.837 437.092L200.586 443.319L199.899 444.514Z" fill="black"/>
<path d="M185.599 438.738C185.516 438.738 185.433 438.726 185.362 438.703L181.586 437.282L182.059 435.992L185.54 437.294L195.969 431.221L196.668 432.417L185.942 438.643C185.848 438.714 185.717 438.738 185.599 438.738Z" fill="black"/>
<path d="M218.909 419.465L218.223 418.282L252.008 398.63C254.009 390.841 259.419 383.276 265.539 379.725C268.89 377.784 272.074 377.239 274.738 378.139C276.797 378.849 278.455 380.388 279.544 382.613L289.618 376.754V360.358H290.991V377.144C290.991 377.393 290.861 377.618 290.648 377.748L279.579 384.188C279.402 384.283 279.2 384.306 279.011 384.247C278.822 384.176 278.68 384.034 278.597 383.856C277.673 381.619 276.182 380.092 274.3 379.453C272.015 378.671 269.221 379.18 266.226 380.921C260.342 384.33 255.134 391.693 253.275 399.246C253.228 399.424 253.109 399.577 252.944 399.672L218.909 419.465Z" fill="black"/>
<path d="M271.032 383.277C269.67 383.277 268.143 383.75 266.557 384.673C260.792 388.012 256.092 396.145 256.092 402.797C256.092 405.852 257.086 408.101 258.909 409.155C260.732 410.208 263.207 409.948 265.87 408.397C271.635 405.059 276.323 396.926 276.323 390.273C276.323 387.219 275.329 384.969 273.518 383.916C272.784 383.49 271.943 383.277 271.032 383.277ZM261.384 411.167C260.235 411.167 259.158 410.895 258.223 410.35C255.962 409.036 254.719 406.361 254.719 402.797C254.719 395.707 259.726 387.041 265.87 383.478C268.984 381.678 271.943 381.406 274.204 382.72C276.465 384.034 277.696 386.71 277.696 390.273C277.696 397.364 272.701 406.029 266.557 409.593C264.746 410.646 262.982 411.167 261.384 411.167Z" fill="black"/>
<path d="M268.961 388.994C268.192 388.994 267.328 389.255 266.416 389.788C263.137 391.682 260.461 396.322 260.461 400.099C260.461 401.839 261.03 403.117 262.048 403.721C263.09 404.313 264.498 404.159 266.002 403.283C269.293 401.389 271.968 396.748 271.968 392.96C271.968 391.232 271.4 389.953 270.37 389.35C269.956 389.113 269.482 388.994 268.961 388.994ZM263.457 404.905C262.805 404.905 262.19 404.751 261.645 404.431C260.355 403.685 259.633 402.147 259.633 400.099C259.633 396.05 262.498 391.102 266.002 389.065C267.789 388.036 269.482 387.882 270.784 388.639C272.075 389.385 272.797 390.924 272.797 392.96C272.797 397.021 269.932 401.969 266.416 404.005C265.386 404.597 264.38 404.905 263.457 404.905Z" fill="black"/>
<path d="M267.33 393.73C267.057 393.73 266.75 393.825 266.418 394.026C265.187 394.736 264.133 396.548 264.133 397.98C264.133 398.584 264.323 399.034 264.654 399.223C264.998 399.424 265.471 399.365 266.004 399.057C267.247 398.335 268.289 396.524 268.289 395.091C268.289 394.476 268.111 394.038 267.779 393.848C267.649 393.766 267.495 393.73 267.33 393.73ZM265.104 400.17C264.796 400.17 264.5 400.087 264.24 399.945C263.636 399.59 263.305 398.891 263.305 397.98C263.305 396.263 264.524 394.168 266.004 393.304C266.809 392.842 267.578 392.783 268.182 393.126C268.786 393.481 269.117 394.18 269.117 395.091C269.117 396.808 267.91 398.903 266.418 399.768C265.968 400.04 265.518 400.17 265.104 400.17Z" fill="black"/>
<path d="M149.564 379.89H148.747V375.356C148.546 374.978 148.569 374.658 148.617 374.457C148.7 374.173 148.889 373.924 149.173 373.758C149.682 373.474 150.31 373.533 151.032 373.96L150.605 374.67C150.167 374.409 149.824 374.35 149.576 374.48C149.516 374.516 149.445 374.575 149.422 374.67C149.386 374.788 149.445 374.942 149.516 375.037C149.552 375.108 149.564 375.179 149.564 375.25V379.89Z" fill="black"/>
<path fill-rule="evenodd" clip-rule="evenodd" d="M147.126 374.623C147.126 374.623 148.05 375.18 148.31 375.333C148.559 375.487 148.902 375.748 148.831 376.115V380.874C148.606 381.063 148.429 381.288 148.322 381.513C148.097 382.081 147.837 382.626 147.6 383.194C147.422 383.076 147.245 382.969 147.126 382.886C146.819 382.638 146.534 382.46 146.215 382.093V375.073C146.534 374.765 146.83 374.54 147.126 374.623Z" fill="black"/>
<path d="M141.656 408.326H140.283V400.963C140.283 392.641 160.751 354.428 168.292 351.267L183.125 342.803C184.273 342.128 185.422 342.08 186.262 342.672C186.937 343.099 213.087 358.133 226.819 366.017L226.145 367.224C222.037 364.857 186.014 344.176 185.481 343.809C185.09 343.537 184.487 343.608 183.812 343.986L168.943 352.486C168.908 352.51 168.884 352.522 168.848 352.533C165.842 353.741 159.508 362.489 152.713 374.801C146.202 386.592 141.656 397.352 141.656 400.963V408.326Z" fill="black"/>
<path d="M182.258 431.753H180.885V424.426C180.885 415.819 200.974 379.098 207.757 375.321L223.833 366.135C224.911 365.508 225.976 365.425 226.816 365.91C227.657 366.396 228.119 367.354 228.119 368.597V407.947H226.734V368.597C226.734 367.875 226.52 367.331 226.13 367.106C225.739 366.881 225.147 366.964 224.508 367.331L208.432 376.517C202.063 380.069 182.258 416.329 182.258 424.426V431.753Z" fill="black"/>
<path d="M224.724 371.462C218.45 375.025 207.322 381.347 207.014 381.536C203.297 383.419 191.151 406.929 190.5 409.154C190.299 409.865 190.678 410.244 190.926 410.421C191.281 410.658 191.684 410.67 191.814 410.575C191.826 410.563 191.85 410.551 191.862 410.54L224.724 391.67V371.462ZM191.566 411.463C191.21 411.463 190.808 411.345 190.465 411.108C189.731 410.611 189.458 409.794 189.707 408.93C190.323 406.822 202.433 382.921 206.612 380.814C206.884 380.637 222.972 371.509 224.807 370.468C224.961 370.373 225.15 370.373 225.304 370.456C225.458 370.551 225.553 370.716 225.553 370.906V391.764C225.553 391.989 225.411 392.238 225.209 392.356L192.288 411.25C192.098 411.392 191.838 411.463 191.566 411.463Z" fill="black"/>
<path d="M140.364 409.676L180.152 432.168L180.957 431.694L141.134 409.226L140.364 409.676ZM180.152 433.056C180.081 433.056 180.01 433.032 179.951 432.997L139.334 410.043C139.204 409.96 139.121 409.83 139.121 409.676C139.121 409.534 139.192 409.392 139.322 409.321L140.932 408.385C141.051 408.314 141.216 408.314 141.335 408.385L181.987 431.327C182.117 431.41 182.2 431.541 182.2 431.694C182.2 431.836 182.117 431.979 181.999 432.05L180.365 432.997C180.294 433.032 180.223 433.056 180.152 433.056Z" fill="black"/>
<path d="M139.783 413.712C139.984 413.819 179.441 436.773 179.843 437.009C179.914 437.057 180.187 437.128 180.376 436.998L186.697 433.34C187.195 433.055 187.384 432.937 187.384 432.144V429.35C187.384 429.208 187.349 429.137 187.325 429.125C187.313 429.113 187.23 429.113 187.112 429.184L180.909 432.795C180.542 433.008 180.092 433.02 179.725 432.807L139.748 410.232C139.748 410.244 139.736 410.255 139.736 410.279V413.262C139.736 413.369 139.736 413.677 139.783 413.712ZM180.127 437.909C179.831 437.909 179.571 437.814 179.405 437.708C177.807 436.773 139.546 414.517 139.381 414.422C138.907 414.15 138.907 413.617 138.919 413.25V410.279C138.919 409.64 139.203 409.367 139.262 409.32C139.393 409.202 139.582 409.178 139.736 409.273L180.127 432.085C180.234 432.144 180.376 432.144 180.494 432.085L186.697 428.474C187.064 428.261 187.443 428.237 187.739 428.415C188.035 428.581 188.213 428.924 188.213 429.35V432.144C188.213 433.422 187.656 433.742 187.159 434.026L180.814 437.696C180.601 437.85 180.352 437.909 180.127 437.909Z" fill="black"/>
<path d="M196.726 410.469H195.909V402.04C195.874 401.354 195.388 400.525 194.808 400.193L193.861 399.661L194.276 398.939L195.211 399.471C196.04 399.945 196.691 401.046 196.726 402.028V410.469Z" fill="black"/>
<path fill-rule="evenodd" clip-rule="evenodd" d="M195.934 410.611L197.354 411.001C197.65 411.084 197.958 410.859 197.958 410.54V403.082C197.958 402.726 197.71 402.395 197.354 402.3L195.934 401.91C195.626 401.827 195.33 402.064 195.33 402.371V409.829C195.33 410.196 195.579 410.516 195.934 410.611Z" fill="black"/>
<path d="M169.213 424.094H168.396V419.11C168.396 417.891 167.733 416.754 166.691 416.15L155.185 409.497C154.972 409.379 154.711 409.379 154.498 409.497C154.285 409.628 154.155 409.853 154.155 410.101V415.547H153.326V410.101C153.326 409.557 153.61 409.059 154.084 408.787C154.557 408.515 155.126 408.515 155.599 408.787L167.106 415.44C168.408 416.186 169.213 417.595 169.213 419.11V424.094Z" fill="black"/>
<path d="M172.006 421.856L177.558 425.076V420.708L172.338 417.677C172.184 417.583 172.053 417.642 172.006 417.677C171.947 417.701 171.84 417.784 171.84 417.962V421.572C171.84 421.691 171.9 421.797 172.006 421.856ZM177.972 426.201C177.901 426.201 177.83 426.189 177.771 426.154L171.592 422.567C171.237 422.365 171.012 421.975 171.012 421.572V417.962C171.012 417.547 171.225 417.168 171.592 416.955C171.947 416.742 172.385 416.754 172.74 416.955L178.186 420.104C178.316 420.187 178.387 420.317 178.387 420.471V425.787C178.387 425.94 178.316 426.071 178.186 426.154C178.115 426.189 178.044 426.201 177.972 426.201Z" fill="black"/>
<path d="M178.389 425.171L179.147 425.621C179.265 425.68 179.36 425.633 179.395 425.609C179.443 425.586 179.526 425.515 179.526 425.384V422.283C179.526 422.188 179.478 422.105 179.395 422.058L178.389 421.49V425.171ZM179.265 426.473C179.088 426.473 178.91 426.426 178.744 426.343L177.762 425.763C177.643 425.692 177.561 425.562 177.561 425.408V420.768C177.561 420.625 177.643 420.483 177.762 420.412C177.892 420.341 178.046 420.341 178.176 420.412L179.786 421.324C180.129 421.513 180.354 421.88 180.354 422.283V425.384C180.354 425.775 180.153 426.118 179.822 426.32C179.644 426.426 179.455 426.473 179.265 426.473Z" fill="black"/>
<path d="M144.981 406.787L150.261 409.853C150.391 409.924 150.509 409.877 150.557 409.853C150.604 409.817 150.711 409.746 150.711 409.581V405.911C150.711 405.804 150.651 405.71 150.557 405.65L144.981 402.419V406.787ZM150.403 410.717C150.213 410.717 150.024 410.67 149.846 410.563L144.365 407.391C144.235 407.32 144.164 407.178 144.164 407.035V401.708C144.164 401.554 144.235 401.424 144.365 401.341C144.496 401.27 144.649 401.27 144.78 401.341L150.971 404.928C151.314 405.13 151.539 405.508 151.539 405.911V409.581C151.539 409.995 151.326 410.362 150.971 410.563C150.793 410.67 150.604 410.717 150.403 410.717Z" fill="black"/>
<path d="M143.324 401.886C143.253 401.886 143.194 401.91 143.17 401.922C143.123 401.957 143.016 402.028 143.016 402.182V405.177C143.016 405.284 143.075 405.378 143.17 405.438L144.164 406.006V402.324L143.466 401.922C143.419 401.898 143.359 401.886 143.324 401.886ZM144.567 407.131C144.496 407.131 144.425 407.119 144.366 407.083L142.756 406.148C142.412 405.947 142.188 405.58 142.188 405.177V402.182C142.188 401.78 142.401 401.413 142.756 401.211C143.111 401.01 143.525 401.01 143.88 401.211L144.78 401.721C144.898 401.803 144.981 401.934 144.981 402.087V406.728C144.981 406.87 144.898 407.012 144.78 407.083C144.709 407.119 144.638 407.131 144.567 407.131Z" fill="black"/>
<path d="M164.395 361.779C163.957 361.779 163.412 362.217 162.122 363.827C158.878 367.84 150.414 383.537 149.372 386.426C149.064 387.29 149.573 387.633 150.189 387.953C150.248 387.976 150.296 388.012 150.343 388.036L183.004 406.894C183.312 407.071 183.679 407.119 184.022 407.012C184.365 406.906 184.638 406.669 184.792 406.337C188.864 397.861 194.049 388.77 198.323 382.602C198.5 382.353 198.559 382.057 198.5 381.761C198.429 381.454 198.24 381.205 197.979 381.051L164.809 361.897C164.667 361.826 164.537 361.779 164.395 361.779ZM183.643 407.9C183.276 407.9 182.909 407.793 182.59 407.616L149.929 388.746C149.893 388.734 149.846 388.71 149.81 388.687C149.36 388.45 148.011 387.752 148.603 386.142C149.656 383.229 158.203 367.366 161.482 363.306C163.045 361.364 163.921 360.512 165.2 361.175L198.394 380.329C198.855 380.601 199.187 381.051 199.305 381.572C199.412 382.093 199.305 382.637 199.009 383.075C194.818 389.125 189.527 398.394 185.537 406.692C185.289 407.225 184.815 407.628 184.259 407.805C184.058 407.864 183.845 407.9 183.643 407.9Z" fill="black"/>
<path d="M208.113 418.767C202.348 422.117 197.649 430.25 197.649 436.891C197.649 439.957 198.643 442.218 200.454 443.272C202.277 444.314 204.751 444.053 207.427 442.503C213.192 439.164 217.88 431.032 217.88 424.379C217.88 421.312 216.885 419.063 215.086 418.01C213.263 416.956 210.777 417.228 208.113 418.767ZM202.917 445.285C201.78 445.285 200.715 445.012 199.768 444.468C197.507 443.154 196.275 440.466 196.275 436.891C196.275 429.812 201.271 421.135 207.427 417.583C210.54 415.772 213.5 415.5 215.773 416.814C218.01 418.116 219.253 420.803 219.253 424.379C219.253 431.47 214.257 440.135 208.113 443.698C206.29 444.752 204.527 445.285 202.917 445.285Z" fill="black"/>
<path d="M210.518 423.1C209.748 423.1 208.884 423.361 207.973 423.882C204.682 425.788 202.018 430.416 202.018 434.204C202.018 435.945 202.575 437.223 203.604 437.815C204.646 438.419 206.043 438.265 207.558 437.389C210.849 435.483 213.513 430.854 213.513 427.066C213.513 425.338 212.956 424.047 211.927 423.455C211.512 423.219 211.039 423.1 210.518 423.1ZM205.013 439.011C204.35 439.011 203.746 438.857 203.19 438.537C201.9 437.791 201.189 436.252 201.189 434.204C201.189 430.156 204.042 425.207 207.558 423.171C209.346 422.141 211.039 421.988 212.341 422.745C213.631 423.491 214.342 425.03 214.342 427.066C214.342 431.115 211.489 436.075 207.973 438.111C206.943 438.703 205.925 439.011 205.013 439.011Z" fill="black"/>
<path d="M208.882 427.835C208.61 427.835 208.302 427.93 207.971 428.119C206.728 428.842 205.686 430.653 205.686 432.085C205.686 432.689 205.875 433.127 206.207 433.328C206.55 433.518 207.024 433.458 207.556 433.151C208.799 432.44 209.841 430.617 209.841 429.197C209.841 428.581 209.664 428.143 209.32 427.954C209.19 427.871 209.036 427.835 208.882 427.835ZM206.657 434.275C206.337 434.275 206.053 434.192 205.793 434.05C205.189 433.695 204.857 432.997 204.857 432.085C204.857 430.369 206.077 428.273 207.556 427.409C208.361 426.947 209.131 426.876 209.735 427.232C210.338 427.575 210.67 428.273 210.67 429.197C210.67 430.913 209.462 433.009 207.971 433.873C207.509 434.133 207.059 434.275 206.657 434.275Z" fill="black"/>
<mask id="mask2_1_333" style="mask-type:luminance" maskUnits="userSpaceOnUse" x="291" y="99" width="37" height="58">
<path d="M291.193 99.5685H327.56V156.51H291.193V99.5685Z" fill="white"/>
</mask>
<g mask="url(#mask2_1_333)">
<path d="M310.857 131.875C306.146 129.732 302.322 123.067 302.819 117.906L303.636 117.988C303.174 122.759 306.844 129.14 311.201 131.129L310.857 131.875ZM304.855 154.663L304.5 153.917L309.863 151.407C309.97 151.313 310.123 151.242 310.254 151.265C310.112 151.23 309.97 151.289 309.899 151.36C310.123 151.159 316.871 144.541 320.411 141.061C322.139 139.356 323.441 137.225 324.305 134.727C324.814 133.26 325.075 131.934 325.075 130.809C325.075 121.22 318.327 109.501 310.052 104.706C305.98 102.35 302.085 102.043 299.351 103.854L293.846 107.038L293.432 106.328L298.913 103.144C301.896 101.167 306.11 101.463 310.467 103.984C318.966 108.921 325.904 120.948 325.904 130.809C325.904 132.028 325.619 133.437 325.087 135C324.187 137.616 322.802 139.853 320.991 141.653L315.723 146.814C312.136 150.342 310.928 151.526 310.455 151.905L310.49 151.94C310.455 151.987 310.396 152.058 310.301 152.118L304.855 154.663Z" fill="black"/>
</g>
<path d="M304.678 134.266C300.807 132.005 297.682 126.571 297.658 122.084C297.635 117.669 300.985 115.727 304.773 117.953C308.644 120.226 311.769 125.66 311.793 130.146C311.817 134.562 308.467 136.503 304.678 134.266ZM304.726 107.547C296.309 102.67 289.49 106.624 289.49 116.378C289.49 117.693 289.834 119.504 290.283 121.339C291.195 125.032 292.568 128.785 294.285 132.455L304.596 154.604C304.667 154.734 304.832 154.757 304.927 154.663L315.167 144.565C316.883 142.872 318.257 140.706 319.168 138.066C319.618 136.764 319.961 135.343 319.961 134.017C319.961 124.274 313.131 112.425 304.726 107.547Z" fill="black"/>
<path d="M301.721 117.444C301.094 117.444 300.502 117.586 299.993 117.882C298.762 118.592 298.063 120.131 298.075 122.072C298.099 126.417 301.153 131.72 304.882 133.91C306.563 134.905 308.232 135.059 309.463 134.348C310.694 133.626 311.393 132.099 311.381 130.146C311.357 125.813 308.303 120.498 304.574 118.308C303.592 117.74 302.609 117.444 301.721 117.444ZM307.735 135.615C306.705 135.615 305.58 135.284 304.468 134.633C300.443 132.265 297.282 126.76 297.246 122.084C297.235 119.823 298.087 118.036 299.578 117.171C301.07 116.295 303.047 116.461 304.988 117.598C309.013 119.965 312.174 125.47 312.21 130.146C312.222 132.395 311.369 134.195 309.878 135.059C309.238 135.426 308.504 135.615 307.735 135.615ZM297.921 105.866C296.548 105.866 295.281 106.186 294.157 106.837C291.422 108.423 289.907 111.809 289.907 116.378C289.907 117.503 290.167 119.148 290.688 121.232C291.564 124.795 292.902 128.512 294.654 132.289L304.858 154.165L314.873 144.269C316.602 142.564 317.916 140.433 318.78 137.935C319.289 136.456 319.549 135.142 319.549 134.017C319.549 124.416 312.802 112.708 304.527 107.902C302.183 106.553 299.945 105.866 297.921 105.866ZM304.787 155.136C304.752 155.136 304.716 155.136 304.681 155.124C304.479 155.089 304.314 154.958 304.231 154.781L293.908 132.632C292.132 128.808 290.771 125.044 289.883 121.433C289.35 119.279 289.078 117.574 289.078 116.378C289.078 111.501 290.735 107.867 293.742 106.115C296.761 104.374 300.727 104.753 304.929 107.192C313.453 112.117 320.366 124.156 320.366 134.017C320.366 135.236 320.106 136.645 319.561 138.208C318.661 140.824 317.276 143.061 315.453 144.861L305.213 154.958C305.107 155.065 304.953 155.136 304.787 155.136Z" fill="black"/>
<path d="M349.102 250.81C345.503 249.165 342.567 244.063 342.946 240.12L343.763 240.191C343.419 243.778 346.178 248.561 349.445 250.053L349.102 250.81ZM344.852 268.366L344.449 267.644L348.32 265.466C348.332 265.442 348.344 265.442 348.356 265.43C348.533 265.265 353.647 260.245 356.323 257.617C357.613 256.339 358.596 254.729 359.247 252.858C359.638 251.745 359.827 250.751 359.827 249.911C359.827 242.666 354.737 233.823 348.486 230.2C345.385 228.401 342.543 228.176 340.472 229.549L336.293 231.976L335.879 231.254L340.034 228.851C342.33 227.324 345.562 227.548 348.889 229.478C355.376 233.231 360.656 242.405 360.656 249.911C360.656 250.846 360.443 251.923 360.028 253.119C359.342 255.119 358.288 256.836 356.891 258.209L352.902 262.116C350.285 264.696 349.327 265.631 348.912 265.975L348.948 265.998C348.912 266.034 348.865 266.105 348.77 266.152L344.852 268.366Z" fill="black"/>
<path d="M344.45 252.539C341.526 250.823 339.158 246.691 339.134 243.294C339.111 239.943 341.656 238.464 344.532 240.168C347.468 241.885 349.836 246.005 349.86 249.414C349.871 252.764 347.338 254.232 344.45 252.539ZM344.497 232.272C338.116 228.579 332.943 231.574 332.943 238.961C332.943 239.967 333.203 241.34 333.535 242.725C334.233 245.531 335.275 248.372 336.577 251.166L344.402 267.952C344.45 268.059 344.568 268.083 344.651 268L352.417 260.34C353.719 259.062 354.761 257.416 355.447 255.416C355.79 254.421 356.051 253.344 356.051 252.35C356.051 244.951 350.878 235.966 344.497 232.272Z" fill="black"/>
<path d="M342.214 239.873C341.753 239.873 341.327 239.979 340.96 240.192C340.048 240.725 339.539 241.85 339.551 243.294C339.563 246.549 341.871 250.539 344.665 252.184C345.908 252.906 347.139 253.025 348.039 252.504C348.938 251.983 349.459 250.858 349.447 249.414C349.424 246.159 347.127 242.169 344.333 240.524C343.599 240.086 342.866 239.873 342.214 239.873ZM346.784 253.652C345.979 253.652 345.103 253.403 344.251 252.894C341.173 251.095 338.746 246.869 338.722 243.294C338.71 241.542 339.373 240.157 340.545 239.482C341.705 238.807 343.244 238.926 344.748 239.802C347.826 241.613 350.241 245.827 350.276 249.414C350.276 251.154 349.613 252.551 348.453 253.226C347.956 253.51 347.388 253.652 346.784 253.652ZM339.338 231.101C338.308 231.101 337.361 231.337 336.532 231.823C334.484 233.007 333.36 235.54 333.36 238.961C333.36 239.813 333.549 241.045 333.94 242.631C334.603 245.318 335.621 248.136 336.946 250.989L344.618 267.455L352.123 260.045C353.425 258.766 354.419 257.156 355.059 255.286C355.438 254.173 355.639 253.19 355.639 252.35C355.639 245.093 350.548 236.25 344.286 232.628C342.534 231.61 340.841 231.101 339.338 231.101ZM344.547 268.461C344.511 268.461 344.475 268.461 344.44 268.45C344.262 268.414 344.109 268.308 344.026 268.13L336.201 251.344C334.851 248.431 333.821 245.567 333.146 242.82C332.732 241.187 332.531 239.884 332.531 238.961C332.531 235.232 333.798 232.438 336.118 231.101C338.438 229.751 341.48 230.047 344.7 231.917C351.188 235.67 356.456 244.833 356.456 252.35C356.456 253.285 356.254 254.362 355.84 255.558C355.153 257.559 354.1 259.263 352.703 260.637L344.937 268.296C344.831 268.402 344.689 268.461 344.547 268.461Z" fill="black"/>
<path d="M350.063 476.962H349.234V462.129H350.063V476.962Z" fill="black"/>
<path d="M304.369 507.694C304.287 507.694 304.227 507.67 304.156 507.635C304.026 507.564 303.955 507.434 303.955 507.28V462.129H304.784V506.558L324.115 495.359L324.53 496.081L304.571 507.635C304.511 507.67 304.44 507.694 304.369 507.694Z" fill="black"/>
<path d="M304.154 507.458L259.477 481.568C259.347 481.497 259.264 481.355 259.264 481.213V436.287H260.092V480.976L304.568 506.736L304.154 507.458Z" fill="black"/>
<path d="M287.584 420.424L287.17 419.702L304.394 409.723C304.525 409.652 304.678 409.652 304.809 409.723L321.974 419.679L321.559 420.389L304.596 410.563L287.584 420.424Z" fill="black"/>
<path d="M304.592 462.544C304.521 462.544 304.45 462.52 304.39 462.485L259.477 436.464C259.347 436.393 259.264 436.251 259.264 436.109C259.264 435.955 259.347 435.825 259.477 435.742L277.139 425.514L277.542 426.236L260.507 436.109L304.592 461.644L322.23 451.428L322.645 452.15L304.805 462.485C304.734 462.52 304.663 462.544 304.592 462.544Z" fill="black"/>
<path d="M351.44 436.323C351.215 436.323 351.026 436.134 351.026 435.909C350.99 435.779 351.026 435.637 351.097 435.542C351.18 435.435 351.298 435.376 351.416 435.376C351.653 435.376 351.854 435.554 351.854 435.79V435.909C351.854 436.134 351.665 436.323 351.44 436.323Z" fill="black"/>
<path d="M279.417 425.136L323.537 450.695L329.799 447.06L285.679 421.514L279.417 425.136ZM323.537 451.582C323.466 451.582 323.395 451.559 323.324 451.523L278.387 425.503C278.268 425.42 278.186 425.29 278.186 425.136C278.186 424.994 278.268 424.852 278.387 424.781L285.478 420.673C285.608 420.602 285.762 420.602 285.892 420.673L330.829 446.705C330.948 446.776 331.031 446.918 331.031 447.06C331.031 447.214 330.948 447.344 330.829 447.415L323.738 451.523C323.679 451.559 323.608 451.582 323.537 451.582Z" fill="black"/>
<path d="M324.02 469.67C323.972 469.67 323.925 469.67 323.866 469.646C323.712 469.575 323.617 469.433 323.617 469.268V451.013H324.434V468.226L324.919 467.717C325.014 467.622 325.144 467.575 325.263 467.599L325.937 467.67L326.683 466.711C326.766 466.604 326.908 466.533 327.05 466.557L327.725 466.628L328.471 465.681C328.554 465.562 328.696 465.503 328.838 465.527L329.501 465.598L330.164 464.757V447.213H330.992V464.899C330.992 464.994 330.957 465.089 330.909 465.16L330.01 466.296C329.927 466.403 329.785 466.462 329.643 466.45L328.98 466.367L328.234 467.326C328.139 467.433 327.997 467.492 327.855 467.48L327.192 467.409L326.446 468.356C326.352 468.463 326.222 468.534 326.068 468.51L325.381 468.439L324.327 469.552C324.245 469.635 324.138 469.67 324.02 469.67Z" fill="black"/>
<path d="M265.221 462.674L285.488 474.405C285.488 474.394 285.488 474.382 285.488 474.37V459.797C285.488 459.501 285.286 459.158 285.121 459.063L264.854 447.332C264.854 447.344 264.854 447.355 264.854 447.379V461.94C264.854 462.236 265.055 462.579 265.221 462.674ZM285.547 475.281C285.405 475.281 285.263 475.234 285.121 475.151L264.807 463.396C264.369 463.136 264.037 462.508 264.037 461.94V447.379C264.037 447 264.179 446.704 264.44 446.55C264.665 446.42 264.96 446.432 265.221 446.586L285.535 458.353C285.973 458.602 286.304 459.229 286.304 459.797V474.37C286.304 474.737 286.162 475.045 285.902 475.187C285.795 475.246 285.677 475.281 285.547 475.281Z" fill="black"/>
<path d="M275.557 464.521L267.814 460.034L268.229 459.324L275.971 463.798L275.557 464.521Z" fill="black"/>
<path d="M282.115 460.993L267.814 452.718L268.229 452.008L282.529 460.271L282.115 460.993Z" fill="black"/>
<path d="M282.115 464.686L267.814 456.411L268.229 455.701L282.529 463.976L282.115 464.686Z" fill="black"/>
<path d="M279.129 466.486L276.75 465.113L277.164 464.391L279.544 465.776L279.129 466.486Z" fill="black"/>
<path d="M292.874 484.824C292.981 486.434 294.188 488.482 295.561 489.381C296.141 489.76 296.651 489.867 296.97 489.677C297.278 489.5 297.432 489.026 297.384 488.375C297.29 486.765 296.07 484.717 294.697 483.817C294.117 483.439 293.608 483.332 293.289 483.51C292.981 483.699 292.827 484.172 292.874 484.824ZM296.615 490.601C296.153 490.601 295.644 490.423 295.112 490.08C293.513 489.026 292.164 486.741 292.046 484.871C291.974 483.888 292.27 483.154 292.874 482.799C293.478 482.444 294.283 482.551 295.147 483.119C296.745 484.161 298.095 486.445 298.213 488.316C298.284 489.31 297.988 490.044 297.384 490.399C297.16 490.53 296.899 490.601 296.615 490.601Z" fill="black"/>
<path d="M291.112 488.221L292.107 487.724C291.503 486.493 291.16 485.214 291.16 484.113C291.16 482.906 291.538 482.03 292.225 481.639C292.9 481.237 293.859 481.355 294.912 481.959C295.41 482.255 295.919 482.657 296.416 483.154L297.197 482.361C296.641 481.793 296.061 481.343 295.469 481C294.06 480.183 292.71 480.065 291.669 480.668C290.627 481.272 290.047 482.491 290.047 484.113C290.047 485.392 290.414 486.824 291.112 488.221Z" fill="black"/>
<path d="M293.135 480.703C292.673 480.703 292.247 480.81 291.868 481.023C290.968 481.556 290.459 482.645 290.459 484.113C290.459 485.214 290.755 486.445 291.3 487.664L291.56 487.534C291.039 486.362 290.755 485.155 290.755 484.113C290.755 482.751 291.193 481.745 292.01 481.272C292.827 480.81 293.94 480.916 295.112 481.603C295.55 481.852 295.976 482.183 296.402 482.574L296.603 482.373C296.165 481.958 295.715 481.615 295.254 481.354C294.508 480.916 293.786 480.703 293.135 480.703ZM291.11 488.635C290.957 488.635 290.815 488.552 290.744 488.398C290.021 486.942 289.643 485.462 289.643 484.113C289.643 482.337 290.282 480.988 291.454 480.313C292.638 479.626 294.129 479.745 295.668 480.632C296.296 480.999 296.911 481.485 297.491 482.077C297.657 482.242 297.645 482.503 297.491 482.657L296.698 483.438C296.532 483.604 296.272 483.604 296.118 483.438C295.644 482.964 295.183 482.597 294.709 482.313C293.786 481.793 292.981 481.674 292.425 481.994C291.88 482.313 291.572 483.059 291.572 484.113C291.572 485.143 291.892 486.362 292.472 487.534C292.519 487.641 292.531 487.759 292.496 487.854C292.46 487.96 292.389 488.043 292.294 488.09L291.288 488.588C291.229 488.623 291.17 488.635 291.11 488.635Z" fill="black"/>
<path d="M297.24 493.228C297.773 493.228 298.27 493.11 298.708 492.849C299.75 492.246 300.318 491.026 300.318 489.416C300.318 488.126 299.951 486.694 299.264 485.297L298.27 485.794C298.874 487.025 299.205 488.303 299.205 489.416C299.205 490.612 298.838 491.488 298.152 491.89C297.465 492.281 296.506 492.163 295.464 491.559C294.955 491.263 294.458 490.872 293.961 490.363L293.18 491.156C293.736 491.713 294.316 492.175 294.908 492.518C295.725 492.991 296.506 493.228 297.24 493.228Z" fill="black"/>
<path d="M293.764 491.145C294.202 491.56 294.664 491.903 295.114 492.163C296.392 492.897 297.6 493.016 298.511 492.495C299.411 491.962 299.908 490.873 299.908 489.417C299.908 488.304 299.624 487.073 299.079 485.854L298.819 485.984C299.34 487.156 299.624 488.363 299.624 489.417C299.624 490.766 299.174 491.773 298.369 492.246C297.54 492.72 296.439 492.601 295.256 491.915C294.829 491.666 294.391 491.346 293.977 490.944L293.764 491.145ZM297.244 493.643C296.439 493.643 295.575 493.383 294.711 492.885C294.084 492.518 293.468 492.033 292.888 491.441C292.722 491.287 292.722 491.015 292.888 490.861L293.681 490.08C293.752 489.997 293.859 489.95 293.965 489.95C294.072 489.95 294.178 489.997 294.261 490.08C294.723 490.553 295.196 490.932 295.67 491.204C296.593 491.725 297.398 491.844 297.955 491.524C298.499 491.204 298.807 490.459 298.807 489.417C298.807 488.375 298.487 487.156 297.907 485.972C297.86 485.877 297.848 485.759 297.884 485.664C297.919 485.558 297.99 485.475 298.085 485.427L299.091 484.93C299.292 484.824 299.541 484.907 299.636 485.12C300.358 486.564 300.737 488.056 300.737 489.417C300.737 491.181 300.086 492.53 298.914 493.205C298.416 493.501 297.86 493.643 297.244 493.643Z" fill="black"/>
<path d="M361.264 526.812C352.136 526.812 343.021 524.8 336.072 520.775C329.218 516.809 325.442 511.482 325.418 505.788V498.259H326.803V505.788C326.803 510.973 330.343 515.862 336.759 519.579C350.266 527.404 372.261 527.404 385.78 519.579C392.196 515.862 395.724 510.973 395.736 505.788V498.259H397.109V505.788C397.097 511.482 393.321 516.809 386.467 520.775C379.518 524.8 370.391 526.812 361.264 526.812Z" fill="black"/>
<path d="M361.264 479.212C352.385 479.212 343.507 481.166 336.747 485.072C330.331 488.789 326.803 493.678 326.803 498.852C326.803 504.025 330.331 508.914 336.747 512.619C350.266 520.444 372.261 520.444 385.78 512.619C392.196 508.914 395.736 504.025 395.736 498.852C395.736 493.678 392.196 488.789 385.78 485.072C379.021 481.166 370.142 479.212 361.264 479.212ZM361.264 519.852C352.136 519.852 343.009 517.84 336.072 513.815C329.206 509.849 325.418 504.534 325.418 498.852C325.418 493.169 329.206 487.854 336.06 483.888C349.958 475.85 372.569 475.85 386.467 483.888C393.333 487.854 397.109 493.169 397.109 498.852C397.109 504.534 393.333 509.861 386.467 513.815C379.518 517.84 370.391 519.852 361.264 519.852Z" fill="black"/>
<path d="M360.541 509.328C353.758 509.328 346.963 507.931 341.801 505.149C335.717 501.87 332.899 497.134 334.261 492.458C334.272 492.423 334.284 492.387 334.296 492.364C334.414 491.997 334.675 491.18 334.959 490.706C336.202 488.256 338.57 486.007 341.79 484.207C342.228 483.97 342.701 483.746 343.151 483.532C343.506 483.379 343.873 483.201 344.216 483.023C347.259 481.449 356.481 476.643 357.001 473.849C357.581 470.807 357.522 461.525 357.522 461.431L358.339 461.419C358.351 461.81 358.41 470.878 357.818 474.003C357.404 476.217 353.332 479.223 344.595 483.757C344.24 483.947 343.861 484.124 343.494 484.29C343.044 484.503 342.606 484.704 342.192 484.929C339.114 486.646 336.865 488.777 335.681 491.097C335.421 491.559 335.137 492.446 335.042 492.766C335.042 492.79 335.018 492.825 335.006 492.849C333.858 497.134 336.462 501.337 342.18 504.415C352.314 509.872 368.78 509.872 378.902 504.415C384.655 501.325 387.319 496.933 386.04 492.695L386.821 492.446C388.23 497.099 385.413 501.846 379.292 505.149C374.119 507.931 367.336 509.328 360.541 509.328Z" fill="black"/>
<path d="M386.431 492.566C386.431 492.566 380.631 486.599 360.553 486.445C340.216 486.303 334.652 492.648 334.652 492.648L334.663 492.566C333.397 496.91 335.824 501.468 341.991 504.782C352.231 510.299 368.852 510.299 379.104 504.782C385.271 501.456 387.733 496.875 386.431 492.566Z" fill="black"/>
<path d="M335.006 492.873C333.87 497.146 336.486 501.349 342.18 504.415C352.314 509.872 368.78 509.872 378.902 504.415C384.608 501.349 387.271 497.016 386.064 492.802C385.354 492.162 379.032 487.001 360.553 486.859C341.541 486.729 335.551 492.316 335.006 492.873ZM360.541 509.327C353.758 509.327 346.963 507.931 341.801 505.149C335.717 501.869 332.899 497.134 334.261 492.458C334.296 492.316 334.403 492.221 334.521 492.174C335.646 491.097 341.849 486.03 359.831 486.03C360.067 486.03 360.304 486.03 360.553 486.03C380.571 486.184 386.49 492.032 386.727 492.281C386.774 492.328 386.81 492.387 386.821 492.446C388.23 497.099 385.413 501.846 379.292 505.149C374.119 507.931 367.336 509.327 360.541 509.327Z" fill="black"/>
<path d="M386.028 492.719C385.945 492.411 385.72 491.677 385.424 491.132C384.429 489.179 382.583 487.344 379.6 485.367C377.8 484.172 375.823 482.952 373.905 481.769C368.14 478.229 363.168 475.163 362.671 472.677C362.056 469.575 362.375 461.656 362.399 461.312L363.216 461.348C363.216 461.431 362.884 469.504 363.476 472.511C363.902 474.642 369.206 477.909 374.332 481.07C376.249 482.254 378.238 483.473 380.061 484.681C383.163 486.741 385.104 488.67 386.146 490.742C386.442 491.286 386.655 491.926 386.821 492.482L386.028 492.719Z" fill="black"/>
<path d="M360.848 511.837C353.319 511.837 345.802 510.168 340.072 506.853C334.449 503.598 331.348 499.242 331.336 494.589C331.336 494.589 331.36 488.043 331.36 486.208C331.36 474.725 338.072 464.177 348.466 459.347L348.809 460.093C338.711 464.793 332.188 475.045 332.188 486.208C332.188 488.043 332.165 494.589 332.165 494.589C332.165 498.934 335.124 503.03 340.487 506.143C351.709 512.642 369.987 512.642 381.222 506.143C386.56 503.042 389.508 498.958 389.532 494.613C389.532 494.459 389.532 491.63 389.532 486.208C389.532 474.299 382.393 463.787 371.337 459.418L371.645 458.649C383.009 463.136 390.36 473.956 390.36 486.208V491.192C390.36 493.358 390.36 494.234 390.313 494.625H390.349C390.337 499.265 387.235 503.61 381.624 506.853C375.906 510.168 368.377 511.837 360.848 511.837Z" fill="black"/>
<path d="M359.239 459.762C347.685 459.762 338.865 451.452 335.562 443.721L336.32 443.39C339.516 450.872 348.052 458.933 359.239 458.933C369.218 458.933 378.049 453.109 382.287 443.733L383.045 444.077C378.665 453.748 369.55 459.762 359.239 459.762Z" fill="black"/>
<path d="M359.474 454.719C353.223 454.719 346.973 453.334 342.202 450.564C336.851 447.45 334.259 443.117 335.087 438.678L335.892 438.82C335.135 442.904 337.585 446.917 342.616 449.841C351.921 455.251 367.038 455.251 376.331 449.841C381.386 446.906 383.836 442.869 383.055 438.773L383.86 438.619C384.712 443.082 382.132 447.427 376.745 450.564C371.987 453.334 365.736 454.719 359.474 454.719Z" fill="black"/>
<path d="M359.276 462.153C344.431 462.153 331.847 451.026 330 436.275L330.817 436.169C332.616 450.505 344.845 461.325 359.276 461.325C373.931 461.325 386.183 450.315 387.77 435.719L388.598 435.814C386.953 450.824 374.345 462.153 359.276 462.153Z" fill="black"/>
<path d="M359.475 444.846C350.359 444.846 341.232 442.822 334.283 438.809C327.429 434.831 323.653 429.516 323.629 423.822V416.364H325.014V423.822C325.026 428.995 328.554 433.896 334.97 437.613C348.477 445.438 370.472 445.438 383.991 437.613C390.407 433.896 393.935 428.995 393.935 423.822V416.364H395.32V423.822C395.32 429.504 391.532 434.831 384.678 438.809C377.729 442.822 368.602 444.846 359.475 444.846Z" fill="black"/>
<path d="M359.475 396.725C350.596 396.725 341.717 398.678 334.958 402.585C328.542 406.29 325.014 411.179 325.014 416.364C325.014 421.526 328.542 426.427 334.958 430.132C348.477 437.945 370.472 437.945 383.991 430.132C390.407 426.427 393.935 421.537 393.935 416.364C393.935 411.191 390.407 406.29 383.991 402.585C377.232 398.678 368.353 396.725 359.475 396.725ZM359.475 437.353C350.347 437.353 341.22 435.341 334.283 431.327C327.417 427.362 323.629 422.046 323.629 416.364C323.629 410.67 327.417 405.355 334.271 401.389C348.169 393.351 370.78 393.351 384.678 401.389C391.544 405.355 395.32 410.67 395.32 416.364C395.32 422.046 391.544 427.362 384.678 431.327C377.729 435.341 368.602 437.353 359.475 437.353Z" fill="black"/>
<path d="M132.529 382.045C132.493 382.045 132.446 382.033 132.41 382.022C132.268 381.986 132.162 381.88 132.126 381.737L126.468 360.902L104.224 364.584L104.094 363.767L126.693 360.026C126.906 359.991 127.107 360.121 127.154 360.322L132.754 380.885L147.575 368.183L148.119 368.822L132.801 381.939C132.718 382.01 132.623 382.045 132.529 382.045Z" fill="black"/>
<path d="M129.745 400.406C129.71 400.347 125.519 395.351 130.586 389.941C135.416 384.768 143.253 378.636 143.335 378.577L143.845 379.228C143.762 379.287 135.972 385.384 131.178 390.498C126.62 395.375 130.219 399.684 130.373 399.862L129.745 400.406Z" fill="black"/>
<path d="M99.2866 367.792L99.1445 366.975L122.323 362.938L122.454 363.755L99.2866 367.792Z" fill="black"/>
<path fill-rule="evenodd" clip-rule="evenodd" d="M137.158 290.667L142.604 296.124L148.049 290.667L142.604 285.198L137.158 290.667Z" fill="black"/>
<path d="M143.016 302.055H142.188V300.398H143.016V302.055ZM143.016 305.37H142.188V303.712H143.016V305.37ZM143.016 308.684H142.188V307.027H143.016V308.684ZM143.016 311.987H142.188V310.33H143.016V311.987ZM143.016 315.302H142.188V313.644H143.016V315.302ZM143.016 318.616H142.188V316.959H143.016V318.616ZM143.016 321.919H142.188V320.274H143.016V321.919ZM143.016 325.234H142.188V323.577H143.016V325.234ZM143.016 328.549H142.188V326.891H143.016V328.549ZM143.016 331.863H142.188V330.206H143.016V331.863ZM143.016 335.166H142.188V333.509H143.016V335.166ZM143.016 338.481H142.188V336.823H143.016V338.481ZM143.016 341.795H142.188V340.138H143.016V341.795ZM143.016 344.423H142.188V343.453H143.016V344.423Z" fill="black"/>
</svg>
