<svg width="163" height="163" viewBox="0 0 163 163" fill="none" xmlns="http://www.w3.org/2000/svg">
<path d="M81.9239 155.361C122.834 155.361 155.998 122.197 155.998 81.2871C155.998 40.3771 122.834 7.21289 81.9239 7.21289C41.0138 7.21289 7.84961 40.3771 7.84961 81.2871C7.84961 122.197 41.0138 155.361 81.9239 155.361Z" fill="white"/>
<path d="M81.9238 161.287C126.107 161.287 161.924 125.47 161.924 81.2871C161.924 37.1043 126.107 1.28711 81.9238 1.28711C37.7411 1.28711 1.92383 37.1043 1.92383 81.2871C1.92383 125.47 37.7411 161.287 81.9238 161.287Z" stroke="white" stroke-width="2" stroke-miterlimit="10"/>
<mask id="mask0_1_2040" style="mask-type:luminance" maskUnits="userSpaceOnUse" x="7" y="7" width="150" height="149">
<path d="M81.9278 155.361C122.838 155.361 156.002 122.197 156.002 81.2871C156.002 40.3771 122.838 7.21289 81.9278 7.21289C41.0177 7.21289 7.85352 40.3771 7.85352 81.2871C7.85352 122.197 41.0177 155.361 81.9278 155.361Z" fill="white"/>
</mask>
<g mask="url(#mask0_1_2040)">
<path d="M126.178 126.232C126.039 125.785 121.878 89.9313 118.586 61.4408C116.316 41.7922 100.615 27.1059 82.1116 27.3167C63.4909 27.5289 48.0292 42.7565 46.2938 62.5933L40.5533 128.213L126.178 126.232Z" fill="#000035"/>
<path d="M125.821 123.621C120.644 119.739 109.321 116.752 101.297 113.349C101.176 113.298 101.065 113.246 100.946 113.194C99.9707 112.773 99.0411 112.347 98.1872 111.911C97.8073 111.717 97.4444 111.52 97.0935 111.323C94.8232 110.042 93.1911 108.678 92.6336 107.171C92.5756 107.013 92.5218 106.856 92.4673 106.699C86.3569 108.038 79.9338 107.939 73.8679 106.412C73.7859 106.666 73.701 106.919 73.6083 107.171C72.9822 108.864 71.002 110.376 68.2832 111.792C68.0292 111.925 67.7766 112.058 67.5099 112.189C66.7572 112.558 65.9499 112.92 65.1109 113.278C64.6567 113.472 64.1961 113.664 63.7228 113.855C55.8076 117.052 45.3399 119.933 40.4216 123.621C32.4109 129.629 28.6917 155.092 28.6917 155.092H64.1232H69.4526H82.9059H83.3353H103.222H111.417H137.549C137.551 155.091 133.832 129.628 125.821 123.621Z" fill="#F0C02A"/>
<path d="M92.4669 106.697C90.2489 100.239 91.1743 93.1504 91.1743 93.1504L83.1205 93.7057L74.4929 93.1504C74.4929 93.1504 75.9213 100.031 73.8675 106.41C79.934 107.938 86.3572 108.036 92.4669 106.697Z" fill="#EBA08C"/>
<path d="M110.935 64.9419C110.935 81.0524 100.689 100.279 81.7642 100.279C62.8393 100.279 52.5938 81.0524 52.5938 64.9419C52.5938 48.8314 65.6536 35.7715 81.7642 35.7715C97.8747 35.7722 110.935 48.8321 110.935 64.9419Z" fill="#EBA08C"/>
<path d="M55.8434 66.6179C57.3221 64.5337 58.0847 62.0215 58.5339 59.5057C59.0306 56.7232 59.1332 53.7038 57.7671 51.2297C57.3461 50.4678 56.7709 49.7596 55.9955 49.3627C54.6252 48.6623 52.8763 49.1045 51.7054 50.1035C50.5346 51.1024 49.8505 52.5563 49.3694 54.0186C47.9601 58.3044 48.0549 62.9256 48.8543 67.3212C49.2357 69.4188 49.1564 71 51.5859 70.064C53.3065 69.3997 54.7844 68.1107 55.8434 66.6179Z" fill="#000035"/>
<path d="M108.909 66.6179C107.43 64.5337 106.668 62.0215 106.218 59.5057C105.722 56.7232 105.619 53.7038 106.985 51.2297C107.406 50.4678 107.981 49.7596 108.757 49.3627C110.127 48.6623 111.876 49.1045 113.047 50.1035C114.218 51.1024 114.902 52.5563 115.383 54.0186C116.792 58.3044 116.697 62.9256 115.898 67.3212C115.517 69.4188 115.596 71 113.166 70.064C111.445 69.3997 109.968 68.1107 108.909 66.6179Z" fill="#000035"/>
<path d="M118.686 69.8447C118.294 71.9254 117.146 73.8504 115.686 75.2923C114.694 76.2714 113.535 77.0588 112.295 77.3927C111.055 77.7267 109.733 77.5753 108.749 76.819C107.848 76.1271 107.286 74.9831 107.011 73.7592C106.379 70.9335 107.235 67.653 108.97 65.1952C110.176 63.4881 111.881 62.0944 113.717 61.8638C117.417 61.3975 119.378 66.1645 118.686 69.8447Z" fill="#EBA08C"/>
<path d="M108.271 74.1799C109.158 74.129 110.038 73.8128 110.786 73.2758C111.012 73.1131 111.249 72.8831 111.239 72.5959C111.232 72.436 111.148 72.2952 111.062 72.1658C110.558 71.401 109.929 70.7324 109.211 70.1969C109.735 69.0161 110.268 67.8205 111.05 66.8116C111.832 65.8021 112.905 64.9821 114.106 64.8151C115.307 64.6482 116.616 65.2616 117.075 66.4409C117.075 66.4409 118.686 69.846 114.89 73.5319C110.888 77.4194 108.271 74.1799 108.271 74.1799Z" fill="#EBA08C"/>
<path d="M117.075 66.442C116.619 65.6016 115.745 65.146 114.895 65.0929C114.042 65.0313 113.222 65.3922 112.547 65.9206C111.865 66.4562 111.32 67.1552 110.861 67.9242C110.407 68.6982 110.013 69.5287 109.623 70.3812L109.48 69.8365C109.947 70.2065 110.372 70.626 110.744 71.0852C110.926 71.3179 111.095 71.5599 111.251 71.8089C111.326 71.9355 111.406 72.0473 111.486 72.2306C111.568 72.4046 111.594 72.6763 111.507 72.8779C111.333 73.2819 111.02 73.4417 110.779 73.5896C110.523 73.7396 110.248 73.8514 109.972 73.9476C109.418 74.1322 108.837 74.2277 108.27 74.1811C108.825 74.0686 109.352 73.8875 109.827 73.6186C110.065 73.4856 110.284 73.3264 110.498 73.1665C110.714 73.0067 110.894 72.8192 110.914 72.6819C110.921 72.6161 110.914 72.5892 110.873 72.51C110.834 72.4378 110.745 72.3232 110.664 72.2164C110.499 72.0042 110.324 71.8004 110.14 71.6073C109.777 71.216 109.376 70.8623 108.942 70.5602L108.652 70.3579L108.8 70.0155C109.17 69.1559 109.54 68.2687 110.057 67.4374C110.563 66.6055 111.216 65.8131 112.058 65.2464C112.883 64.6811 113.952 64.3246 114.975 64.5538C115.969 64.7597 116.856 65.5046 117.075 66.442Z" fill="#000035"/>
<path d="M44.0426 69.8447C44.4345 71.9254 45.5827 73.8504 47.0423 75.2923C48.0341 76.2714 49.1937 77.0588 50.4339 77.3927C51.6734 77.7267 52.9956 77.5753 53.9804 76.819C54.881 76.1271 55.4435 74.9831 55.718 73.7592C56.3504 70.9335 55.4951 67.653 53.759 65.1952C52.5534 63.4881 50.8477 62.0944 49.0118 61.8638C45.3111 61.3975 43.35 66.1645 44.0426 69.8447Z" fill="#EBA08C"/>
<path d="M54.4593 74.1799C53.5722 74.129 52.6921 73.8128 51.9443 73.2758C51.7179 73.1131 51.4809 72.8831 51.4915 72.5959C51.4979 72.436 51.5821 72.2952 51.667 72.1658C52.1714 71.401 52.8003 70.7324 53.5184 70.1969C52.9942 69.0161 52.4615 67.8205 51.6797 66.8116C50.8972 65.8021 49.824 64.9821 48.6234 64.8151C47.4221 64.6482 46.1133 65.2616 45.6549 66.4409C45.6549 66.4409 44.0433 69.846 47.8395 73.5319C51.8431 77.4194 54.4593 74.1799 54.4593 74.1799Z" fill="#EBA08C"/>
<path d="M45.6526 66.442C45.8713 65.5053 46.7584 64.7597 47.7531 64.5538C48.7754 64.3246 49.8458 64.6811 50.67 65.2464C51.5126 65.8124 52.1656 66.6055 52.6715 67.4374C53.1886 68.2687 53.5579 69.1559 53.9286 70.0155L54.0765 70.3579L53.7864 70.5602C53.3528 70.8623 52.9516 71.216 52.5887 71.6073C52.404 71.8004 52.2293 72.0042 52.0645 72.2164C51.9838 72.3232 51.8939 72.4378 51.855 72.51C51.8147 72.5885 51.8069 72.6161 51.814 72.6819C51.8345 72.8199 52.0142 73.0074 52.2307 73.1665C52.4444 73.3264 52.6637 73.4856 52.9014 73.6186C53.3761 73.8875 53.9025 74.0679 54.4585 74.1811C53.8912 74.2277 53.311 74.1322 52.7564 73.9476C52.4805 73.8521 52.2052 73.7396 51.9498 73.5896C51.7079 73.4417 51.3952 73.2819 51.2219 72.8779C51.1348 72.6763 51.161 72.4046 51.2424 72.2306C51.3216 72.0473 51.4023 71.9355 51.4773 71.8089C51.6336 71.5599 51.8027 71.3179 51.9845 71.0852C52.3566 70.626 52.7811 70.2072 53.248 69.8365L53.1051 70.3812C52.7153 69.5294 52.3213 68.6982 51.8671 67.9249C51.4079 67.1552 50.8632 66.4569 50.1819 65.9206C49.5062 65.3922 48.6863 65.0313 47.8338 65.0929C46.9827 65.146 46.109 65.6009 45.6526 66.442Z" fill="#000035"/>
<path d="M62.7822 63.1215C63.3567 61.8445 64.1766 60.6722 65.1402 59.6259C66.1215 58.5951 67.257 57.7022 68.5021 56.9771C69.7437 56.2632 71.0787 55.5933 72.5354 55.41C73.9758 55.2183 75.4728 55.3011 76.8198 55.8451L76.8043 55.9859C75.3943 56.2236 74.0897 56.4486 72.8113 56.7981C71.5478 57.1547 70.2439 57.4207 69.0235 57.9824C67.8067 58.5335 66.657 59.258 65.6284 60.1388C64.582 61.0026 63.6708 62.0376 62.9067 63.1901L62.7822 63.1215Z" fill="#000035"/>
<path d="M102.456 63.1901C101.692 62.0376 100.781 61.0026 99.7347 60.1388C98.7061 59.258 97.5565 58.5335 96.3396 57.9824C95.1192 57.4207 93.8154 57.1547 92.5518 56.7981C91.2734 56.4486 89.9681 56.2236 88.5588 55.9859L88.5433 55.8451C89.8903 55.3011 91.3873 55.2183 92.8277 55.41C94.2844 55.594 95.6194 56.2632 96.861 56.9771C98.1055 57.7022 99.2417 58.5951 100.222 59.6259C101.185 60.6722 102.006 61.8445 102.58 63.1215L102.456 63.1901Z" fill="#000035"/>
<path d="M74.5042 82.6243C75.8923 83.9091 77.4077 85.0219 79.0433 85.8476C79.8626 86.2543 80.7059 86.6031 81.5831 86.7977C82.0154 86.9229 82.4597 86.9682 82.899 87.0404C83.3419 87.0524 83.7898 87.1104 84.2199 87.0474C85.0915 87.0177 85.9518 86.7581 86.7689 86.4008C87.6023 86.069 88.3685 85.5653 89.1191 85.0425C90.6098 83.9664 91.9469 82.6463 93.1906 81.2207C92.2957 82.8939 91.0894 84.4185 89.615 85.6735C88.1562 86.918 86.3345 87.9403 84.2899 88.0725C83.2797 88.1461 82.2835 88.011 81.3334 87.7365C80.3826 87.4655 79.4784 87.0644 78.6563 86.5473C76.9987 85.5363 75.5746 84.1928 74.5042 82.6243Z" fill="#000035"/>
<path d="M67.7838 96.1695C70.2239 97.6276 72.8217 98.732 75.4853 99.5215C78.1511 100.28 80.9194 100.709 83.6481 100.605C86.362 100.492 89.0313 99.6659 91.5244 98.4625C94.014 97.2371 96.367 95.6736 98.5375 93.8398C96.766 96.0762 94.5226 97.946 92.0239 99.4034C89.5244 100.858 86.6711 101.823 83.7104 101.974C80.7694 102.063 77.8645 101.539 75.15 100.538C72.4467 99.5265 69.8935 98.0946 67.7838 96.1695Z" fill="#000035"/>
<path opacity="0.2" d="M98.0487 80.4858C101.451 80.4858 104.209 78.3934 104.209 75.8122C104.209 73.2311 101.451 71.1387 98.0487 71.1387C94.6462 71.1387 91.888 73.2311 91.888 75.8122C91.888 78.3934 94.6462 80.4858 98.0487 80.4858Z" fill="#EBA08C"/>
<path opacity="0.2" d="M68.1658 80.4858C71.5683 80.4858 74.3265 78.3934 74.3265 75.8122C74.3265 73.2311 71.5683 71.1387 68.1658 71.1387C64.7634 71.1387 62.0052 73.2311 62.0052 75.8122C62.0052 78.3934 64.7634 80.4858 68.1658 80.4858Z" fill="#EBA08C"/>
<path d="M82.4951 63.7285C82.759 65.1321 83.1764 66.4947 83.5287 67.875L84.6097 72.0087C85.3172 74.7679 85.9971 77.5355 86.6246 80.3137L86.7385 80.8182L86.2461 80.8387C85.441 80.8719 84.6345 80.8811 83.8265 80.8726C83.0186 80.8634 82.2086 80.8337 81.3971 80.7708C82.1909 80.5896 82.9882 80.4425 83.7862 80.3151C84.5842 80.1892 85.3837 80.081 86.1853 79.9961L85.8068 80.5203C85.4205 79.145 85.0759 77.7612 84.7272 76.3781C84.4003 74.9893 84.0614 73.6034 83.7742 72.2047C83.4735 70.8096 83.2011 69.4074 82.967 67.996C82.8439 67.292 82.742 66.5832 82.6578 65.8714C82.575 65.1611 82.4774 64.4466 82.4951 63.7285Z" fill="#000035"/>
<path d="M53.7838 47.6194C55.8355 50.6304 58.6186 53.5388 62.2274 54.0397C62.9802 54.1444 63.9431 54.0086 64.1801 53.2863C64.2791 52.9849 64.2154 52.6573 64.1482 52.3475C63.6289 49.9711 62.8868 47.6442 61.9353 45.4051C63.2427 47.2735 65.3297 48.4238 67.3877 49.4058C70.4702 50.8759 73.6616 52.1168 76.928 53.1158C79.5003 53.9025 82.1753 54.5441 84.8566 54.327C85.5152 54.2739 86.3522 53.9626 86.3154 53.3025C86.3005 53.0351 86.1315 52.8038 85.9687 52.5908C84.8488 51.1214 83.7296 49.6513 82.6097 48.1819C84.4887 49.7242 86.8736 50.4833 89.2026 51.1773C96.1881 53.2587 103.672 55.0627 110.681 53.0578C107.281 43.9922 100.469 35.5847 91.557 31.8018C88.1477 30.355 84.4795 29.4367 80.7759 29.4474C76.7681 29.4594 72.8409 30.5496 69.0595 31.8782C65.5986 33.0944 62.1645 34.5433 59.2653 36.7909C55.1414 39.9887 52.3094 44.6997 50.9766 49.7447" fill="#000035"/>
<path d="M67.6338 67.211C67.3996 66.1109 67.8425 64.8777 68.6497 64.0033C69.4491 63.1183 70.6511 62.5098 71.9387 62.5339C73.2263 62.5502 74.4085 63.1996 75.1782 64.1101C75.9564 65.0107 76.3583 66.2594 76.0859 67.3511C75.7555 66.2948 75.1407 65.4897 74.4021 64.8954C73.66 64.3068 72.7764 63.9644 71.9154 63.9481C71.0544 63.934 70.1594 64.2474 69.3968 64.8112C68.6384 65.3808 67.9974 66.166 67.6338 67.211Z" fill="#000035"/>
<path d="M90.5276 67.211C90.2934 66.1109 90.7363 64.8777 91.5435 64.0033C92.343 63.1183 93.545 62.5098 94.8326 62.5339C96.1202 62.5502 97.3024 63.1996 98.0721 64.1101C98.8503 65.0107 99.2521 66.2594 98.979 67.3511C98.6487 66.2948 98.0339 65.4897 97.2953 64.8954C96.5524 64.3068 95.6688 63.9644 94.8085 63.9481C93.9475 63.934 93.0526 64.2474 92.2899 64.8112C91.5322 65.3808 90.8913 66.166 90.5276 67.211Z" fill="#000035"/>
<g opacity="0.38">
<path d="M65.1136 37.4926C66.8434 39.84 68.9615 41.886 71.3669 43.5004C73.7568 45.1325 76.4268 46.3487 79.222 47.0491L78.9128 47.4806C77.6889 45.683 76.4564 43.8916 75.1731 42.1364C73.8933 40.3791 72.5781 38.6472 71.2283 36.9436L71.756 36.5C73.6952 38.6267 75.9082 40.5085 78.3504 42.043C80.7869 43.586 83.4357 44.788 86.1863 45.6653C88.9362 46.5475 91.8043 47.0774 94.6972 47.2217C97.59 47.388 100.508 47.1495 103.355 46.5319C100.547 47.3123 97.6098 47.637 94.6837 47.5839C91.7562 47.5082 88.8358 47.0406 86.0186 46.2107C83.2029 45.3745 80.5032 44.1478 78.0023 42.6005C75.5085 41.0455 73.1957 39.1707 71.2431 36.962L71.7709 36.5184C73.113 38.2404 74.4204 39.9892 75.6917 41.7636C76.9595 43.5407 78.206 45.3328 79.3875 47.1679L79.7922 47.7962L79.0783 47.5988C76.2336 46.8135 73.5452 45.5089 71.1603 43.7968C68.7889 42.0664 66.7075 39.9376 65.1136 37.4926Z" fill="white"/>
<path d="M77.5338 31.8086C79.2084 33.4096 81.0556 34.8033 83.0464 35.936C85.0408 37.0601 87.1568 37.9615 89.3556 38.5784C91.5502 39.2109 93.8233 39.5603 96.1106 39.6544L97.8297 39.6672L99.5489 39.5618L101.265 39.363C101.83 39.2519 102.399 39.1493 102.972 39.0524C102.419 39.2236 101.862 39.3891 101.302 39.5469L99.5927 39.9063L97.8552 40.1143L96.1042 40.1999C93.7632 40.2339 91.4186 39.8943 89.1625 39.2597C86.9106 38.6095 84.7394 37.6629 82.7677 36.4008L81.3244 35.4061L79.9569 34.3145L78.6926 33.1089C78.2993 32.6788 77.9137 32.2444 77.5338 31.8086Z" fill="white"/>
<path d="M114.192 79.1641C114.604 82.5175 114.966 85.873 115.344 89.2264L116.474 99.2852L117.607 109.344L118.177 114.374L118.716 119.411C118.394 117.752 118.123 116.086 117.834 114.422L117.066 109.413C116.578 106.071 116.175 102.717 115.771 99.3637C115.423 96.004 115.067 92.6449 114.804 89.2773C114.539 85.9112 114.313 82.5408 114.192 79.1641Z" fill="white"/>
<path d="M106.711 89.6719C106.974 91.5134 107.161 93.3606 107.335 95.2078C107.516 97.055 107.644 98.9058 107.77 100.756C107.88 102.607 107.988 104.459 108.042 106.314L108.12 109.098C108.12 110.027 108.145 110.955 108.123 111.885C107.985 110.965 107.891 110.041 107.774 109.12L107.499 106.349C107.317 104.502 107.19 102.651 107.064 100.801C106.955 98.9496 106.847 97.0975 106.794 95.2425C106.733 93.3882 106.684 91.5325 106.711 89.6719Z" fill="white"/>
<path d="M100.8 96.8105C101.112 98.7936 101.259 100.769 101.402 102.748C101.525 104.727 101.642 106.705 101.593 108.712C101.085 106.768 100.84 104.783 100.697 102.794C100.576 100.804 100.556 98.8042 100.8 96.8105Z" fill="white"/>
<path d="M66.286 99.7852C66.5647 101.206 66.6277 102.628 66.6397 104.05C66.6298 105.471 66.5669 106.892 66.286 108.314C66.0058 106.893 65.9429 105.471 65.9323 104.05C65.9443 102.628 66.0072 101.207 66.286 99.7852Z" fill="white"/>
<path d="M55.5898 87.2891C55.6775 89.7574 55.6733 92.2258 55.6436 94.6927C55.6216 97.1604 55.5311 99.6259 55.4256 102.091C55.304 104.555 55.1667 107.018 54.9609 109.477L54.6397 113.165C54.5024 114.392 54.3871 115.62 54.223 116.844C54.2272 115.609 54.2739 114.377 54.2937 113.143L54.4182 109.446C54.496 106.982 54.6142 104.52 54.7203 102.058L55.103 94.6736C55.2452 92.2123 55.386 89.7504 55.5898 87.2891Z" fill="white"/>
<path d="M49.2232 84.1152C49.2183 86.8998 49.1362 89.6802 49.0421 92.4605C48.9501 95.2402 48.7938 98.017 48.6728 100.795C48.4945 103.571 48.3467 106.347 48.1401 109.121L47.816 113.281C47.6823 114.667 47.5727 116.053 47.417 117.437C47.4121 116.044 47.4531 114.654 47.4694 113.262L47.5967 109.092C47.6908 106.312 47.8444 103.535 47.9667 100.757C48.1464 97.9816 48.2922 95.2048 48.5009 92.4315C48.7082 89.6575 48.9268 86.8843 49.2232 84.1152Z" fill="white"/>
</g>
<path d="M73.0078 108.695C79.6644 110.384 86.7773 110.236 93.3575 108.271" stroke="#000035" stroke-miterlimit="10"/>
<path d="M50.5188 125.377C49.3621 127.668 48.4883 130.08 47.94 132.559C47.4002 135.04 47.1427 137.578 47.2135 140.11C47.2686 142.643 47.6507 145.165 48.3122 147.616L48.8718 149.437L49.5559 151.219L50.3405 152.965C50.6468 153.525 50.9454 154.091 51.2411 154.662C50.881 154.132 50.5251 153.597 50.1763 153.055L49.2404 151.363L48.4529 149.594L47.7908 147.771C46.9906 145.307 46.5782 142.719 46.5067 140.127C46.4515 137.535 46.7352 134.93 47.4137 132.43L47.9853 130.576L48.6843 128.77L49.5347 127.034C49.8566 126.476 50.1855 125.924 50.5188 125.377Z" fill="#000035"/>
<path d="M117.433 125.377C117.766 125.924 118.095 126.476 118.417 127.035L119.267 128.771L119.966 130.577L120.538 132.43C121.215 134.931 121.5 137.535 121.445 140.128C121.372 142.72 120.961 145.307 120.161 147.771L119.498 149.594L118.711 151.364L117.776 153.056C117.426 153.597 117.07 154.133 116.711 154.663C117.007 154.091 117.305 153.526 117.612 152.966L118.396 151.22L119.08 149.438L119.64 147.616C120.302 145.166 120.684 142.643 120.739 140.111C120.809 137.579 120.552 135.04 120.012 132.56C119.464 130.08 118.589 127.668 117.433 125.377Z" fill="#000035"/>
</g>
</svg>
