<svg width="198" height="239" viewBox="0 0 198 239" fill="none" xmlns="http://www.w3.org/2000/svg">
<mask id="mask0_1_2221" style="mask-type:luminance" maskUnits="userSpaceOnUse" x="19" y="84" width="179" height="155">
<path d="M19.6896 84.1372H197.715V238.158H19.6896V84.1372Z" fill="white"/>
</mask>
<g mask="url(#mask0_1_2221)">
<path d="M93.5421 84.3311C79.3844 87.0337 64.6488 89.9918 53.2367 98.7896C47.5473 103.178 42.9681 108.819 38.5895 114.516C32.0287 123.049 25.7878 131.825 19.8024 139.986C24.5153 153.272 35.1133 164.35 48.6646 169.469C51.6036 167.091 54.545 164.71 57.9615 161.471C54.8291 185.396 52.3461 209.406 50.6558 234.652C85.6802 239.546 121.135 241.229 156.193 234.652C160.173 214.053 164.443 191.46 167.504 171.247C178.224 169.438 188.674 166.024 197.718 161.382C196.579 152.014 195.433 142.605 192.902 133.513C190.371 124.422 186.379 115.59 180.134 108.511C173.334 100.809 163.947 95.4328 153.996 94.5328C144.19 89.7936 133.857 84.9399 122.975 85.4484C117.968 85.6824 113.077 87.0528 108.08 87.4276C103.08 87.8048 97.6486 87.0026 93.5421 84.3311Z" fill="black"/>
</g>
<path d="M51.8976 160.818C51.8021 160.818 51.709 160.792 51.6255 160.734C42.9971 154.947 35.4455 147.816 29.176 139.534C29.0136 139.319 29.0566 139.013 29.2715 138.848C29.4863 138.686 29.7943 138.729 29.9567 138.944C36.1593 147.138 43.6322 154.198 52.1698 159.923C52.3918 160.076 52.4539 160.379 52.3035 160.603C52.208 160.744 52.0528 160.818 51.8952 160.818H51.8976Z" fill="#4D4D4D"/>
<path d="M80.5761 47.2891C79.7119 44.4193 79.2487 41.4302 79.0601 38.2C76.3551 37.393 74.0177 35.4305 72.7524 32.9117C71.4894 30.3905 71.3151 27.3489 72.2868 24.7011C72.8359 23.2042 73.8793 21.7311 75.4431 21.3921C73.7885 16.555 75.1088 10.8346 78.7139 7.20805C82.319 3.58386 88.037 2.22777 93.2059 3.63399C97.9093 0.549366 103.84 -0.603789 109.357 0.494454C114.875 1.59269 119.912 4.92801 123.732 9.87248C127.91 7.74762 133.301 10.1447 135.865 14.0697C138.427 17.9923 138.771 22.9487 138.544 27.6282C138.365 31.3192 137.873 35.0365 136.555 38.4888C135.235 41.9411 133.034 45.1332 129.949 47.1769C127.185 49.0057 123.871 49.8246 120.581 50.2544C114.49 51.047 108.235 50.5958 102.321 48.9341C99.1126 48.0316 95.9062 46.7662 92.5756 46.9358C89.1162 47.1148 85.3225 48.767 80.5761 47.2891Z" fill="#431021"/>
<path d="M130.085 44.3933C131.152 43.7988 132.236 43.1996 133.425 42.9322C134.614 42.6648 135.946 42.7698 136.928 43.4932C138.267 44.4817 138.63 46.3463 138.515 48.008C138.331 50.6629 137.174 53.2389 135.306 55.137C133.442 57.0374 130.887 58.2431 128.235 58.4747C127.067 66.5754 121.886 73.0933 115.044 76.0227C108.201 78.9521 99.9073 78.2048 93.6975 74.1008C87.49 69.9967 83.5578 62.66 83.1114 55.0678C81.7696 54.9126 80.5687 54.0602 79.7928 52.9548C79.0192 51.847 78.6396 50.5029 78.4916 49.1611C78.3483 47.8504 78.4271 46.4752 79.0121 45.2934C79.5994 44.1116 80.7716 43.1638 82.6195 43.1638C81.5476 38.6538 82.2113 33.6759 84.7898 29.8249C87.3682 25.9715 91.9307 23.4097 97.4649 23.6079C101.793 24.5844 105.566 27.1533 109.62 28.9606C113.674 30.768 118.565 31.7635 122.197 29.2424C122.548 32.1026 122.911 35.0034 124.026 37.663C125.143 40.3203 127.129 42.746 130.085 44.3933Z" fill="#F49F83"/>
<path d="M95.0338 71.0855C95.602 75.6551 95.1054 80.3537 93.5941 83.677C94.6207 87.8408 95.6879 92.0953 98.0539 95.6717C100.42 99.2482 104.378 102.077 108.666 101.905C110.975 101.812 113.169 100.874 115.165 99.7114C120.585 96.548 124.923 91.5724 127.274 85.0379C126.169 76.7653 125.72 68.4043 125.93 60.0601C115.256 61.0891 104.83 64.6178 95.0338 71.0855Z" fill="#F49F83"/>
<path d="M48.2326 166.945C44.2598 171.385 39.7427 175.394 34.5595 178.338C29.3786 181.279 23.5006 183.125 17.5391 183.12C14.4974 183.118 11.3651 182.602 8.78658 180.983C4.65624 178.388 2.64598 173.441 1.67666 168.661C-0.307338 158.882 1.00578 148.757 2.67701 138.918C4.69921 127.009 7.23949 115.194 9.93019 103.17C6.47311 100.043 2.8322 96.5976 1.89153 92.0351C1.08695 88.1292 2.47169 84.0275 4.75174 80.7543C7.03178 77.4834 10.1427 74.893 13.3825 72.1426C11.7566 66.2026 9.54819 61.2987 8.65288 56.9988C8.47143 56.1322 8.38548 55.0602 9.09695 54.5325C9.55058 54.1983 10.1928 54.2246 10.7037 54.4561C11.2147 54.6877 11.6253 55.096 12.0168 55.4971C15.1826 58.7464 18.4439 65.047 20.7885 68.8192C23.4959 68.8956 26.1555 70.0989 28.3926 72.4315C28.6743 70.3043 30.1331 68.368 32.1027 67.5085C33.5734 66.8663 35.6577 67.0262 36.3381 68.4802C36.9636 69.8172 36.0564 71.3189 35.4428 72.6607C32.8691 78.3071 35.4953 84.961 34.4926 91.0849C33.8002 95.3227 31.2695 99.2262 27.7145 101.296C28.7292 116.328 29.7463 131.359 30.6488 145.789C35.8582 153.143 41.9726 159.854 48.235 166.947L48.2326 166.945Z" fill="#F49F83"/>
<path d="M100.974 110.469C100.879 110.469 100.779 110.441 100.693 110.381C93.5351 105.379 89.018 97.5507 88.6145 89.4428C88.6001 89.173 88.8079 88.9438 89.0776 88.9295C89.3474 88.92 89.579 89.1253 89.5909 89.3951C89.9753 97.0541 94.1773 104.458 100.862 109.297L103.851 105.126C104.009 104.907 104.317 104.856 104.537 105.014C104.756 105.172 104.806 105.477 104.649 105.697L101.373 110.264C101.278 110.398 101.127 110.469 100.977 110.469H100.974Z" fill="#4D4D4D"/>
<path d="M117.052 109.177C116.915 109.177 116.779 109.119 116.681 109.01C115.655 107.83 114.807 106.508 114.167 105.082C114.058 104.836 114.167 104.545 114.413 104.435C114.662 104.323 114.951 104.435 115.06 104.681C115.602 105.884 116.299 107.009 117.137 108.031C124.159 103.065 129.837 95.9406 133.146 87.9258C133.251 87.6751 133.535 87.5557 133.785 87.6584C134.036 87.7634 134.155 88.0499 134.053 88.2982C130.612 96.6258 124.675 104.01 117.331 109.091C117.247 109.151 117.149 109.179 117.052 109.179V109.177Z" fill="#4D4D4D"/>
<path d="M57.9636 162.731C57.9541 162.731 57.9445 162.731 57.9326 162.731C57.6628 162.714 57.4575 162.48 57.4766 162.21C58.1307 151.959 58.157 141.559 57.553 131.304C57.5386 131.035 57.744 130.803 58.0138 130.786C58.2859 130.772 58.5175 130.977 58.5318 131.247C59.1383 141.542 59.112 151.98 58.4554 162.272C58.4387 162.533 58.2215 162.731 57.966 162.731H57.9636Z" fill="#4D4D4D"/>
<path d="M58.432 141.986C58.2983 141.986 58.1646 141.931 58.0691 141.824C55.6888 139.2 53.9459 136.005 53.0315 132.584C52.9623 132.322 53.1151 132.054 53.3777 131.985C53.638 131.916 53.9077 132.068 53.977 132.331C54.8532 135.602 56.5196 138.658 58.7949 141.167C58.9764 141.368 58.962 141.678 58.7615 141.86C58.666 141.943 58.549 141.986 58.432 141.986Z" fill="#4D4D4D"/>
<path d="M28.7976 171.051C28.7522 171.051 28.7069 171.047 28.6615 171.032C28.4013 170.956 28.2533 170.684 28.3273 170.426C30.7434 162.17 31.0872 153.36 29.3229 144.942C29.2656 144.679 29.4351 144.419 29.7001 144.364C29.9651 144.307 30.2253 144.476 30.2802 144.741C32.0804 153.315 31.7294 162.292 29.2679 170.7C29.2059 170.913 29.0101 171.054 28.7976 171.054V171.051Z" fill="#4D4D4D"/>
<path d="M26.4318 80.6898C26.2456 80.6898 26.0689 80.5824 25.9853 80.4009C25.8731 80.155 25.9829 79.8661 26.2288 79.7539C26.9093 79.4435 27.456 78.7106 27.6948 77.789C27.9168 76.9367 27.8881 76.0509 27.8285 74.9837L27.8237 74.9145C27.7688 73.9237 27.7115 72.9018 27.9359 71.8919C27.9932 71.6293 28.2558 71.4622 28.5208 71.5219C28.7834 71.5792 28.9506 71.8394 28.8909 72.1044C28.6975 72.983 28.75 73.938 28.8025 74.8596L28.8073 74.9288C28.8575 75.8384 28.9195 76.9653 28.645 78.0325C28.3274 79.2573 27.5969 80.2075 26.6347 80.6444C26.5702 80.6731 26.501 80.6874 26.4318 80.6874V80.6898Z" fill="#4D4D4D"/>
<path d="M22.0223 84.9469C21.922 84.9469 21.8218 84.9421 21.7215 84.9325C21.4517 84.9111 21.2511 84.6747 21.2726 84.4049C21.2965 84.1351 21.5329 83.9346 21.8027 83.9561C23.7007 84.116 25.3314 82.2801 25.5224 80.53C25.7134 78.7609 24.8037 76.8008 23.1444 75.416C21.5209 74.06 19.4367 73.3437 17.615 72.8209C17.3548 72.7468 17.2044 72.4771 17.2784 72.2168C17.3524 71.9566 17.6222 71.8062 17.8824 71.8802C19.8067 72.4293 22.008 73.1909 23.7723 74.664C25.6775 76.2588 26.7233 78.546 26.4941 80.6351C26.2386 83.0059 24.1878 84.9469 22.0223 84.9469Z" fill="#4D4D4D"/>
<path d="M17.1953 87.9769C17.1332 87.9769 17.0711 87.9769 17.0067 87.9721C16.7369 87.9602 16.5292 87.731 16.5411 87.4588C16.5554 87.189 16.7823 86.9837 17.0568 86.9956C17.1022 86.998 17.1475 86.998 17.1929 86.998C18.8164 86.998 20.416 85.5846 20.7288 83.8441C21.0344 82.1466 20.256 80.2534 18.7519 79.0143C17.4293 77.928 15.5527 77.3168 13.4732 77.2953C13.201 77.2905 12.9862 77.0709 12.9885 76.7987C12.9909 76.5313 13.2106 76.3164 13.478 76.3164C13.4804 76.3164 13.4828 76.3164 13.4851 76.3164C15.7867 76.3403 17.8781 77.0303 19.3751 78.2598C21.1513 79.7162 22.061 81.9771 21.6933 84.0184C21.2946 86.2388 19.301 87.9769 17.1977 87.9769H17.1953Z" fill="#4D4D4D"/>
<path d="M12.106 91.79C10.8072 91.79 9.39139 91.4104 7.8825 90.6583C7.64136 90.539 7.54109 90.2453 7.66285 90.0018C7.78222 89.7606 8.07827 89.6604 8.31941 89.7821C10.1339 90.687 11.7645 90.995 13.1732 90.7013C15.0808 90.305 16.1527 88.7818 16.1957 87.5498C16.2339 86.3919 15.5439 85.3677 14.9566 84.7111C13.123 82.6674 10.2007 81.7196 7.51483 82.2974C7.24981 82.3523 6.98958 82.1852 6.93228 81.9202C6.87498 81.6575 7.04449 81.3973 7.3095 81.34C10.3321 80.6906 13.622 81.7578 15.6848 84.0593C16.3939 84.8472 17.2247 86.1006 17.1746 87.5856C17.1101 89.4694 15.4747 91.2218 13.3713 91.6611C12.9631 91.7446 12.5405 91.79 12.1036 91.79H12.106Z" fill="#4D4D4D"/>
<path d="M19.7551 101.738C19.6238 101.738 19.4948 101.688 19.3969 101.586C16.4389 98.4388 14.8607 93.991 15.1783 89.6839C15.1974 89.4142 15.4313 89.2136 15.7011 89.2327C15.9733 89.2518 16.1738 89.4858 16.1547 89.7556C15.8587 93.7928 17.3365 97.9637 20.1132 100.915C20.297 101.11 20.2875 101.421 20.0917 101.605C19.9962 101.695 19.8744 101.738 19.7551 101.738Z" fill="#4D4D4D"/>
<path d="M158.279 168.91C158.05 168.91 157.844 168.748 157.799 168.516C155.722 157.971 154.055 147.21 152.852 136.531C152.821 136.264 153.014 136.02 153.284 135.989C153.552 135.96 153.795 136.154 153.826 136.421C155.029 147.074 156.689 157.808 158.761 168.325C158.814 168.593 158.639 168.848 158.374 168.901C158.343 168.908 158.31 168.91 158.279 168.91Z" fill="#4D4D4D"/>
<path d="M160.151 163.98C159.258 163.98 158.365 163.966 157.475 163.935C157.205 163.927 156.992 163.701 157.002 163.431C157.012 163.161 157.234 162.951 157.508 162.958C168.488 163.316 179.719 161.428 189.978 157.496C190.231 157.398 190.513 157.524 190.611 157.777C190.708 158.03 190.582 158.312 190.329 158.41C180.779 162.07 170.403 163.98 160.151 163.98Z" fill="#4D4D4D"/>
<path d="M81.5972 50.1877C81.3656 50.1877 81.1602 50.0254 81.1149 49.789L80.8069 48.156C80.7496 48.3947 80.5204 48.5595 80.2721 48.5284C80.0023 48.495 79.8113 48.2515 79.8447 47.9841C79.8662 47.8074 79.8949 47.5663 80.0214 47.3394C80.2029 47.01 80.5443 46.819 80.8857 46.8524C81.1674 46.8787 81.4253 47.0577 81.5781 47.3299C81.6831 47.5185 81.7189 47.7095 81.7476 47.8623L82.0794 49.6076C82.1296 49.8726 81.9529 50.1304 81.6879 50.1806C81.6568 50.1853 81.6258 50.1877 81.5972 50.1877Z" fill="#4D4D4D"/>
<path d="M130.859 51.5815C130.768 51.5815 130.678 51.5576 130.599 51.5075C129.933 51.0896 129.544 50.2707 129.61 49.4232C129.665 48.7117 130.021 48.017 130.613 47.4631C131.064 47.0429 131.652 46.7015 132.404 46.4221C132.657 46.3266 132.941 46.4555 133.034 46.711C133.13 46.9641 133.001 47.2458 132.745 47.3389C132.117 47.5729 131.637 47.8474 131.284 48.1793C130.876 48.5589 130.623 49.0412 130.587 49.502C130.551 49.9819 130.764 50.4546 131.122 50.679C131.349 50.8222 131.42 51.1255 131.275 51.3547C131.181 51.5027 131.021 51.5839 130.859 51.5839V51.5815Z" fill="#4D4D4D"/>
<path d="M106.237 78.2931C103.247 78.2931 100.242 77.7273 97.4124 76.5932C97.1617 76.493 97.0399 76.2065 97.1402 75.9582C97.2429 75.7051 97.527 75.5833 97.7777 75.686C103.295 77.8992 109.517 77.8562 114.851 75.5738C118.215 74.1341 121.185 71.792 123.441 68.8053C123.605 68.5904 123.911 68.5474 124.128 68.7098C124.343 68.8721 124.386 69.1801 124.224 69.395C121.865 72.5178 118.756 74.965 115.235 76.4739C112.401 77.6867 109.328 78.2931 106.234 78.2931H106.237Z" fill="#4D4D4D"/>
<path d="M111.875 162.259H88.1033C85.9188 162.259 84.0231 160.49 83.8679 158.307L80.5231 111.384C80.3679 109.202 82.0129 107.433 84.1974 107.433H107.97C110.154 107.433 112.05 109.202 112.205 111.384L115.55 158.307C115.705 160.49 114.06 162.259 111.875 162.259Z" fill="#333333"/>
<path d="M109.522 112.816C109.522 113.069 109.474 113.311 109.376 113.545C109.281 113.778 109.142 113.984 108.965 114.163C108.786 114.34 108.579 114.478 108.347 114.574C108.113 114.671 107.87 114.719 107.617 114.719C107.363 114.719 107.122 114.671 106.888 114.574C106.654 114.478 106.449 114.34 106.27 114.163C106.091 113.984 105.952 113.778 105.857 113.545C105.759 113.311 105.711 113.069 105.711 112.816C105.711 112.563 105.759 112.32 105.857 112.088C105.952 111.854 106.091 111.649 106.27 111.47C106.449 111.291 106.654 111.155 106.888 111.057C107.122 110.961 107.363 110.911 107.617 110.911C107.87 110.911 108.113 110.961 108.347 111.057C108.579 111.155 108.786 111.291 108.965 111.47C109.142 111.649 109.281 111.854 109.376 112.088C109.474 112.32 109.522 112.563 109.522 112.816Z" fill="black"/>
<path d="M192.718 162.261C194.561 173.379 193.425 184.975 189.459 195.523C187.9 199.673 185.828 203.774 182.476 206.675C176.567 211.787 167.623 212.162 160.315 209.394C153.009 206.625 147.043 201.203 141.647 195.554C132.828 186.322 125.002 176.137 118.441 165.116C115.476 164.269 112.341 164.29 109.294 163.81C102.175 162.686 95.6428 158.761 90.801 153.425C85.9592 148.091 82.7409 141.409 80.9192 134.439C80.6232 133.308 80.3606 132.145 80.4226 130.978C80.4871 129.808 80.9121 128.614 81.7978 127.845C83.5144 126.355 86.1383 126.952 88.3085 127.633C96.3638 130.152 104.417 132.673 112.042 135.141C111.997 132.725 111.952 130.309 111.904 127.895C115.008 128.612 117.875 130.304 120.002 132.67C123.825 136.925 125.006 142.855 125.639 148.874C137.663 155.764 149.683 162.655 161.755 169.939C171.92 168.354 181.926 165.744 192.718 162.261Z" fill="#F49F83"/>
<path d="M181.065 188.495C180.867 188.495 180.681 188.373 180.607 188.177C177.424 179.732 170.056 172.945 161.376 170.459C161.115 170.385 160.965 170.113 161.039 169.853C161.115 169.593 161.385 169.442 161.645 169.516C170.617 172.085 178.236 179.102 181.523 187.831C181.619 188.084 181.49 188.366 181.237 188.461C181.18 188.483 181.122 188.492 181.065 188.492V188.495Z" fill="#4D4D4D"/>
<path d="M117.892 137.566C117.834 137.566 117.779 137.557 117.722 137.535L111.61 135.291C111.357 135.198 111.226 134.916 111.319 134.663C111.412 134.408 111.694 134.279 111.949 134.372L118.061 136.616C118.314 136.709 118.446 136.991 118.352 137.244C118.278 137.442 118.092 137.566 117.894 137.566H117.892Z" fill="#4D4D4D"/>
<path d="M102.798 140.072C102.727 140.072 102.65 140.055 102.581 140.019C95.3948 136.448 87.9936 133.074 80.5852 129.992C80.3345 129.887 80.2175 129.6 80.3226 129.352C80.4253 129.104 80.7118 128.984 80.9624 129.089C88.3923 132.181 95.8126 135.562 103.018 139.143C103.262 139.265 103.359 139.559 103.24 139.8C103.154 139.972 102.98 140.072 102.801 140.072H102.798Z" fill="#4D4D4D"/>
<path d="M100.798 145.479C100.724 145.479 100.645 145.463 100.574 145.424C94.2684 142.18 87.6909 139.308 81.0227 136.891C80.7696 136.798 80.6383 136.517 80.729 136.264C80.8198 136.008 81.1039 135.877 81.3569 135.97C88.0634 138.4 94.6791 141.287 101.023 144.553C101.264 144.677 101.359 144.973 101.235 145.212C101.147 145.381 100.977 145.479 100.798 145.479Z" fill="#4D4D4D"/>
<path d="M99.6117 152.482C99.5377 152.482 99.4637 152.465 99.3944 152.429L84.5276 145.102C84.2841 144.982 84.1862 144.689 84.3055 144.445C84.4249 144.204 84.7186 144.104 84.9621 144.223L99.829 151.55C100.072 151.672 100.17 151.966 100.051 152.207C99.965 152.381 99.7908 152.482 99.6117 152.482Z" fill="#4D4D4D"/>
</svg>
