<svg width="32" height="32" viewBox="0 0 32 32" fill="none" xmlns="http://www.w3.org/2000/svg">
<g clip-path="url(#clip0_16_139)">
<path d="M28 1C29.654 1 31 2.346 31 4V28C31 29.654 29.654 31 28 31H4C2.346 31 1 29.654 1 28V4C1 2.346 2.346 1 4 1H28ZM28 0H4C1.8 0 0 1.8 0 4V28C0 30.2 1.8 32 4 32H28C30.2 32 32 30.2 32 28V4C32 1.8 30.2 0 28 0Z" fill="#C9C9C9"/>
<g clip-path="url(#clip1_16_139)">
<path d="M8.10133 8H12.8133L17.0067 13.9973L22.04 8H23.5453L17.58 14.8187L24 24H19.2907L14.9107 17.7373L9.504 24H8L14.3373 16.9173L8.10133 8Z" fill="#C9C9C9"/>
</g>
</g>
<defs>
<clipPath id="clip0_16_139">
<rect width="32" height="32" fill="white"/>
</clipPath>
<clipPath id="clip1_16_139">
<rect width="16" height="16" fill="white" transform="translate(8 8)"/>
</clipPath>
</defs>
</svg>
