<svg width="811" height="1117" viewBox="0 0 811 1117" fill="none" xmlns="http://www.w3.org/2000/svg">
<rect x="0.954102" y="0.550293" width="385" height="345.333" rx="24" fill="white"/>
<g clip-path="url(#clip0_1_529)">
<path d="M200.888 71.0761C186.714 79.303 174.819 86.5387 174.423 87.1334C174.026 87.7281 173.63 94.2699 173.63 101.605L173.531 114.986L163.421 120.735L153.31 126.484L145.48 137.783C138.839 147.497 137.451 148.984 135.865 148.191C133.09 146.704 132.495 147.001 134.379 149.083C135.37 150.173 135.965 151.462 135.865 151.957C135.667 152.453 126.747 158.697 116.042 165.834C105.337 172.871 96.317 179.413 95.9205 180.404C95.6232 181.296 95.0285 185.162 94.7311 188.929C94.2355 193.884 94.4338 196.164 95.4249 197.354C96.6144 198.84 96.8126 198.741 97.4073 197.056C97.7047 196.065 97.7047 194.38 97.3082 193.191C96.317 190.614 97.9029 187.838 100.282 187.838C103.949 187.838 105.832 195.569 102.462 196.462C99.3897 197.255 100.876 202.409 105.139 205.283C108.608 207.662 108.707 207.662 109.202 205.68C109.698 203.796 110.095 203.895 116.141 207.464C121.097 210.338 122.683 211.726 122.881 213.708C123.079 215.592 124.269 216.781 127.539 218.367C131.207 220.151 132 220.25 132 219.061C132 217.177 133.982 217.177 136.46 218.962C137.551 219.755 138.046 220.944 137.65 221.836C136.658 224.314 141.317 225.107 144.489 223.025C147.066 221.34 149.841 221.638 149.841 223.422C149.841 224.017 148.156 225.603 146.075 226.99L142.407 229.567L145.381 229.369C147.066 229.171 149.94 230.063 151.824 231.252C156.086 233.929 160.249 234.028 164.412 231.55C168.277 229.171 172.639 221.836 173.332 216.583C173.63 214.402 174.225 212.915 174.72 213.213C175.216 213.51 186.119 207.563 199.004 200.129L222.495 186.649L225.866 188.235L229.335 189.92L239.445 184.072L249.654 178.224L254.313 180.603C257.584 182.288 259.863 182.783 261.747 182.387C267 181.296 273.542 172.97 275.128 165.536C275.623 163.257 277.308 161.473 282.066 158.301C285.832 155.625 289.203 152.453 290.491 150.074C292.573 146.406 292.275 144.92 289.896 147.299C289.203 147.992 288.013 148.191 287.22 147.893C284.94 147.001 285.238 143.532 287.617 142.739C292.176 141.252 292.374 139.468 291.086 114.589C290.095 97.7391 289.401 91.0981 288.509 90.2061C287.22 89.0166 239.048 61.0651 232.407 57.5959C230.623 56.7038 228.641 56.01 227.947 56.1091C227.253 56.1091 215.062 62.8492 200.888 71.0761ZM163.817 135.9C168.377 138.973 177.793 144.325 184.83 147.893C194.742 152.849 197.517 154.633 197.22 155.922C196.625 157.805 182.749 178.125 181.262 179.116C177.396 181.594 137.253 158.499 137.551 153.94C137.749 151.759 152.914 130.349 154.302 130.349C154.995 130.349 159.258 132.827 163.817 135.9ZM220.513 160.184C218.63 161.968 188.2 179.017 187.407 178.719C186.813 178.521 189.786 173.466 193.85 167.519C201.185 156.814 201.383 156.517 210.998 150.966L220.711 145.316L221.009 152.354C221.207 156.219 220.91 159.688 220.513 160.184ZM270.568 162.365C271.262 166.131 269.577 170.988 266.603 173.962C258.971 181.693 254.313 171.087 261.846 163.058C265.117 159.49 269.973 159.193 270.568 162.365ZM218.729 164.942C218.432 165.536 216.846 166.726 215.161 167.519C212.881 168.807 212.286 168.807 212.286 167.717C212.286 167.023 213.773 165.735 215.557 164.843C218.927 163.158 219.819 163.257 218.729 164.942ZM190.381 180.503C192.76 180.999 193.454 181.693 193.454 183.477C193.454 186.153 192.958 186.252 188.597 184.766C186.614 184.072 185.524 182.981 185.524 181.792C185.524 179.71 185.821 179.611 190.381 180.503ZM138.542 211.23C139.632 213.807 139.632 214.699 138.542 216.186C135.667 220.052 129.522 213.906 131.405 209.05C132.495 206.274 137.154 207.761 138.542 211.23ZM168.178 212.321C171.548 215.592 167.484 225.503 161.835 227.585C159.753 228.477 158.96 228.279 157.573 226.495C154.103 222.133 159.753 211.329 165.899 210.735C166.295 210.636 167.286 211.429 168.178 212.321Z" fill="black"/>
<path d="M176.524 88.1731L223.403 113.274" stroke="white" stroke-width="1.5" stroke-linecap="round"/>
<path d="M157.077 145.614C151.922 147.299 147.165 150.173 143.596 153.84L140.92 156.715L150.436 162.959C162.33 170.889 179.081 178.62 180.964 177.034C181.658 176.44 185.425 171.384 189.191 165.735L196.229 155.525L185.028 149.876C174.819 144.721 173.332 144.226 167.583 144.325C164.114 144.325 159.356 144.92 157.077 145.614Z" fill="black"/>
<path d="M213.476 150.966C211.097 152.453 208.024 155.426 206.736 157.607C204.357 161.473 203.564 167.023 205.249 167.023C205.745 167.023 209.115 165.338 212.683 163.257L219.225 159.589V153.84C219.225 150.768 218.927 148.191 218.531 148.29C218.035 148.29 215.756 149.578 213.476 150.966Z" fill="black"/>
<path d="M230.857 182.881V115.215L275.746 91.5969M238.841 134.36L275.746 115.215M275.746 134.36L238.841 154.277" stroke="white" stroke-width="1.5" stroke-linecap="round"/>
</g>
<path d="M115.894 266.444C116.134 265.084 116.661 263.864 117.474 262.784C118.301 261.704 119.307 260.864 120.494 260.264C121.694 259.651 122.941 259.344 124.234 259.344C125.714 259.344 126.967 259.711 127.994 260.444C129.034 261.164 129.694 262.191 129.974 263.524H127.234C126.981 262.831 126.567 262.311 125.994 261.964C125.421 261.604 124.714 261.424 123.874 261.424C122.954 261.424 122.094 261.631 121.294 262.044C120.507 262.457 119.841 263.044 119.294 263.804C118.761 264.564 118.407 265.444 118.234 266.444C118.167 266.884 118.134 267.257 118.134 267.564C118.134 268.764 118.494 269.717 119.214 270.424C119.934 271.131 120.894 271.484 122.094 271.484C122.934 271.484 123.707 271.311 124.414 270.964C125.121 270.604 125.714 270.077 126.194 269.384H128.934C128.174 270.717 127.154 271.744 125.874 272.464C124.594 273.184 123.214 273.544 121.734 273.544C120.587 273.544 119.561 273.304 118.654 272.824C117.747 272.344 117.041 271.671 116.534 270.804C116.027 269.937 115.774 268.937 115.774 267.804C115.774 267.377 115.814 266.924 115.894 266.444ZM135.703 273.604C134.77 273.604 133.95 273.411 133.243 273.024C132.536 272.637 131.983 272.091 131.583 271.384C131.196 270.677 131.003 269.871 131.003 268.964C131.003 267.724 131.29 266.591 131.863 265.564C132.45 264.537 133.25 263.724 134.263 263.124C135.29 262.524 136.43 262.224 137.683 262.224C138.616 262.224 139.443 262.424 140.163 262.824C140.883 263.211 141.443 263.757 141.843 264.464C142.256 265.157 142.463 265.964 142.463 266.884C142.463 268.124 142.163 269.257 141.563 270.284C140.963 271.311 140.15 272.124 139.123 272.724C138.096 273.311 136.956 273.604 135.703 273.604ZM135.983 271.684C136.743 271.684 137.436 271.471 138.063 271.044C138.703 270.604 139.203 270.031 139.563 269.324C139.923 268.604 140.103 267.837 140.103 267.024C140.103 266.104 139.843 265.397 139.323 264.904C138.803 264.397 138.15 264.144 137.363 264.144C136.59 264.144 135.896 264.364 135.283 264.804C134.683 265.231 134.21 265.811 133.863 266.544C133.53 267.264 133.363 268.037 133.363 268.864C133.363 269.757 133.603 270.451 134.083 270.944C134.576 271.437 135.21 271.684 135.983 271.684ZM158.957 262.224C160.117 262.224 161.043 262.537 161.737 263.164C162.43 263.791 162.777 264.677 162.777 265.824C162.777 266.131 162.743 266.497 162.677 266.924L161.517 273.424H159.257L160.357 267.264C160.41 266.891 160.437 266.624 160.437 266.464C160.437 265.731 160.23 265.171 159.817 264.784C159.417 264.397 158.857 264.204 158.137 264.204C157.27 264.204 156.537 264.471 155.937 265.004C155.35 265.524 154.977 266.277 154.817 267.264L153.717 273.424H151.457L152.557 267.264C152.61 266.891 152.637 266.624 152.637 266.464C152.637 265.731 152.43 265.171 152.017 264.784C151.617 264.397 151.057 264.204 150.337 264.204C149.47 264.204 148.737 264.471 148.137 265.004C147.55 265.524 147.177 266.277 147.017 267.264V267.204L145.917 273.424H143.637L145.577 262.404H147.857L147.637 263.684C148.077 263.231 148.603 262.877 149.217 262.624C149.843 262.357 150.49 262.224 151.157 262.224C152.037 262.224 152.79 262.411 153.417 262.784C154.057 263.157 154.503 263.697 154.757 264.404C155.197 263.737 155.803 263.211 156.577 262.824C157.35 262.424 158.143 262.224 158.957 262.224ZM167.778 260.944C167.418 260.944 167.125 260.831 166.898 260.604C166.671 260.377 166.558 260.091 166.558 259.744C166.558 259.277 166.731 258.877 167.078 258.544C167.438 258.197 167.845 258.024 168.298 258.024C168.658 258.024 168.945 258.137 169.158 258.364C169.385 258.591 169.498 258.877 169.498 259.224C169.498 259.691 169.325 260.097 168.978 260.444C168.631 260.777 168.231 260.944 167.778 260.944ZM168.638 262.404L166.698 273.424H164.418L166.358 262.404H168.638ZM177.231 262.224C178.391 262.224 179.311 262.537 179.991 263.164C180.685 263.777 181.031 264.664 181.031 265.824C181.031 266.117 180.998 266.484 180.931 266.924L179.771 273.424H177.511L178.611 267.264C178.665 266.891 178.691 266.624 178.691 266.464C178.691 265.731 178.485 265.171 178.071 264.784C177.671 264.397 177.111 264.204 176.391 264.204C175.525 264.204 174.791 264.471 174.191 265.004C173.605 265.524 173.231 266.277 173.071 267.264V267.204L171.971 273.424H169.691L171.631 262.404H173.911L173.691 263.684C174.145 263.231 174.678 262.877 175.291 262.624C175.918 262.357 176.565 262.224 177.231 262.224ZM189.1 262.224C189.953 262.224 190.68 262.397 191.28 262.744C191.893 263.077 192.333 263.497 192.6 264.004L192.88 262.404H195.18L193.22 273.604C193.033 274.617 192.66 275.517 192.1 276.304C191.54 277.104 190.813 277.731 189.92 278.184C189.026 278.637 188.02 278.864 186.9 278.864C185.926 278.864 185.073 278.704 184.34 278.384C183.606 278.077 183.053 277.631 182.68 277.044C182.306 276.457 182.146 275.764 182.2 274.964H184.46C184.526 275.537 184.813 275.997 185.32 276.344C185.826 276.704 186.473 276.884 187.26 276.884C188.18 276.884 188.973 276.604 189.64 276.044C190.306 275.484 190.733 274.671 190.92 273.604L191.24 271.764C190.76 272.284 190.16 272.724 189.44 273.084C188.72 273.431 187.94 273.604 187.1 273.604C186.26 273.604 185.513 273.417 184.86 273.044C184.206 272.671 183.693 272.144 183.32 271.464C182.96 270.771 182.78 269.977 182.78 269.084C182.78 268.684 182.82 268.277 182.9 267.864C183.1 266.757 183.5 265.777 184.1 264.924C184.713 264.071 185.46 263.411 186.34 262.944C187.22 262.464 188.14 262.224 189.1 262.224ZM191.92 267.904C191.973 267.651 192 267.377 192 267.084C192 266.191 191.733 265.491 191.2 264.984C190.68 264.464 190.026 264.204 189.24 264.204C188.653 264.204 188.08 264.351 187.52 264.644C186.96 264.924 186.473 265.344 186.06 265.904C185.646 266.451 185.373 267.104 185.24 267.864C185.186 268.117 185.16 268.391 185.16 268.684C185.16 269.591 185.42 270.311 185.94 270.844C186.473 271.364 187.133 271.624 187.92 271.624C188.506 271.624 189.08 271.477 189.64 271.184C190.2 270.891 190.686 270.464 191.1 269.904C191.513 269.331 191.786 268.664 191.92 267.904ZM207.271 273.564C206.417 273.564 205.651 273.431 204.971 273.164C204.291 272.884 203.751 272.484 203.351 271.964C202.951 271.431 202.751 270.804 202.751 270.084C202.751 269.991 202.764 269.824 202.791 269.584H205.051C204.997 270.197 205.177 270.711 205.591 271.124C206.004 271.524 206.597 271.724 207.371 271.724C208.197 271.724 208.844 271.557 209.311 271.224C209.777 270.877 210.011 270.384 210.011 269.744C210.011 269.357 209.891 269.031 209.651 268.764C209.424 268.484 209.131 268.251 208.771 268.064C208.424 267.877 207.937 267.657 207.311 267.404C206.484 267.057 205.824 266.744 205.331 266.464C204.837 266.184 204.411 265.797 204.051 265.304C203.704 264.811 203.531 264.191 203.531 263.444C203.531 262.617 203.744 261.897 204.171 261.284C204.597 260.657 205.184 260.177 205.931 259.844C206.691 259.511 207.544 259.344 208.491 259.344C209.437 259.344 210.251 259.504 210.931 259.824C211.624 260.131 212.144 260.571 212.491 261.144C212.851 261.704 213.011 262.364 212.971 263.124H210.571C210.624 262.577 210.457 262.124 210.071 261.764C209.684 261.391 209.124 261.204 208.391 261.204C207.617 261.204 206.997 261.384 206.531 261.744C206.077 262.091 205.851 262.564 205.851 263.164C205.851 263.537 205.964 263.864 206.191 264.144C206.431 264.411 206.731 264.644 207.091 264.844C207.451 265.031 207.937 265.257 208.551 265.524C209.377 265.897 210.037 266.231 210.531 266.524C211.037 266.817 211.471 267.217 211.831 267.724C212.191 268.217 212.371 268.831 212.371 269.564C212.371 270.337 212.157 271.031 211.731 271.644C211.304 272.244 210.704 272.717 209.931 273.064C209.157 273.397 208.271 273.564 207.271 273.564ZM219.023 273.604C218.09 273.604 217.27 273.411 216.563 273.024C215.856 272.637 215.303 272.091 214.903 271.384C214.516 270.677 214.323 269.871 214.323 268.964C214.323 267.724 214.61 266.591 215.183 265.564C215.77 264.537 216.57 263.724 217.583 263.124C218.61 262.524 219.75 262.224 221.003 262.224C221.936 262.224 222.763 262.424 223.483 262.824C224.203 263.211 224.763 263.757 225.163 264.464C225.576 265.157 225.783 265.964 225.783 266.884C225.783 268.124 225.483 269.257 224.883 270.284C224.283 271.311 223.47 272.124 222.443 272.724C221.416 273.311 220.276 273.604 219.023 273.604ZM219.303 271.684C220.063 271.684 220.756 271.471 221.383 271.044C222.023 270.604 222.523 270.031 222.883 269.324C223.243 268.604 223.423 267.837 223.423 267.024C223.423 266.104 223.163 265.397 222.643 264.904C222.123 264.397 221.47 264.144 220.683 264.144C219.91 264.144 219.216 264.364 218.603 264.804C218.003 265.231 217.53 265.811 217.183 266.544C216.85 267.264 216.683 268.037 216.683 268.864C216.683 269.757 216.923 270.451 217.403 270.944C217.896 271.437 218.53 271.684 219.303 271.684ZM231.777 273.604C230.844 273.604 230.024 273.411 229.317 273.024C228.61 272.637 228.057 272.091 227.657 271.384C227.27 270.677 227.077 269.871 227.077 268.964C227.077 267.724 227.364 266.591 227.937 265.564C228.524 264.537 229.324 263.724 230.337 263.124C231.364 262.524 232.504 262.224 233.757 262.224C234.69 262.224 235.517 262.424 236.237 262.824C236.957 263.211 237.517 263.757 237.917 264.464C238.33 265.157 238.537 265.964 238.537 266.884C238.537 268.124 238.237 269.257 237.637 270.284C237.037 271.311 236.224 272.124 235.197 272.724C234.17 273.311 233.03 273.604 231.777 273.604ZM232.057 271.684C232.817 271.684 233.51 271.471 234.137 271.044C234.777 270.604 235.277 270.031 235.637 269.324C235.997 268.604 236.177 267.837 236.177 267.024C236.177 266.104 235.917 265.397 235.397 264.904C234.877 264.397 234.224 264.144 233.437 264.144C232.664 264.144 231.97 264.364 231.357 264.804C230.757 265.231 230.284 265.811 229.937 266.544C229.604 267.264 229.437 268.037 229.437 268.864C229.437 269.757 229.677 270.451 230.157 270.944C230.65 271.437 231.284 271.684 232.057 271.684ZM247.251 262.224C248.411 262.224 249.331 262.537 250.011 263.164C250.704 263.777 251.051 264.664 251.051 265.824C251.051 266.117 251.018 266.484 250.951 266.924L249.791 273.424H247.531L248.631 267.264C248.684 266.891 248.711 266.624 248.711 266.464C248.711 265.731 248.504 265.171 248.091 264.784C247.691 264.397 247.131 264.204 246.411 264.204C245.544 264.204 244.811 264.471 244.211 265.004C243.624 265.524 243.251 266.277 243.091 267.264V267.204L241.991 273.424H239.711L241.651 262.404H243.931L243.711 263.684C244.164 263.231 244.698 262.877 245.311 262.624C245.938 262.357 246.584 262.224 247.251 262.224ZM253.599 273.564C253.239 273.564 252.946 273.451 252.719 273.224C252.493 272.997 252.379 272.711 252.379 272.364C252.379 271.897 252.553 271.497 252.899 271.164C253.259 270.817 253.666 270.644 254.119 270.644C254.479 270.644 254.766 270.757 254.979 270.984C255.206 271.211 255.319 271.497 255.319 271.844C255.319 272.311 255.146 272.717 254.799 273.064C254.453 273.397 254.053 273.564 253.599 273.564ZM258.423 273.564C258.063 273.564 257.77 273.451 257.543 273.224C257.317 272.997 257.203 272.711 257.203 272.364C257.203 271.897 257.377 271.497 257.723 271.164C258.083 270.817 258.49 270.644 258.943 270.644C259.303 270.644 259.59 270.757 259.803 270.984C260.03 271.211 260.143 271.497 260.143 271.844C260.143 272.311 259.97 272.717 259.623 273.064C259.277 273.397 258.877 273.564 258.423 273.564ZM263.248 273.564C262.888 273.564 262.594 273.451 262.368 273.224C262.141 272.997 262.028 272.711 262.028 272.364C262.028 271.897 262.201 271.497 262.548 271.164C262.908 270.817 263.314 270.644 263.768 270.644C264.128 270.644 264.414 270.757 264.628 270.984C264.854 271.211 264.968 271.497 264.968 271.844C264.968 272.311 264.794 272.717 264.448 273.064C264.101 273.397 263.701 273.564 263.248 273.564ZM268.072 273.564C267.712 273.564 267.419 273.451 267.192 273.224C266.965 272.997 266.852 272.711 266.852 272.364C266.852 271.897 267.025 271.497 267.372 271.164C267.732 270.817 268.139 270.644 268.592 270.644C268.952 270.644 269.239 270.757 269.452 270.984C269.679 271.211 269.792 271.497 269.792 271.844C269.792 272.311 269.619 272.717 269.272 273.064C268.925 273.397 268.525 273.564 268.072 273.564Z" fill="#C71A1A"/>
<rect x="425.954" y="0.550293" width="385" height="345.333" rx="24" fill="#FFFDFD"/>
<g clip-path="url(#clip1_1_529)">
<path d="M553.513 92.2393L523.432 109.471L523.333 142.34C523.333 174.213 523.432 175.309 525.325 176.504C526.918 177.5 527.317 178.795 527.317 183.775C527.317 188.855 527.616 189.95 529.11 190.349C530.205 190.648 531.899 193.038 533.193 196.225C537.178 205.688 545.943 210.369 551.62 206.086C553.413 204.791 553.712 204.991 555.704 209.373C558.194 214.652 562.377 218.935 566.561 220.529C568.851 221.425 570.047 221.226 572.935 219.732L576.521 217.839L598.733 230.688C620.546 243.338 620.944 243.438 623.434 241.844C625.924 240.25 625.924 240.25 625.924 243.238C625.924 245.928 626.721 246.725 632.598 250.111C638.275 253.398 639.57 254.693 642.359 259.872C647.24 269.235 653.216 272.223 659.989 268.737C662.18 267.641 663.276 267.442 664.073 268.239C666.363 270.53 666.762 268.936 666.762 256.784C666.762 244.633 666.662 243.936 661.682 227.7C658.694 217.939 655.706 210.07 654.511 208.776C653.315 207.481 646.841 203.297 640.068 199.413C631.602 194.632 628.116 192.142 629.012 191.544C629.809 191.146 639.769 185.468 651.224 178.795C667.658 169.333 672.439 167.042 673.834 167.739C674.83 168.336 675.826 168.735 676.224 168.735C676.523 168.735 676.623 159.671 676.523 148.615L676.224 128.495L630.008 101.801C604.609 87.1595 583.692 75.1075 583.692 75.1075C583.593 75.1075 570.047 82.8766 553.513 92.2393ZM543.951 188.855C549.528 195.03 549.628 202.6 544.249 202.6C540.365 202.6 534.588 193.337 535.783 188.954C536.48 185.867 541.162 185.867 543.951 188.855ZM565.266 200.608C567.457 201.803 571.142 208.576 571.142 211.365C571.142 216.943 564.369 216.445 560.485 210.668C558.294 207.481 557.397 201.704 558.891 200.309C559.887 199.313 563.074 199.512 565.266 200.608ZM644.152 209.274L647.837 211.564V223.019V234.473L639.172 229.294C634.291 226.505 629.809 223.816 629.211 223.218C627.817 222.222 627.319 202.501 628.614 201.305C629.211 200.708 635.586 203.995 644.152 209.274ZM658.196 225.907C660.088 231.983 661.981 238.258 662.379 239.752L663.076 242.641L659.889 241.047C657.001 239.553 656.801 239.055 656.801 233.975C656.801 230.987 656.503 228.497 656.005 228.497C654.212 228.497 650.925 231.684 650.526 233.776C650.327 234.971 650.028 230.688 649.929 224.314L649.829 212.56L652.319 213.756C654.311 214.652 655.407 216.843 658.196 225.907ZM651.224 250.509C656.005 254.294 658.296 261.466 655.606 264.155C653.813 265.948 652.319 265.649 648.933 262.761C645.148 259.573 643.156 253.597 644.749 250.509C646.243 247.92 647.837 247.82 651.224 250.509Z" fill="black"/>
<path d="M674.929 190.249C669.85 193.138 665.069 195.628 664.272 195.628C663.475 195.628 658.794 193.835 653.813 191.644C648.833 189.452 644.451 187.66 644.052 187.66C642.459 187.759 662.379 197.62 664.172 197.62C666.164 197.62 683.196 188.257 684.292 186.564C685.687 184.273 683.694 185.07 674.929 190.249Z" fill="black"/>
<path d="M706.503 198.616C705.109 199.413 705.109 200.01 706.503 204.492C708.695 211.564 710.587 211.066 710.587 203.596C710.587 197.421 709.89 196.624 706.503 198.616Z" fill="black"/>
<path d="M694.65 238.457C693.256 239.453 690.467 241.147 688.475 242.043C685.188 243.537 684.69 244.234 684.69 247.123C684.69 251.406 686.383 251.406 693.356 247.222C698.635 244.035 700.527 241.147 699.232 237.959C698.535 235.967 697.639 236.067 694.65 238.457ZM697.539 243.039C696.443 244.434 687.479 249.414 686.184 249.414C685.885 249.414 685.686 248.219 685.786 246.625C685.786 244.234 685.885 244.135 686.682 245.928C687.479 247.721 687.579 247.721 687.678 245.43C687.778 243.139 687.877 243.139 688.674 244.932C689.471 246.824 689.571 246.824 689.571 244.732C689.67 241.744 691.463 240.947 691.961 243.637C692.36 245.529 692.459 245.43 692.658 242.94C692.858 239.951 692.858 239.951 693.654 242.442L694.451 244.932L694.551 242.242C694.65 239.055 696.344 237.661 696.941 240.151C697.24 241.445 697.439 241.246 697.639 239.453C697.937 236.963 697.937 236.963 698.336 239.254C698.635 240.549 698.236 242.242 697.539 243.039Z" fill="black"/>
<path d="M705.11 244.633C697.441 250.111 687.58 255.49 675.528 260.769C669.85 263.159 669.751 263.358 669.751 267.243C669.751 271.924 668.755 272.123 683.596 265.251C693.955 260.37 708.596 251.306 711.883 247.621C713.078 246.326 713.576 244.434 713.377 242.242L713.078 238.856L705.11 244.633Z" fill="black"/>
<path d="M674.76 168.782L700.708 184.115M700.708 184.115L656.282 208.49M700.708 184.115L706.211 199.447V212.814M706.211 212.814L670.042 231.685M706.211 212.814L713.328 237.385" stroke="black" stroke-width="1.5" stroke-linecap="round"/>
<path d="M534.975 115.468L614.999 161.375M614.999 161.375L665.721 134.568M614.999 161.375V234.449" stroke="white" stroke-width="1.5" stroke-linecap="round"/>
</g>
<rect x="0.954102" y="385.884" width="385" height="345.333" rx="24" fill="#FFFDFD"/>
<g clip-path="url(#clip2_1_529)">
<path d="M253.636 490.663C223.545 508.158 198.453 522.553 197.953 522.553C197.453 522.553 183.757 514.956 167.662 505.658C151.567 496.261 137.671 488.364 136.672 487.964C135.072 487.364 134.972 488.564 134.972 503.459C134.972 512.356 135.172 519.554 135.472 519.554C135.672 519.554 137.471 518.854 139.371 517.955L142.77 516.255L165.163 529.251L187.456 542.147L187.756 566.24L187.956 590.232L177.559 596.231L167.062 602.329L165.463 597.43C163.063 590.432 161.164 590.232 150.767 596.131C137.371 603.828 137.271 603.928 136.472 609.526C135.872 613.725 135.272 614.825 132.873 616.024C130.074 617.524 129.674 617.324 107.081 604.328C91.1855 595.131 84.0877 590.532 83.9877 589.233C83.9877 587.233 83.8878 587.233 80.4888 588.733C78.5894 589.533 77.9896 590.632 77.9896 592.932C77.9896 595.531 78.8893 596.73 83.2879 599.929C86.0871 602.129 92.0852 605.628 96.4839 607.827C100.883 610.026 110.28 615.225 117.477 619.423C124.675 623.522 131.173 626.821 132.073 626.821C132.973 626.721 134.172 627.721 134.772 629.02C136.172 631.92 147.168 638.518 150.767 638.518C155.366 638.518 163.863 632.819 163.963 629.72C163.963 629.12 164.463 628.521 164.963 628.521C165.563 628.521 165.963 627.621 165.963 626.521C165.963 625.422 166.362 624.522 166.862 624.522C167.862 624.522 169.262 618.024 169.361 613.125C169.461 610.326 171.061 609.227 201.152 591.832L232.942 573.438L237.141 576.137C245.038 581.135 248.837 582.435 252.336 581.335C257.634 579.536 265.432 570.339 266.332 564.84C266.732 562.441 267.731 562.441 271.73 564.44C275.229 566.24 276.229 566.34 279.328 565.24C283.626 563.741 289.924 558.742 289.924 556.843C289.924 556.143 290.424 555.543 290.924 555.543C291.524 555.543 291.924 554.643 291.924 553.644C291.924 552.544 292.424 551.544 293.024 551.344C293.623 551.144 294.323 548.145 294.623 544.746C295.123 539.348 294.923 538.048 293.123 535.549L290.924 532.65L299.921 527.452L308.919 522.353V490.463C308.919 472.868 308.819 458.573 308.719 458.673C308.519 458.673 283.726 473.068 253.636 490.663ZM301.821 505.858C305.72 509.957 306.02 510.557 305.72 515.055L305.42 519.954L253.936 549.745C225.644 566.04 202.151 579.536 201.752 579.536C201.252 579.536 200.952 577.436 200.952 574.737C200.952 571.338 202.051 567.539 205.15 560.741L209.349 551.544L213.648 555.743C215.947 558.042 218.147 559.742 218.346 559.442C218.646 559.242 220.646 554.943 222.945 550.045L227.044 541.247L231.442 545.546L235.841 549.845L239.94 541.048C242.239 536.149 244.338 531.85 244.638 531.55C244.938 531.251 246.838 533.05 249.037 535.549C251.136 537.948 253.036 539.748 253.336 539.548C253.536 539.248 255.635 535.049 257.834 530.151L261.933 521.154L266.332 525.452L270.73 529.751L275.029 520.654C277.328 515.655 279.428 511.557 279.828 511.557C280.127 511.557 282.127 513.356 284.426 515.555L288.425 519.454L292.424 510.557C294.623 505.658 296.622 501.56 296.922 501.56C297.222 501.56 299.422 503.559 301.821 505.858ZM285.926 544.646C285.926 546.846 285.526 548.445 285.026 548.145C284.526 547.845 284.226 548.345 284.326 549.345C284.326 550.345 283.826 550.944 283.027 550.745C282.227 550.545 281.927 551.044 282.227 551.944C282.927 553.644 279.428 556.543 276.729 556.543C274.629 556.543 274.529 551.344 276.529 547.346C278.028 544.346 283.926 539.448 285.126 540.148C285.526 540.448 285.926 542.447 285.926 544.646ZM258.734 558.942C259.234 562.741 257.234 567.139 253.736 570.039C249.537 573.538 247.937 573.238 247.937 569.039C247.937 564.54 250.037 560.342 253.636 557.642C257.135 555.143 258.334 555.443 258.734 558.942ZM160.464 617.324C160.164 618.124 159.964 619.323 159.964 620.123C159.964 621.023 159.565 621.423 159.065 621.123C158.565 620.823 158.265 621.323 158.365 622.323C158.365 623.222 157.965 623.922 157.265 623.822C156.565 623.622 156.266 624.122 156.565 624.922C157.265 626.821 154.966 628.121 153.766 626.421C153.066 625.322 152.967 625.522 153.166 627.021C153.366 628.421 152.867 629.02 151.467 629.02C146.768 629.02 150.367 616.924 155.966 614.125C158.065 613.025 158.665 613.125 159.764 614.425C160.464 615.225 160.764 616.624 160.464 617.324Z" fill="black"/>
<path d="M278.328 548.445C278.328 549.945 278.628 550.145 279.628 549.345C280.328 548.745 280.928 547.945 280.928 547.446C280.928 546.946 280.328 546.546 279.628 546.546C278.928 546.546 278.328 547.446 278.328 548.445Z" fill="black"/>
<path d="M152.267 621.423C152.367 622.922 152.667 623.122 153.667 622.322C155.366 620.923 155.266 619.523 153.567 619.523C152.767 619.523 152.167 620.423 152.267 621.423Z" fill="black"/>
<path d="M116.978 535.749C116.978 535.949 116.278 539.848 115.478 544.546C114.679 549.245 113.979 553.144 113.979 553.144C113.979 553.244 127.275 561.141 129.074 562.141C129.374 562.341 128.374 557.642 126.975 551.744C125.475 545.846 124.776 540.847 125.275 540.647C125.775 540.447 124.276 539.248 121.976 537.948C117.978 535.649 116.978 535.249 116.978 535.749Z" fill="black"/>
<path d="M140.771 550.245C141.27 551.244 142.97 556.643 144.469 562.341C147.269 572.238 147.469 572.738 151.367 575.037L155.466 577.536L156.666 571.238C158.965 559.242 158.965 559.442 153.967 556.543C139.371 548.045 139.771 548.245 140.771 550.245Z" fill="black"/>
<path d="M180.258 559.742C179.059 564.84 178.259 569.139 178.459 569.339C178.659 569.539 179.758 569.239 180.858 568.539C182.757 567.539 182.957 566.539 182.957 559.042C182.957 554.343 182.857 550.544 182.657 550.544C182.457 550.544 181.358 554.743 180.258 559.742Z" fill="black"/>
<path d="M165.162 560.841C163.963 562.241 162.263 575.437 163.363 574.437C163.763 574.037 164.662 571.538 165.362 568.939C166.062 566.24 166.962 563.041 167.362 561.741C168.161 559.342 166.862 558.742 165.162 560.841Z" fill="black"/>
<path d="M94.1842 589.232L94.4841 593.931L105.981 600.629C112.279 604.428 117.777 607.427 118.277 607.527C118.677 607.527 118.977 605.428 118.977 602.728V598.03L107.08 591.232C100.582 587.533 94.884 584.534 94.5841 584.534C94.1842 584.534 93.9843 586.633 94.1842 589.232Z" fill="black"/>
<path d="M250.72 425.122L136.497 488.365L199.339 522.89L308.46 458.933L250.72 425.122Z" fill="black" stroke="black" stroke-width="1.5" stroke-linecap="round"/>
<path d="M142.921 516.804L113.216 532.596M113.216 532.596L159.089 559.668M113.216 532.596V552.684L159.089 578.439M159.089 559.668L184.657 545.004V565.814L159.089 578.439M159.089 559.668V578.439M111.137 554.367L84.8773 571.2L130.496 597.292M130.496 597.292L157.597 579.954H159.089V590.222M130.496 597.292V614.357" stroke="black" stroke-width="1.5" stroke-linecap="round"/>
<path d="M84.8724 573.753V587.864" stroke="black" stroke-width="1.5" stroke-linecap="round"/>
<path d="M138.372 489.954L186.97 516.503L296.768 461.604M186.97 519.203V541.702" stroke="white" stroke-width="1.5" stroke-linecap="round"/>
</g>
<path d="M115.894 670.537C116.134 669.177 116.661 667.957 117.474 666.877C118.301 665.797 119.307 664.957 120.494 664.357C121.694 663.744 122.941 663.437 124.234 663.437C125.714 663.437 126.967 663.804 127.994 664.537C129.034 665.257 129.694 666.284 129.974 667.617H127.234C126.981 666.924 126.567 666.404 125.994 666.057C125.421 665.697 124.714 665.517 123.874 665.517C122.954 665.517 122.094 665.724 121.294 666.137C120.507 666.55 119.841 667.137 119.294 667.897C118.761 668.657 118.407 669.537 118.234 670.537C118.167 670.977 118.134 671.35 118.134 671.657C118.134 672.857 118.494 673.81 119.214 674.517C119.934 675.224 120.894 675.577 122.094 675.577C122.934 675.577 123.707 675.404 124.414 675.057C125.121 674.697 125.714 674.17 126.194 673.477H128.934C128.174 674.81 127.154 675.837 125.874 676.557C124.594 677.277 123.214 677.637 121.734 677.637C120.587 677.637 119.561 677.397 118.654 676.917C117.747 676.437 117.041 675.764 116.534 674.897C116.027 674.03 115.774 673.03 115.774 671.897C115.774 671.47 115.814 671.017 115.894 670.537ZM135.703 677.697C134.77 677.697 133.95 677.504 133.243 677.117C132.536 676.73 131.983 676.184 131.583 675.477C131.196 674.77 131.003 673.964 131.003 673.057C131.003 671.817 131.29 670.684 131.863 669.657C132.45 668.63 133.25 667.817 134.263 667.217C135.29 666.617 136.43 666.317 137.683 666.317C138.616 666.317 139.443 666.517 140.163 666.917C140.883 667.304 141.443 667.85 141.843 668.557C142.256 669.25 142.463 670.057 142.463 670.977C142.463 672.217 142.163 673.35 141.563 674.377C140.963 675.404 140.15 676.217 139.123 676.817C138.096 677.404 136.956 677.697 135.703 677.697ZM135.983 675.777C136.743 675.777 137.436 675.564 138.063 675.137C138.703 674.697 139.203 674.124 139.563 673.417C139.923 672.697 140.103 671.93 140.103 671.117C140.103 670.197 139.843 669.49 139.323 668.997C138.803 668.49 138.15 668.237 137.363 668.237C136.59 668.237 135.896 668.457 135.283 668.897C134.683 669.324 134.21 669.904 133.863 670.637C133.53 671.357 133.363 672.13 133.363 672.957C133.363 673.85 133.603 674.544 134.083 675.037C134.576 675.53 135.21 675.777 135.983 675.777ZM158.957 666.317C160.117 666.317 161.043 666.63 161.737 667.257C162.43 667.884 162.777 668.77 162.777 669.917C162.777 670.224 162.743 670.59 162.677 671.017L161.517 677.517H159.257L160.357 671.357C160.41 670.984 160.437 670.717 160.437 670.557C160.437 669.824 160.23 669.264 159.817 668.877C159.417 668.49 158.857 668.297 158.137 668.297C157.27 668.297 156.537 668.564 155.937 669.097C155.35 669.617 154.977 670.37 154.817 671.357L153.717 677.517H151.457L152.557 671.357C152.61 670.984 152.637 670.717 152.637 670.557C152.637 669.824 152.43 669.264 152.017 668.877C151.617 668.49 151.057 668.297 150.337 668.297C149.47 668.297 148.737 668.564 148.137 669.097C147.55 669.617 147.177 670.37 147.017 671.357V671.297L145.917 677.517H143.637L145.577 666.497H147.857L147.637 667.777C148.077 667.324 148.603 666.97 149.217 666.717C149.843 666.45 150.49 666.317 151.157 666.317C152.037 666.317 152.79 666.504 153.417 666.877C154.057 667.25 154.503 667.79 154.757 668.497C155.197 667.83 155.803 667.304 156.577 666.917C157.35 666.517 158.143 666.317 158.957 666.317ZM167.778 665.037C167.418 665.037 167.125 664.924 166.898 664.697C166.671 664.47 166.558 664.184 166.558 663.837C166.558 663.37 166.731 662.97 167.078 662.637C167.438 662.29 167.845 662.117 168.298 662.117C168.658 662.117 168.945 662.23 169.158 662.457C169.385 662.684 169.498 662.97 169.498 663.317C169.498 663.784 169.325 664.19 168.978 664.537C168.631 664.87 168.231 665.037 167.778 665.037ZM168.638 666.497L166.698 677.517H164.418L166.358 666.497H168.638ZM177.231 666.317C178.391 666.317 179.311 666.63 179.991 667.257C180.685 667.87 181.031 668.757 181.031 669.917C181.031 670.21 180.998 670.577 180.931 671.017L179.771 677.517H177.511L178.611 671.357C178.665 670.984 178.691 670.717 178.691 670.557C178.691 669.824 178.485 669.264 178.071 668.877C177.671 668.49 177.111 668.297 176.391 668.297C175.525 668.297 174.791 668.564 174.191 669.097C173.605 669.617 173.231 670.37 173.071 671.357V671.297L171.971 677.517H169.691L171.631 666.497H173.911L173.691 667.777C174.145 667.324 174.678 666.97 175.291 666.717C175.918 666.45 176.565 666.317 177.231 666.317ZM189.1 666.317C189.953 666.317 190.68 666.49 191.28 666.837C191.893 667.17 192.333 667.59 192.6 668.097L192.88 666.497H195.18L193.22 677.697C193.033 678.71 192.66 679.61 192.1 680.397C191.54 681.197 190.813 681.824 189.92 682.277C189.026 682.73 188.02 682.957 186.9 682.957C185.926 682.957 185.073 682.797 184.34 682.477C183.606 682.17 183.053 681.724 182.68 681.137C182.306 680.55 182.146 679.857 182.2 679.057H184.46C184.526 679.63 184.813 680.09 185.32 680.437C185.826 680.797 186.473 680.977 187.26 680.977C188.18 680.977 188.973 680.697 189.64 680.137C190.306 679.577 190.733 678.764 190.92 677.697L191.24 675.857C190.76 676.377 190.16 676.817 189.44 677.177C188.72 677.524 187.94 677.697 187.1 677.697C186.26 677.697 185.513 677.51 184.86 677.137C184.206 676.764 183.693 676.237 183.32 675.557C182.96 674.864 182.78 674.07 182.78 673.177C182.78 672.777 182.82 672.37 182.9 671.957C183.1 670.85 183.5 669.87 184.1 669.017C184.713 668.164 185.46 667.504 186.34 667.037C187.22 666.557 188.14 666.317 189.1 666.317ZM191.92 671.997C191.973 671.744 192 671.47 192 671.177C192 670.284 191.733 669.584 191.2 669.077C190.68 668.557 190.026 668.297 189.24 668.297C188.653 668.297 188.08 668.444 187.52 668.737C186.96 669.017 186.473 669.437 186.06 669.997C185.646 670.544 185.373 671.197 185.24 671.957C185.186 672.21 185.16 672.484 185.16 672.777C185.16 673.684 185.42 674.404 185.94 674.937C186.473 675.457 187.133 675.717 187.92 675.717C188.506 675.717 189.08 675.57 189.64 675.277C190.2 674.984 190.686 674.557 191.1 673.997C191.513 673.424 191.786 672.757 191.92 671.997ZM207.271 677.657C206.417 677.657 205.651 677.524 204.971 677.257C204.291 676.977 203.751 676.577 203.351 676.057C202.951 675.524 202.751 674.897 202.751 674.177C202.751 674.084 202.764 673.917 202.791 673.677H205.051C204.997 674.29 205.177 674.804 205.591 675.217C206.004 675.617 206.597 675.817 207.371 675.817C208.197 675.817 208.844 675.65 209.311 675.317C209.777 674.97 210.011 674.477 210.011 673.837C210.011 673.45 209.891 673.124 209.651 672.857C209.424 672.577 209.131 672.344 208.771 672.157C208.424 671.97 207.937 671.75 207.311 671.497C206.484 671.15 205.824 670.837 205.331 670.557C204.837 670.277 204.411 669.89 204.051 669.397C203.704 668.904 203.531 668.284 203.531 667.537C203.531 666.71 203.744 665.99 204.171 665.377C204.597 664.75 205.184 664.27 205.931 663.937C206.691 663.604 207.544 663.437 208.491 663.437C209.437 663.437 210.251 663.597 210.931 663.917C211.624 664.224 212.144 664.664 212.491 665.237C212.851 665.797 213.011 666.457 212.971 667.217H210.571C210.624 666.67 210.457 666.217 210.071 665.857C209.684 665.484 209.124 665.297 208.391 665.297C207.617 665.297 206.997 665.477 206.531 665.837C206.077 666.184 205.851 666.657 205.851 667.257C205.851 667.63 205.964 667.957 206.191 668.237C206.431 668.504 206.731 668.737 207.091 668.937C207.451 669.124 207.937 669.35 208.551 669.617C209.377 669.99 210.037 670.324 210.531 670.617C211.037 670.91 211.471 671.31 211.831 671.817C212.191 672.31 212.371 672.924 212.371 673.657C212.371 674.43 212.157 675.124 211.731 675.737C211.304 676.337 210.704 676.81 209.931 677.157C209.157 677.49 208.271 677.657 207.271 677.657ZM219.023 677.697C218.09 677.697 217.27 677.504 216.563 677.117C215.856 676.73 215.303 676.184 214.903 675.477C214.516 674.77 214.323 673.964 214.323 673.057C214.323 671.817 214.61 670.684 215.183 669.657C215.77 668.63 216.57 667.817 217.583 667.217C218.61 666.617 219.75 666.317 221.003 666.317C221.936 666.317 222.763 666.517 223.483 666.917C224.203 667.304 224.763 667.85 225.163 668.557C225.576 669.25 225.783 670.057 225.783 670.977C225.783 672.217 225.483 673.35 224.883 674.377C224.283 675.404 223.47 676.217 222.443 676.817C221.416 677.404 220.276 677.697 219.023 677.697ZM219.303 675.777C220.063 675.777 220.756 675.564 221.383 675.137C222.023 674.697 222.523 674.124 222.883 673.417C223.243 672.697 223.423 671.93 223.423 671.117C223.423 670.197 223.163 669.49 222.643 668.997C222.123 668.49 221.47 668.237 220.683 668.237C219.91 668.237 219.216 668.457 218.603 668.897C218.003 669.324 217.53 669.904 217.183 670.637C216.85 671.357 216.683 672.13 216.683 672.957C216.683 673.85 216.923 674.544 217.403 675.037C217.896 675.53 218.53 675.777 219.303 675.777ZM231.777 677.697C230.844 677.697 230.024 677.504 229.317 677.117C228.61 676.73 228.057 676.184 227.657 675.477C227.27 674.77 227.077 673.964 227.077 673.057C227.077 671.817 227.364 670.684 227.937 669.657C228.524 668.63 229.324 667.817 230.337 667.217C231.364 666.617 232.504 666.317 233.757 666.317C234.69 666.317 235.517 666.517 236.237 666.917C236.957 667.304 237.517 667.85 237.917 668.557C238.33 669.25 238.537 670.057 238.537 670.977C238.537 672.217 238.237 673.35 237.637 674.377C237.037 675.404 236.224 676.217 235.197 676.817C234.17 677.404 233.03 677.697 231.777 677.697ZM232.057 675.777C232.817 675.777 233.51 675.564 234.137 675.137C234.777 674.697 235.277 674.124 235.637 673.417C235.997 672.697 236.177 671.93 236.177 671.117C236.177 670.197 235.917 669.49 235.397 668.997C234.877 668.49 234.224 668.237 233.437 668.237C232.664 668.237 231.97 668.457 231.357 668.897C230.757 669.324 230.284 669.904 229.937 670.637C229.604 671.357 229.437 672.13 229.437 672.957C229.437 673.85 229.677 674.544 230.157 675.037C230.65 675.53 231.284 675.777 232.057 675.777ZM247.251 666.317C248.411 666.317 249.331 666.63 250.011 667.257C250.704 667.87 251.051 668.757 251.051 669.917C251.051 670.21 251.018 670.577 250.951 671.017L249.791 677.517H247.531L248.631 671.357C248.684 670.984 248.711 670.717 248.711 670.557C248.711 669.824 248.504 669.264 248.091 668.877C247.691 668.49 247.131 668.297 246.411 668.297C245.544 668.297 244.811 668.564 244.211 669.097C243.624 669.617 243.251 670.37 243.091 671.357V671.297L241.991 677.517H239.711L241.651 666.497H243.931L243.711 667.777C244.164 667.324 244.698 666.97 245.311 666.717C245.938 666.45 246.584 666.317 247.251 666.317ZM253.599 677.657C253.239 677.657 252.946 677.544 252.719 677.317C252.493 677.09 252.379 676.804 252.379 676.457C252.379 675.99 252.553 675.59 252.899 675.257C253.259 674.91 253.666 674.737 254.119 674.737C254.479 674.737 254.766 674.85 254.979 675.077C255.206 675.304 255.319 675.59 255.319 675.937C255.319 676.404 255.146 676.81 254.799 677.157C254.453 677.49 254.053 677.657 253.599 677.657ZM258.423 677.657C258.063 677.657 257.77 677.544 257.543 677.317C257.317 677.09 257.203 676.804 257.203 676.457C257.203 675.99 257.377 675.59 257.723 675.257C258.083 674.91 258.49 674.737 258.943 674.737C259.303 674.737 259.59 674.85 259.803 675.077C260.03 675.304 260.143 675.59 260.143 675.937C260.143 676.404 259.97 676.81 259.623 677.157C259.277 677.49 258.877 677.657 258.423 677.657ZM263.248 677.657C262.888 677.657 262.594 677.544 262.368 677.317C262.141 677.09 262.028 676.804 262.028 676.457C262.028 675.99 262.201 675.59 262.548 675.257C262.908 674.91 263.314 674.737 263.768 674.737C264.128 674.737 264.414 674.85 264.628 675.077C264.854 675.304 264.968 675.59 264.968 675.937C264.968 676.404 264.794 676.81 264.448 677.157C264.101 677.49 263.701 677.657 263.248 677.657ZM268.072 677.657C267.712 677.657 267.419 677.544 267.192 677.317C266.965 677.09 266.852 676.804 266.852 676.457C266.852 675.99 267.025 675.59 267.372 675.257C267.732 674.91 268.139 674.737 268.592 674.737C268.952 674.737 269.239 674.85 269.452 675.077C269.679 675.304 269.792 675.59 269.792 675.937C269.792 676.404 269.619 676.81 269.272 677.157C268.925 677.49 268.525 677.657 268.072 677.657Z" fill="#C71A1A"/>
<rect x="425.954" y="385.884" width="385" height="345.333" rx="24" fill="#FFFDFD"/>
<g clip-path="url(#clip3_1_529)">
<path d="M549.318 458.325C534.872 466.693 522.619 474.165 522.221 474.962C521.822 475.659 521.125 483.231 520.726 491.698C520.328 500.166 519.431 508.833 518.734 511.025C516.044 518.596 517.538 523.976 526.205 536.926C528.696 540.812 539.754 548.881 541.248 547.984C541.647 547.785 542.444 549.379 543.141 551.571C544.635 556.353 550.015 562.728 554.199 564.422C556.789 565.518 557.885 565.418 561.073 563.924L564.858 562.23L598.53 581.656C632.103 601.082 632.103 601.082 634.394 605.964C636.785 611.244 641.567 615.826 645.552 616.823C647.046 617.221 649.437 616.823 651.529 615.826C654.816 614.232 655.115 614.232 658.303 616.225C662.786 619.014 664.38 618.815 674.541 614.332C694.964 605.366 707.416 597.994 715.386 590.323L719.57 586.239V577.771V569.204L709.01 545.593C703.133 532.643 697.355 519.891 695.96 517.301C693.569 512.519 687.193 504.649 685.599 504.649C685.201 504.649 661.989 491.499 634.195 475.36C580.997 444.677 577.71 442.784 576.414 442.984C576.016 442.984 563.763 449.957 549.318 458.325ZM627.719 480.043C656.41 496.58 679.224 510.228 678.327 510.427C676.633 510.826 572.131 450.854 572.131 449.459C572.131 449.06 572.928 448.961 573.924 449.359C574.821 449.658 599.029 463.506 627.719 480.043ZM590.461 498.174C618.455 514.312 642.264 528.259 643.36 529.056C645.352 530.65 645.352 530.65 643.36 530.252C641.368 529.853 539.654 471.475 537.861 469.682C533.976 465.996 546.13 472.471 590.461 498.174ZM701.539 536.926C709.409 554.559 710.007 558.843 703.531 551.172C697.155 543.701 687.691 539.018 676.335 537.723L670.457 537.026L677.929 532.344C681.913 529.754 687.293 526.068 689.684 524.175C692.075 522.282 694.167 520.788 694.266 520.887C694.366 520.987 697.654 528.259 701.539 536.926ZM634.195 544.398L637.881 546.689V557.05C637.881 566.912 637.781 567.41 635.988 566.514C634.693 565.717 633.996 563.924 633.597 559.042C632.999 552.667 631.306 548.084 627.421 542.007L625.428 539.018L627.919 540.612C629.313 541.409 632.103 543.103 634.195 544.398ZM554.697 545.793C561.87 552.965 559.877 562.529 552.107 558.445C549.915 557.249 546.229 550.475 546.229 547.586C546.229 545.494 548.72 542.505 550.413 542.505C550.911 542.505 552.904 543.999 554.697 545.793ZM649.238 567.311C651.728 573.089 653.82 578.07 653.82 578.568C653.82 579.066 652.326 578.269 650.433 576.874C647.743 574.782 646.946 573.487 646.448 569.602C646.149 566.912 645.153 563.924 644.356 562.828C642.862 560.835 642.264 554.36 643.758 555.954C644.157 556.552 646.647 561.632 649.238 567.311ZM713.394 588.53C711.003 590.622 708.811 592.316 708.413 592.316C707.915 592.316 707.616 590.523 707.616 588.231C707.616 584.645 708.213 583.649 712.397 579.863L717.08 575.579L717.379 580.162C717.677 584.545 717.478 585.043 713.394 588.53ZM645.751 598.891C648.441 601.879 648.939 603.174 648.64 606.562C648.341 610.248 648.042 610.746 645.751 611.045C641.866 611.543 636.885 605.466 636.885 600.385C636.885 598.293 637.183 596.301 637.582 596.002C639.275 594.308 642.862 595.603 645.751 598.891ZM685.699 601.082V605.864L678.028 609.052C673.744 610.845 669.959 612.24 669.56 612.24C669.062 612.24 668.763 610.248 668.763 607.857V603.473L677.032 599.987C681.515 597.994 685.3 596.301 685.5 596.301C685.599 596.301 685.699 598.492 685.699 601.082Z" fill="black"/>
<path d="M533.63 513.573V496.899C533.63 493.792 537.017 491.871 539.683 493.466L598.201 528.464C599.408 529.187 600.148 530.49 600.148 531.897V549.241C600.148 552.363 596.731 554.281 594.066 552.657L535.548 516.988C534.357 516.262 533.63 514.968 533.63 513.573Z" fill="white" stroke="white" stroke-width="1.5" stroke-linecap="round"/>
<path d="M625.363 539.849L620.588 537.429L615.431 534.883L614.999 580.527L636.515 592.109V570.848" stroke="white" stroke-width="1.5" stroke-linecap="round"/>
<path d="M657.295 611.778V600.86L714.271 570.486M707.304 555.02L662.892 581.273C662.388 581.571 661.737 581.374 661.483 580.847L647.444 551.796L693.8 520.959" stroke="white" stroke-width="1.5" stroke-linecap="round"/>
</g>
<path d="M540.894 650.237C541.134 648.877 541.661 647.657 542.474 646.577C543.301 645.497 544.307 644.657 545.494 644.057C546.694 643.444 547.941 643.137 549.234 643.137C550.714 643.137 551.967 643.504 552.994 644.237C554.034 644.957 554.694 645.984 554.974 647.317H552.234C551.981 646.624 551.567 646.104 550.994 645.757C550.421 645.397 549.714 645.217 548.874 645.217C547.954 645.217 547.094 645.424 546.294 645.837C545.507 646.251 544.841 646.837 544.294 647.597C543.761 648.357 543.407 649.237 543.234 650.237C543.167 650.677 543.134 651.051 543.134 651.357C543.134 652.557 543.494 653.511 544.214 654.217C544.934 654.924 545.894 655.277 547.094 655.277C547.934 655.277 548.707 655.104 549.414 654.757C550.121 654.397 550.714 653.871 551.194 653.177H553.934C553.174 654.511 552.154 655.537 550.874 656.257C549.594 656.977 548.214 657.337 546.734 657.337C545.587 657.337 544.561 657.097 543.654 656.617C542.747 656.137 542.041 655.464 541.534 654.597C541.027 653.731 540.774 652.731 540.774 651.597C540.774 651.171 540.814 650.717 540.894 650.237ZM560.703 657.397C559.77 657.397 558.95 657.204 558.243 656.817C557.536 656.431 556.983 655.884 556.583 655.177C556.196 654.471 556.003 653.664 556.003 652.757C556.003 651.517 556.29 650.384 556.863 649.357C557.45 648.331 558.25 647.517 559.263 646.917C560.29 646.317 561.43 646.017 562.683 646.017C563.616 646.017 564.443 646.217 565.163 646.617C565.883 647.004 566.443 647.551 566.843 648.257C567.256 648.951 567.463 649.757 567.463 650.677C567.463 651.917 567.163 653.051 566.563 654.077C565.963 655.104 565.15 655.917 564.123 656.517C563.096 657.104 561.956 657.397 560.703 657.397ZM560.983 655.477C561.743 655.477 562.436 655.264 563.063 654.837C563.703 654.397 564.203 653.824 564.563 653.117C564.923 652.397 565.103 651.631 565.103 650.817C565.103 649.897 564.843 649.191 564.323 648.697C563.803 648.191 563.15 647.937 562.363 647.937C561.59 647.937 560.896 648.157 560.283 648.597C559.683 649.024 559.21 649.604 558.863 650.337C558.53 651.057 558.363 651.831 558.363 652.657C558.363 653.551 558.603 654.244 559.083 654.737C559.576 655.231 560.21 655.477 560.983 655.477ZM583.957 646.017C585.117 646.017 586.043 646.331 586.737 646.957C587.43 647.584 587.777 648.471 587.777 649.617C587.777 649.924 587.743 650.291 587.677 650.717L586.517 657.217H584.257L585.357 651.057C585.41 650.684 585.437 650.417 585.437 650.257C585.437 649.524 585.23 648.964 584.817 648.577C584.417 648.191 583.857 647.997 583.137 647.997C582.27 647.997 581.537 648.264 580.937 648.797C580.35 649.317 579.977 650.071 579.817 651.057L578.717 657.217H576.457L577.557 651.057C577.61 650.684 577.637 650.417 577.637 650.257C577.637 649.524 577.43 648.964 577.017 648.577C576.617 648.191 576.057 647.997 575.337 647.997C574.47 647.997 573.737 648.264 573.137 648.797C572.55 649.317 572.177 650.071 572.017 651.057V650.997L570.917 657.217H568.637L570.577 646.197H572.857L572.637 647.477C573.077 647.024 573.603 646.671 574.217 646.417C574.843 646.151 575.49 646.017 576.157 646.017C577.037 646.017 577.79 646.204 578.417 646.577C579.057 646.951 579.503 647.491 579.757 648.197C580.197 647.531 580.803 647.004 581.577 646.617C582.35 646.217 583.143 646.017 583.957 646.017ZM592.778 644.737C592.418 644.737 592.125 644.624 591.898 644.397C591.671 644.171 591.558 643.884 591.558 643.537C591.558 643.071 591.731 642.671 592.078 642.337C592.438 641.991 592.845 641.817 593.298 641.817C593.658 641.817 593.945 641.931 594.158 642.157C594.385 642.384 594.498 642.671 594.498 643.017C594.498 643.484 594.325 643.891 593.978 644.237C593.631 644.571 593.231 644.737 592.778 644.737ZM593.638 646.197L591.698 657.217H589.418L591.358 646.197H593.638ZM602.231 646.017C603.391 646.017 604.311 646.331 604.991 646.957C605.685 647.571 606.031 648.457 606.031 649.617C606.031 649.911 605.998 650.277 605.931 650.717L604.771 657.217H602.511L603.611 651.057C603.665 650.684 603.691 650.417 603.691 650.257C603.691 649.524 603.485 648.964 603.071 648.577C602.671 648.191 602.111 647.997 601.391 647.997C600.525 647.997 599.791 648.264 599.191 648.797C598.605 649.317 598.231 650.071 598.071 651.057V650.997L596.971 657.217H594.691L596.631 646.197H598.911L598.691 647.477C599.145 647.024 599.678 646.671 600.291 646.417C600.918 646.151 601.565 646.017 602.231 646.017ZM614.1 646.017C614.953 646.017 615.68 646.191 616.28 646.537C616.893 646.871 617.333 647.291 617.6 647.797L617.88 646.197H620.18L618.22 657.397C618.033 658.411 617.66 659.311 617.1 660.097C616.54 660.897 615.813 661.524 614.92 661.977C614.026 662.431 613.02 662.657 611.9 662.657C610.926 662.657 610.073 662.497 609.34 662.177C608.606 661.871 608.053 661.424 607.68 660.837C607.306 660.251 607.146 659.557 607.2 658.757H609.46C609.526 659.331 609.813 659.791 610.32 660.137C610.826 660.497 611.473 660.677 612.26 660.677C613.18 660.677 613.973 660.397 614.64 659.837C615.306 659.277 615.733 658.464 615.92 657.397L616.24 655.557C615.76 656.077 615.16 656.517 614.44 656.877C613.72 657.224 612.94 657.397 612.1 657.397C611.26 657.397 610.513 657.211 609.86 656.837C609.206 656.464 608.693 655.937 608.32 655.257C607.96 654.564 607.78 653.771 607.78 652.877C607.78 652.477 607.82 652.071 607.9 651.657C608.1 650.551 608.5 649.571 609.1 648.717C609.713 647.864 610.46 647.204 611.34 646.737C612.22 646.257 613.14 646.017 614.1 646.017ZM616.92 651.697C616.973 651.444 617 651.171 617 650.877C617 649.984 616.733 649.284 616.2 648.777C615.68 648.257 615.026 647.997 614.24 647.997C613.653 647.997 613.08 648.144 612.52 648.437C611.96 648.717 611.473 649.137 611.06 649.697C610.646 650.244 610.373 650.897 610.24 651.657C610.186 651.911 610.16 652.184 610.16 652.477C610.16 653.384 610.42 654.104 610.94 654.637C611.473 655.157 612.133 655.417 612.92 655.417C613.506 655.417 614.08 655.271 614.64 654.977C615.2 654.684 615.686 654.257 616.1 653.697C616.513 653.124 616.786 652.457 616.92 651.697ZM632.271 657.357C631.417 657.357 630.651 657.224 629.971 656.957C629.291 656.677 628.751 656.277 628.351 655.757C627.951 655.224 627.751 654.597 627.751 653.877C627.751 653.784 627.764 653.617 627.791 653.377H630.051C629.997 653.991 630.177 654.504 630.591 654.917C631.004 655.317 631.597 655.517 632.371 655.517C633.197 655.517 633.844 655.351 634.311 655.017C634.777 654.671 635.011 654.177 635.011 653.537C635.011 653.151 634.891 652.824 634.651 652.557C634.424 652.277 634.131 652.044 633.771 651.857C633.424 651.671 632.937 651.451 632.311 651.197C631.484 650.851 630.824 650.537 630.331 650.257C629.837 649.977 629.411 649.591 629.051 649.097C628.704 648.604 628.531 647.984 628.531 647.237C628.531 646.411 628.744 645.691 629.171 645.077C629.597 644.451 630.184 643.971 630.931 643.637C631.691 643.304 632.544 643.137 633.491 643.137C634.437 643.137 635.251 643.297 635.931 643.617C636.624 643.924 637.144 644.364 637.491 644.937C637.851 645.497 638.011 646.157 637.971 646.917H635.571C635.624 646.371 635.457 645.917 635.071 645.557C634.684 645.184 634.124 644.997 633.391 644.997C632.617 644.997 631.997 645.177 631.531 645.537C631.077 645.884 630.851 646.357 630.851 646.957C630.851 647.331 630.964 647.657 631.191 647.937C631.431 648.204 631.731 648.437 632.091 648.637C632.451 648.824 632.937 649.051 633.551 649.317C634.377 649.691 635.037 650.024 635.531 650.317C636.037 650.611 636.471 651.011 636.831 651.517C637.191 652.011 637.371 652.624 637.371 653.357C637.371 654.131 637.157 654.824 636.731 655.437C636.304 656.037 635.704 656.511 634.931 656.857C634.157 657.191 633.271 657.357 632.271 657.357ZM644.023 657.397C643.09 657.397 642.27 657.204 641.563 656.817C640.856 656.431 640.303 655.884 639.903 655.177C639.516 654.471 639.323 653.664 639.323 652.757C639.323 651.517 639.61 650.384 640.183 649.357C640.77 648.331 641.57 647.517 642.583 646.917C643.61 646.317 644.75 646.017 646.003 646.017C646.936 646.017 647.763 646.217 648.483 646.617C649.203 647.004 649.763 647.551 650.163 648.257C650.576 648.951 650.783 649.757 650.783 650.677C650.783 651.917 650.483 653.051 649.883 654.077C649.283 655.104 648.47 655.917 647.443 656.517C646.416 657.104 645.276 657.397 644.023 657.397ZM644.303 655.477C645.063 655.477 645.756 655.264 646.383 654.837C647.023 654.397 647.523 653.824 647.883 653.117C648.243 652.397 648.423 651.631 648.423 650.817C648.423 649.897 648.163 649.191 647.643 648.697C647.123 648.191 646.47 647.937 645.683 647.937C644.91 647.937 644.216 648.157 643.603 648.597C643.003 649.024 642.53 649.604 642.183 650.337C641.85 651.057 641.683 651.831 641.683 652.657C641.683 653.551 641.923 654.244 642.403 654.737C642.896 655.231 643.53 655.477 644.303 655.477ZM656.777 657.397C655.844 657.397 655.024 657.204 654.317 656.817C653.61 656.431 653.057 655.884 652.657 655.177C652.27 654.471 652.077 653.664 652.077 652.757C652.077 651.517 652.364 650.384 652.937 649.357C653.524 648.331 654.324 647.517 655.337 646.917C656.364 646.317 657.504 646.017 658.757 646.017C659.69 646.017 660.517 646.217 661.237 646.617C661.957 647.004 662.517 647.551 662.917 648.257C663.33 648.951 663.537 649.757 663.537 650.677C663.537 651.917 663.237 653.051 662.637 654.077C662.037 655.104 661.224 655.917 660.197 656.517C659.17 657.104 658.03 657.397 656.777 657.397ZM657.057 655.477C657.817 655.477 658.51 655.264 659.137 654.837C659.777 654.397 660.277 653.824 660.637 653.117C660.997 652.397 661.177 651.631 661.177 650.817C661.177 649.897 660.917 649.191 660.397 648.697C659.877 648.191 659.224 647.937 658.437 647.937C657.664 647.937 656.97 648.157 656.357 648.597C655.757 649.024 655.284 649.604 654.937 650.337C654.604 651.057 654.437 651.831 654.437 652.657C654.437 653.551 654.677 654.244 655.157 654.737C655.65 655.231 656.284 655.477 657.057 655.477ZM672.251 646.017C673.411 646.017 674.331 646.331 675.011 646.957C675.704 647.571 676.051 648.457 676.051 649.617C676.051 649.911 676.018 650.277 675.951 650.717L674.791 657.217H672.531L673.631 651.057C673.684 650.684 673.711 650.417 673.711 650.257C673.711 649.524 673.504 648.964 673.091 648.577C672.691 648.191 672.131 647.997 671.411 647.997C670.544 647.997 669.811 648.264 669.211 648.797C668.624 649.317 668.251 650.071 668.091 651.057V650.997L666.991 657.217H664.711L666.651 646.197H668.931L668.711 647.477C669.164 647.024 669.698 646.671 670.311 646.417C670.938 646.151 671.584 646.017 672.251 646.017ZM678.599 657.357C678.239 657.357 677.946 657.244 677.719 657.017C677.493 656.791 677.379 656.504 677.379 656.157C677.379 655.691 677.553 655.291 677.899 654.957C678.259 654.611 678.666 654.437 679.119 654.437C679.479 654.437 679.766 654.551 679.979 654.777C680.206 655.004 680.319 655.291 680.319 655.637C680.319 656.104 680.146 656.511 679.799 656.857C679.453 657.191 679.053 657.357 678.599 657.357ZM683.423 657.357C683.063 657.357 682.77 657.244 682.543 657.017C682.317 656.791 682.203 656.504 682.203 656.157C682.203 655.691 682.377 655.291 682.723 654.957C683.083 654.611 683.49 654.437 683.943 654.437C684.303 654.437 684.59 654.551 684.803 654.777C685.03 655.004 685.143 655.291 685.143 655.637C685.143 656.104 684.97 656.511 684.623 656.857C684.277 657.191 683.877 657.357 683.423 657.357ZM688.248 657.357C687.888 657.357 687.594 657.244 687.368 657.017C687.141 656.791 687.028 656.504 687.028 656.157C687.028 655.691 687.201 655.291 687.548 654.957C687.908 654.611 688.314 654.437 688.768 654.437C689.128 654.437 689.414 654.551 689.628 654.777C689.854 655.004 689.968 655.291 689.968 655.637C689.968 656.104 689.794 656.511 689.448 656.857C689.101 657.191 688.701 657.357 688.248 657.357ZM693.072 657.357C692.712 657.357 692.419 657.244 692.192 657.017C691.965 656.791 691.852 656.504 691.852 656.157C691.852 655.691 692.025 655.291 692.372 654.957C692.732 654.611 693.139 654.437 693.592 654.437C693.952 654.437 694.239 654.551 694.452 654.777C694.679 655.004 694.792 655.291 694.792 655.637C694.792 656.104 694.619 656.511 694.272 656.857C693.925 657.191 693.525 657.357 693.072 657.357Z" fill="#C71A1A"/>
<rect x="0.954102" y="771.217" width="385" height="345.333" rx="24" fill="#FFFDFD"/>
<path d="M97.5169 1022.06C97.3499 1022.06 97.1829 1021.93 97.1443 1021.77C97.1015 1021.56 97.2257 1021.39 97.4356 1021.35L100.759 1020.64C100.965 1020.6 101.132 1020.73 101.174 1020.94C101.217 1021.14 101.089 1021.31 100.883 1021.35L97.5598 1022.06C97.5598 1022.06 97.5598 1022.06 97.5169 1022.06Z" fill="white"/>
<path d="M286.106 981.919C285.939 981.919 285.772 981.795 285.734 981.632C285.691 981.423 285.815 981.256 286.025 981.217L289.348 980.51C289.554 980.468 289.721 980.592 289.764 980.802C289.807 981.007 289.683 981.174 289.473 981.217L286.149 981.919C286.192 981.919 286.149 981.919 286.106 981.919Z" fill="white"/>
<path d="M251.117 970.672C250.74 978.81 246.419 985.405 241.061 986.527C240.436 986.651 239.772 986.737 239.108 986.694C232.872 986.403 228.136 978.81 228.551 969.679C228.966 960.548 234.367 953.408 240.603 953.657C241.267 953.7 241.931 953.781 242.556 953.986C247.751 955.605 251.49 962.539 251.117 970.672Z" fill="black"/>
<path d="M251.117 970.673C250.74 978.81 246.419 985.406 241.061 986.528C236.821 984.994 233.87 978.061 234.243 969.927C234.62 961.79 238.149 955.152 242.513 953.987C247.751 955.606 251.49 962.54 251.117 970.673Z" fill="black"/>
<path d="M243.138 981.756C243.095 981.756 243.052 981.756 243.052 981.756C241.725 981.714 240.517 980.386 239.686 978.06C238.898 975.778 238.525 972.75 238.65 969.593C238.774 966.441 239.438 963.452 240.436 961.25C241.476 959.01 242.761 957.807 244.093 957.85C245.421 957.888 246.629 959.216 247.459 961.542C248.247 963.824 248.624 966.856 248.496 970.009C248.372 973.165 247.708 976.15 246.71 978.352C245.712 980.553 244.466 981.756 243.138 981.756ZM244.05 958.098C242.89 958.098 241.682 959.216 240.77 961.336C239.772 963.494 239.146 966.441 239.022 969.55C238.898 972.707 239.232 975.653 240.02 977.893C240.808 980.095 241.892 981.341 243.095 981.422C243.138 981.422 243.138 981.422 243.177 981.422C244.342 981.422 245.549 980.3 246.462 978.185C247.459 976.026 248.08 973.079 248.209 969.966C248.333 966.814 247.999 963.867 247.211 961.623C246.419 959.426 245.339 958.18 244.136 958.098C244.093 958.098 244.05 958.098 244.05 958.098Z" fill="white"/>
<path d="M265.91 949.297V962L214.131 976.775L213.629 976.733L193.393 976.026V965.07L210.764 961.293L265.91 949.297Z" fill="black"/>
<path d="M213.629 961.417V976.733L193.393 976.026V965.07L210.764 961.293L213.629 961.417Z" fill="#260730" fill-opacity="0.31"/>
<path d="M271.978 865.709V955.066L214.712 969.966L159.648 948.012L146.513 902.73C146.307 902.066 214.297 865.709 214.297 865.709H271.978Z" fill="black"/>
<path d="M271.978 878.16V878.618L208.395 882.143L208.352 881.689L271.978 878.16Z" fill="white"/>
<path d="M271.978 882.352V882.767L208.395 886.292L208.352 885.877L271.978 882.352Z" fill="white"/>
<path d="M245.754 898.122C240.85 898.122 236.863 902.109 236.863 907.004V925.39C236.863 930.29 240.85 934.273 245.754 934.273C250.658 934.273 254.649 930.29 254.649 925.39V907.004C254.649 902.109 250.658 898.122 245.754 898.122ZM254.234 925.39C254.234 930.041 250.452 933.819 245.797 933.819C241.141 933.819 237.359 930.041 237.359 925.39V907.004C237.359 902.357 241.141 898.58 245.797 898.58C250.452 898.58 254.234 902.357 254.234 907.004V925.39Z" fill="white"/>
<path d="M142.565 969.966L146.514 902.73C146.308 902.066 146.514 865.709 146.514 865.709H214.298L214.503 969.966H142.565Z" fill="black"/>
<path d="M183.915 886.502H165.507C162.805 886.502 160.561 884.301 160.561 881.564C160.561 878.823 162.762 876.622 165.507 876.622H183.915C186.617 876.622 188.861 878.823 188.861 881.564C188.861 884.301 186.617 886.502 183.915 886.502ZM165.507 877.08C163.015 877.08 161.019 879.114 161.019 881.564C161.019 884.052 163.053 886.044 165.507 886.044H183.915C186.412 886.044 188.403 884.009 188.403 881.564C188.403 879.071 186.369 877.08 183.915 877.08H165.507Z" fill="white"/>
<path d="M202.867 951.374C202.661 975.696 200.914 989.932 200.914 989.932C200.914 989.932 193.517 1001.05 171.534 1002.38C171.534 1002.38 171.41 1002.01 171.324 1002.01L171.2 1002.13C171.157 1002.13 170.994 1000.68 170.908 1000.68C170.908 1000.68 157.238 982.544 156.116 982.458C145.725 981.88 130.971 991.842 120.834 987.067C120.834 987.067 111.604 968.638 114.058 949.631C114.392 947.057 107.99 942.157 107.99 942.157C108.572 939.793 109.279 937.635 110.11 935.849C110.234 935.6 110.358 935.352 110.444 935.103L134.132 921.034L127.772 903.728C128.56 902.897 129.352 902.19 130.14 901.65C130.35 901.483 130.513 901.359 130.723 901.278C131.138 900.987 131.596 900.781 132.012 900.571C139.451 897.29 151.542 893.556 171.491 896.627C176.228 897.376 180.134 898.164 183.376 898.995C183.667 899.076 183.958 899.162 184.207 899.201C190.485 900.905 194.014 902.563 195.762 903.561C196.053 903.728 196.258 903.852 196.468 903.976C196.965 904.267 197.175 904.473 197.175 904.473C197.175 904.473 203.115 927.052 202.867 951.374Z" fill="black"/>
<path d="M172.197 961.417L171.285 1002.38C171.075 1002.38 170.287 1002.34 168.955 1002.26C158.565 1001.68 117.214 999.063 107.077 994.288C107.077 994.288 104.25 968.39 106.7 949.34C107.034 946.766 107.449 944.316 107.989 942.119C113.351 941.579 122.868 941.412 137.121 943.738C161.057 947.721 172.197 961.417 172.197 961.417Z" fill="white"/>
<path d="M196.51 903.976L176.269 904.225C176.269 904.225 176.102 904.225 175.73 904.225C175.606 904.225 175.439 904.225 175.229 904.225C173.194 904.182 167.79 904.015 156.363 903.351C145.643 902.73 135.416 901.985 130.182 901.608C130.388 901.445 130.555 901.321 130.765 901.235C136.165 901.651 146.059 902.357 156.406 902.936C168.333 903.604 173.691 903.766 175.52 903.809C175.768 903.809 175.935 903.809 176.06 903.809H176.269L195.803 903.561C196.09 903.728 196.3 903.891 196.51 903.976Z" fill="black"/>
<path d="M184.248 899.201C179.345 900.323 176.89 902.773 176.06 903.809C175.897 904.015 175.811 904.139 175.768 904.225C175.73 904.267 175.73 904.306 175.73 904.306C175.606 905.886 172.86 941.494 172.612 958.638C172.364 974.077 171.738 997.029 171.614 1002.34C171.533 1002.34 171.447 1002.34 171.366 1002.34C171.366 1002.34 171.366 1002.34 171.323 1002.34C171.284 1002.34 171.241 1002.34 171.156 1002.34C171.323 997.072 171.905 974.077 172.154 958.595C172.445 941.121 175.272 904.554 175.314 904.182L175.353 904.1C175.353 904.1 175.439 903.976 175.606 903.766C176.312 902.854 178.556 900.242 183.499 898.91C183.666 899.034 183.957 899.12 184.248 899.201Z" fill="black"/>
<path d="M168.082 939.297C168.082 939.297 162.433 939.502 142.025 938.423C126.817 937.592 115.305 935.892 110.444 935.061C116.508 922.195 122.037 909.745 127.815 903.685C136.252 903.933 155.199 904.764 164.51 907.214C176.729 910.409 168.082 939.297 168.082 939.297Z" fill="white"/>
<path d="M176.022 942.158L178.763 908.294C178.849 907.42 179.555 906.756 180.386 906.756L192.811 906.384C193.642 906.341 194.348 906.923 194.515 907.754L200.417 939.837L176.022 942.158Z" fill="white"/>
<path d="M193.89 948.055L193.933 948.385C193.976 949.134 194.683 949.712 195.428 949.588L199.334 949.006C200.002 948.924 200.499 948.303 200.456 947.64C200.417 946.933 199.792 946.35 199.042 946.436L195.098 946.685C194.391 946.723 193.847 947.348 193.89 948.055Z" fill="black"/>
<path d="M136.333 993.834C136.333 1004.79 130.097 1013.88 121.955 1015.71C120.996 1015.91 119.96 1016.04 118.962 1016.04C109.36 1016.04 101.548 1006.08 101.548 993.834C101.548 981.589 109.321 971.627 118.962 971.627C119.998 971.627 120.996 971.752 121.955 971.962C130.14 973.786 136.333 982.917 136.333 993.834Z" fill="black"/>
<path d="M136.332 993.834C136.332 1004.79 130.096 1013.88 121.955 1015.71C115.346 1013.92 110.318 1004.79 110.318 993.834C110.318 982.874 115.346 973.786 121.955 971.961C130.139 973.786 136.332 982.917 136.332 993.834Z" fill="black"/>
<path d="M124.696 1009.19C120.542 1009.19 117.133 1001.97 117.133 993.084C117.133 984.202 120.542 976.981 124.696 976.981C128.851 976.981 132.26 984.202 132.26 993.084C132.26 1001.97 128.851 1009.19 124.696 1009.19ZM124.696 977.439C120.748 977.439 117.548 984.454 117.548 993.084C117.548 1001.72 120.748 1008.73 124.696 1008.73C128.645 1008.73 131.844 1001.72 131.844 993.084C131.844 984.454 128.645 977.439 124.696 977.439Z" fill="white"/>
<path d="M137.746 994.789C137.66 995.492 136.748 995.783 136.29 995.243C134.671 993.419 132.508 991.967 130.183 991.175C127.232 990.181 123.908 990.224 120.996 991.342C118.713 992.215 116.675 993.667 114.516 994.789C112.31 995.907 109.612 996.49 107.158 996.49L105.788 996.156L105.372 996.074L101.591 995.201C100.22 994.871 99.2607 993.667 99.2222 992.297C99.1365 988.644 99.1365 985.2 100.55 981.714C102.254 977.44 105.124 973.577 108.944 971.007C111.313 969.427 114.015 968.39 116.842 967.893C119.167 967.478 121.578 967.435 123.865 967.975C126.859 968.724 129.519 970.506 131.677 972.75C131.844 972.913 131.969 973.08 132.136 973.247C132.384 973.538 132.632 973.786 132.842 974.078C134.213 975.821 135.378 977.769 136.251 979.804C138.204 984.579 138.367 989.684 137.746 994.789Z" fill="black"/>
<path d="M132.092 973.247C129.227 972.75 126.152 972.913 123.24 973.829C118.67 975.238 114.473 978.395 111.398 982.669C108.695 986.403 106.828 990.926 105.787 996.155L105.372 996.074C106.408 990.802 108.323 986.198 111.025 982.42C114.182 978.06 118.46 974.866 123.115 973.414C125.899 972.54 128.85 972.334 131.634 972.707C131.801 972.913 131.925 973.08 132.092 973.247Z" fill="black"/>
<path d="M141.193 953.533C141.193 953.533 147.468 950.916 152.414 957.974C153.121 958.968 153.207 960.214 152.663 961.293C151.502 963.658 148.633 967.478 142.191 967.521C142.191 967.521 134.255 964.655 141.193 953.533Z" fill="black"/>
<path d="M146.722 960.381C146.722 964.321 144.808 967.559 142.44 967.559C140.071 967.559 138.161 964.364 138.161 960.381C138.161 956.394 140.071 953.199 142.44 953.199C144.808 953.199 146.722 956.437 146.722 960.381Z" fill="black"/>
<path d="M105.87 951.79C105.87 951.79 112.273 949.135 117.258 956.394C117.84 957.268 117.922 958.39 117.468 959.302C116.384 961.623 113.519 965.653 106.868 965.735C106.91 965.778 98.9316 962.912 105.87 951.79Z" fill="black"/>
<path d="M111.44 958.638C111.44 962.578 109.526 965.816 107.158 965.816C104.789 965.816 102.879 962.621 102.879 958.638C102.879 954.651 104.789 951.456 107.158 951.456C109.526 951.456 111.44 954.693 111.44 958.638Z" fill="black"/>
<path d="M164.714 995.286H158.483C156.988 995.286 155.738 994.04 155.738 992.545C155.738 991.05 156.988 989.808 158.483 989.808H164.714C166.213 989.808 167.46 991.05 167.46 992.545C167.46 994.04 166.213 995.286 164.714 995.286Z" fill="black"/>
<path d="M175.812 943.237C175.731 943.237 175.607 943.199 175.564 943.113C175.483 942.95 175.521 942.783 175.645 942.659L190.442 932.697C190.609 932.611 190.772 932.654 190.901 932.778C190.982 932.946 190.939 933.113 190.815 933.237L176.022 943.199C175.937 943.237 175.855 943.237 175.812 943.237Z" fill="black"/>
<path d="M194.639 936.101H190.523C188.943 936.101 187.658 934.812 187.658 933.236C187.658 931.66 188.943 930.371 190.523 930.371H194.639C196.219 930.371 197.504 931.66 197.504 933.236C197.504 934.812 196.219 936.101 194.639 936.101Z" fill="black"/>
<ellipse cx="124.424" cy="997.161" rx="8.37402" ry="12.0269" fill="white"/>
<path d="M249.091 969.381C249.091 976.05 246.138 982.203 242.459 982.203C238.78 982.203 235.198 976.723 235.198 970.055C239.511 969.676 236.858 970.055 240.912 969.013C249.976 967.17 249.091 964.001 249.091 969.381Z" fill="white"/>
<path d="M212.467 869.288V967.576M212.467 967.576L271.978 953.754M212.467 967.576H204.021V942.62C204.021 942.62 202.849 906.878 196.441 901.144C190.033 895.41 155.215 894.355 145.732 896.391" stroke="white"/>
<path d="M140.053 994.32L173.07 1002.38" stroke="black"/>
<path d="M129.699 903.791C123.521 911.161 111.421 927.769 112.443 935.233L110.015 942.135C108.225 943.328 104.658 954.642 104.76 962.822C104.863 971.003 105.84 972.215 106.309 975.24" stroke="black"/>
<path d="M99.6924 994.556C103.86 996.379 112.976 998.459 112.976 996.118C112.976 992.134 117.273 981.663 124.695 983.617" stroke="white"/>
<ellipse cx="142.835" cy="960.354" rx="3.88672" ry="6.27759" fill="white"/>
<ellipse cx="107.989" cy="958.635" rx="3.88672" ry="6.27759" fill="white"/>
<rect x="425.954" y="771.217" width="385" height="345.333" rx="24" fill="#FFFDFD"/>
<g clip-path="url(#clip4_1_529)">
<path d="M606.679 875.251C605.712 875.866 605.975 876.833 607.997 880.523L610.457 885.093L615.027 884.917C619.069 884.742 619.86 885.005 622.497 887.466C624.166 889.048 625.748 890.278 626.187 890.278C627.418 890.278 626.803 894.584 625.309 895.375C624.078 896.166 624.078 896.254 625.748 896.781C626.803 897.132 627.681 897.747 627.681 898.099C627.681 898.45 628.56 898.714 629.702 898.802C631.812 898.978 640.16 902.669 639.633 903.196C639.457 903.46 637.611 902.757 635.502 901.79C631.109 899.681 629.439 899.505 629.439 901.175C629.439 901.79 628.912 902.844 628.209 903.372C627.154 904.25 627.242 904.953 629.087 907.59C631.372 911.017 631.636 912.335 630.318 913.653C629.79 914.181 630.933 918.575 633.393 925.868C638.49 940.808 638.578 944.235 633.921 955.395C631.987 959.965 629.878 965.062 629.175 966.819L627.857 970.071L624.342 969.104C621.706 968.401 620.651 967.61 620.212 966.116C619.948 964.886 619.333 964.271 618.718 964.622C618.19 964.974 618.015 964.886 618.278 964.359C618.63 963.832 618.454 961.195 617.839 958.383C617.312 955.659 616.609 953.814 616.345 954.341C615.994 954.868 615.73 952.759 615.818 949.683C615.818 946.608 616.081 944.235 616.345 944.411C616.697 944.586 617.4 943.62 618.015 942.214C618.542 940.808 619.597 939.402 620.3 939.138C621.003 938.874 621.53 937.556 621.53 936.238C621.53 934.656 621.266 934.129 620.827 934.92C620.3 935.623 619.684 934.305 618.894 931.141C618.278 928.417 617.4 926.044 616.96 925.78C616.609 925.517 616.257 924.814 616.257 924.287C616.345 922.793 618.278 926.22 619.421 929.823C620.036 931.493 620.475 932.196 620.563 931.317C620.739 928.944 617.224 921.738 616.169 922.353C615.73 922.705 615.466 922.441 615.554 921.738C615.73 921.123 615.115 920.684 614.324 920.684C613.445 920.771 613.006 920.508 613.269 920.068C613.533 919.629 613.006 919.278 612.127 919.278C606.151 919.278 595.518 917.344 593.145 915.85C589.894 913.917 570.649 909.084 563.618 908.469C555.094 907.766 553.864 909.172 557.818 915.059C559.049 916.817 560.015 918.487 560.015 918.75C560.015 919.014 558.258 920.42 556.061 921.914C551.667 924.902 547.712 930.174 547.712 932.899C547.712 933.865 548.503 935.623 549.382 936.765C550.964 938.874 550.964 938.962 549.294 941.686C548.416 943.268 547.8 945.729 547.888 947.135C548.064 949.947 546.219 955.307 544.988 955.307C544.549 955.307 544.197 955.747 544.197 956.186C544.197 956.713 545.516 957.065 547.097 956.977C548.943 956.889 551.667 957.856 555.182 959.877C558.082 961.547 562.388 964.095 564.673 965.413C567.309 966.819 568.627 968.138 568.188 968.577C567.661 969.104 563.97 967.522 558.697 964.535C550.437 959.789 547.712 959.174 547.712 961.723C547.712 963.216 571.088 974.816 573.461 974.465C574.427 974.289 575.746 973.41 576.361 972.444C577.327 970.95 577.327 970.247 576.273 968.225C575.13 966.029 575.921 964.71 577.152 966.732C577.503 967.259 578.03 967.435 578.47 967.171C578.909 966.907 580.052 967.962 581.106 969.544L583.039 972.444L580.755 969.807L578.47 967.171V969.632C578.47 971.038 578.118 972.795 577.591 973.674C576.888 975.08 577.239 975.344 580.139 975.871C582.073 976.134 584.358 976.662 585.236 976.925C586.554 977.365 586.467 977.101 584.885 975.695C583.742 974.728 582.864 973.586 582.864 973.235C582.864 972.883 584.358 974.025 586.291 975.871C589.015 978.507 591.124 979.562 597.451 981.319C613.709 985.801 621.618 987.119 628.121 986.592C633.921 986.065 640.072 984.483 641.39 983.165C642.884 981.671 643.499 982.901 643.499 987.383C643.499 993.446 646.839 1002.06 650.793 1006.1C652.287 1007.68 655.363 1010.06 657.56 1011.37C662.92 1014.45 672.85 1014.71 678.299 1011.81C682.781 1009.44 687.965 1003.73 690.338 998.455C693.238 992.216 692.975 980.265 689.811 973.674C686.911 967.698 686.911 967.61 689.635 967.61C692.447 967.61 692.359 967.347 689.196 962.25C685.856 957.153 678.563 950.211 675.311 949.068C673.114 948.277 672.938 947.926 672.938 943.18C672.85 939.05 672.323 937.029 669.423 931.58C665.117 923.671 650.442 907.853 647.278 907.853C646.224 907.853 644.905 907.063 644.378 906.096C643.851 905.129 642.796 904.338 642.005 904.338C641.214 904.338 640.775 904.163 640.951 903.899C641.214 903.723 642.884 903.723 644.73 904.075C647.014 904.426 647.63 904.866 646.839 905.305C645.96 905.92 645.96 906.096 647.102 906.096C649.387 906.096 649.739 905.041 647.981 903.108C646.048 900.999 644.993 894.144 646.224 891.86C646.927 890.541 646.751 890.278 645.257 890.278C644.29 890.278 643.499 889.926 643.499 889.487C643.499 888.696 633.657 890.717 631.109 892.035C629.966 892.651 628.472 891.596 624.078 886.938C621.003 883.687 618.015 880.26 617.4 879.293C616.433 877.711 616.345 877.711 616.872 879.205C617.136 880.084 617.048 880.699 616.609 880.436C616.169 880.26 613.972 879.205 611.688 878.151C609.315 877.008 607.469 875.954 607.469 875.602C607.469 875.075 612.478 875.69 614.939 876.569C616.081 877.008 615.906 876.745 614.5 875.866C612.039 874.372 608.524 874.108 606.679 875.251ZM648.596 909.172C648.684 909.259 646.575 909.347 643.763 909.347C639.896 909.347 639.281 909.172 641.302 908.732C643.499 908.205 647.717 908.469 648.596 909.172ZM567.221 911.544C568.979 912.423 571 913.126 571.615 913.214C572.406 913.214 572.406 913.39 571.703 913.653C571.176 913.917 568.979 913.302 566.958 912.335C564.937 911.281 563.091 910.666 562.827 910.841C561.597 912.072 564.497 914.972 570.736 918.838C574.691 921.211 579.436 924.111 581.282 925.253L584.533 927.274L582.424 923.496C581.194 921.387 580.227 918.838 580.227 917.696C580.227 916.29 579.7 915.762 578.294 915.762C577.152 915.762 575.658 915.323 574.955 914.796C573.988 914.093 574.339 914.005 576.624 914.356C578.206 914.62 581.985 914.972 584.973 915.059C589.894 915.147 589.982 915.235 586.203 915.499C583.83 915.675 581.985 916.202 581.985 916.553C581.985 917.168 588.048 918.487 596.045 919.629C597.276 919.805 596.221 919.981 593.76 920.068C591.3 920.068 587.433 919.629 585.236 918.926C580.227 917.432 579.964 918.135 583.742 923.847C587.17 928.944 588.488 930.087 594.288 932.196C604.482 936.062 606.151 936.765 604.833 936.765C600.966 936.853 589.191 931.493 577.591 924.287C559.4 912.95 556.5 911.017 556.5 910.314C556.5 908.996 563.794 909.875 567.221 911.544ZM641.127 912.775C644.027 914.268 651.848 919.717 659.757 925.605C662.217 927.45 664.414 928.944 664.766 928.944C665.557 928.944 660.723 921.65 658.878 920.156C658.087 919.541 656.681 917.784 655.714 916.29C654.66 914.796 656.066 915.938 658.79 918.838C663.799 924.199 667.929 930.614 668.457 933.602C668.544 934.48 669.247 935.623 669.951 936.062C670.654 936.502 670.829 936.853 670.478 936.853C670.038 936.853 670.39 937.732 671.093 938.786C672.85 941.335 672.85 943.005 671.181 943.005C668.017 943.005 664.414 940.017 659.669 933.514C656.945 929.823 653.254 925.253 651.496 923.408C648.069 919.717 639.457 912.862 637.348 911.984C636.469 911.632 636.381 911.456 637.172 911.456C637.787 911.369 639.545 911.984 641.127 912.775ZM636.205 913.302C642.796 916.202 654.748 927.89 662.657 939.226C665.117 942.741 665.117 943.005 662.305 943.005C653.429 943.005 649.036 947.486 634.712 970.686C628.824 980.089 628.033 980.792 623.375 980.616L619.333 980.528L622.936 980.177C626.451 979.825 626.451 979.825 632.954 968.665C636.557 962.513 641.478 954.341 644.027 950.474C651.057 939.753 651.145 939.402 648.772 934.92C647.717 932.811 645.169 929.208 643.148 926.835C641.214 924.374 640.16 922.793 640.863 923.232C643.411 924.726 647.454 927.626 651.848 931.053L656.242 934.568L652.726 930.79C646.399 923.935 636.381 914.444 634.448 913.39C631.899 911.984 633.042 911.984 636.205 913.302ZM561.773 916.465C561.773 916.905 563.355 918.047 565.288 919.19C568.979 921.211 569.594 921.914 567.661 921.914C566.079 921.914 559.224 915.85 560.718 915.762C561.246 915.762 561.773 916.114 561.773 916.465ZM562.652 920.859C562.652 921.211 561.158 921.914 559.4 922.529L556.149 923.496L558.258 921.826C560.543 920.156 562.652 919.629 562.652 920.859ZM606.854 920.771C605.712 920.947 603.954 920.947 602.9 920.771C601.757 920.596 602.636 920.42 604.833 920.42C607.03 920.42 607.909 920.596 606.854 920.771ZM573.109 925.868C583.127 928.241 592.442 934.832 598.242 943.532C600 946.168 601.318 948.541 601.142 948.717C601.054 948.892 598.682 947.047 596.045 944.674C584.797 934.568 571.352 928.768 559.576 928.856C552.809 928.944 552.634 928.856 555.182 927.626C556.676 926.923 559.84 926.044 562.212 925.517C564.673 925.077 566.782 924.726 567.046 924.638C567.309 924.638 570.033 925.165 573.109 925.868ZM613.181 937.732L615.818 938.435H613.181C611.775 938.435 609.754 938.171 608.788 937.732L607.03 936.941L608.788 937.029C609.754 937.029 611.775 937.38 613.181 937.732ZM574.867 960.492L578.558 965.853L575.218 963.919C570.912 961.459 570.561 961.107 573.109 961.898C574.691 962.338 575.042 962.25 574.515 961.371C573.021 958.647 570.209 956.274 569.33 956.801C568.803 957.065 568.627 956.977 569.067 956.626C569.946 955.571 565.288 950.914 563.355 950.914C562.476 950.914 560.631 951.704 559.312 952.583C557.994 953.462 555.358 954.517 553.425 954.78C551.052 955.132 550.349 954.956 551.228 954.429C551.931 953.989 553.249 953.55 554.128 953.55C554.918 953.55 555.622 953.198 555.622 952.759C555.622 952.32 557.028 951.089 558.785 950.035C561.773 948.101 561.861 948.014 560.279 946.256C559.4 945.201 561.509 946.783 564.937 949.771C568.276 952.759 572.758 957.592 574.867 960.492ZM673.026 950.035C678.563 952.759 685.241 958.471 689.02 963.832C690.953 966.556 690.953 966.732 689.459 966.732C688.493 966.732 686.208 965.15 684.362 963.129C679.266 957.856 670.566 951.88 665.381 950.035C662.042 948.892 661.251 948.365 662.481 948.014C665.908 947.135 667.578 947.486 673.026 950.035ZM562.652 956.626C565.112 957.856 567.046 959.086 567.046 959.262C567.046 959.701 558.346 955.571 557.467 954.78C556.412 953.814 558.785 954.692 562.652 956.626ZM564.409 960.316C571.791 964.095 573.9 965.501 572.494 965.677C570.736 965.941 565.991 963.832 554.567 957.768C552.458 956.626 552.106 955.307 553.776 955.307C554.04 955.307 558.873 957.592 564.409 960.316ZM582.688 958.647C585.148 959.438 587.258 960.404 587.258 960.844C587.258 961.283 589.103 964.359 591.3 967.786C594.903 973.41 595.079 973.938 593.233 973.41C592.091 973.059 590.157 972.619 588.839 972.356C587.258 972.004 585.324 970.071 582.776 966.38C580.755 963.48 578.03 959.877 576.8 958.471C574.867 956.274 574.779 956.01 576.273 956.538C577.239 956.889 580.139 957.856 582.688 958.647ZM675.135 969.807C682.078 974.201 685.593 985.274 683.044 994.677C680.584 1003.82 670.038 1010.32 661.778 1007.86C656.857 1006.45 650.442 1000.04 648.948 995.204C646.487 986.768 648.42 976.837 653.605 972.004C655.451 970.247 655.802 970.159 656.329 971.389C656.593 972.18 655.89 974.025 654.66 975.695C649.827 982.198 649.299 989.404 652.99 996.698C654.836 1000.39 656.242 1001.88 659.317 1003.46C664.238 1006.01 670.39 1005.66 674.169 1002.59C677.684 999.774 681.287 994.062 681.199 991.337C681.111 989.404 681.023 989.492 680.232 992.128C678.387 998.631 675.223 1001 673.29 997.401C672.499 995.907 672.675 994.94 673.905 992.568C675.399 989.843 679.617 987.295 680.759 988.437C681.023 988.789 681.287 987.559 681.287 985.713C681.287 981.671 678.65 976.398 675.135 973.41C671.796 970.598 669.072 969.895 664.502 970.51C662.657 970.774 661.075 970.862 661.075 970.686C661.075 970.51 660.811 969.807 660.548 969.016C660.108 967.786 660.899 967.61 665.82 967.61C670.478 967.61 672.323 968.05 675.135 969.807ZM671.884 973.674L674.344 975.256L672.587 977.365C671.62 978.507 670.829 979.034 670.741 978.507C670.741 978.068 671.269 977.101 671.884 976.398C672.411 975.695 672.147 975.783 671.093 976.662C670.126 977.453 668.105 978.156 666.611 978.156C664.414 978.156 663.711 977.716 663.008 975.607C662.305 973.674 662.393 972.883 663.096 972.531C665.469 971.653 669.599 972.092 671.884 973.674ZM604.13 975.519C610.281 977.189 612.391 978.156 610.018 978.156C608.348 978.156 595.342 973.938 596.748 973.85C597.363 973.762 600.615 974.553 604.13 975.519ZM679.266 980.528C680.847 984.395 680.759 985.186 678.475 985.274C676.541 985.362 676.541 985.362 678.65 985.977C680.584 986.504 680.672 986.68 679.266 987.207C676.19 988.349 675.135 987.91 675.135 985.362C675.135 984.043 674.52 982.286 673.817 981.319C672.763 979.913 672.763 979.386 673.993 977.628C675.135 975.871 675.575 975.695 676.717 976.574C677.42 977.189 678.563 978.947 679.266 980.528ZM617.575 979.034C619.157 979.737 619.157 979.825 617.136 979.825C615.906 979.825 614.148 979.474 613.181 979.034C611.6 978.331 611.6 978.244 613.621 978.244C614.851 978.244 616.609 978.595 617.575 979.034ZM658.878 987.998C659.229 995.116 656.593 997.313 654.836 991.513C654.133 989.053 654.133 987.207 654.923 984.395C655.89 980.88 656.066 980.704 657.296 981.934C658.175 982.813 658.79 985.098 658.878 987.998ZM669.599 983.077C673.554 987.031 671.093 993.974 665.732 993.974C664.59 993.974 663.711 993.534 663.711 993.095C663.711 992.568 664.678 992.216 665.908 992.216C667.226 992.216 668.632 991.425 669.511 990.107C670.654 988.262 670.741 987.559 669.687 985.537C668.281 982.55 666.611 981.934 666.172 984.043C665.908 985.186 665.645 984.922 665.293 983.165C664.678 980.089 666.523 980.001 669.599 983.077ZM666.348 986.943C666.348 988.437 663.711 989.053 662.569 987.822C661.778 986.943 661.778 986.856 662.569 987.295C663.096 987.559 663.799 987.471 664.151 986.943C664.854 985.801 666.348 985.801 666.348 986.943ZM667.49 996.61C669.687 997.049 670.741 996.962 670.741 996.258C670.741 995.731 671.357 996.083 672.06 996.962C672.763 997.928 673.378 999.334 673.378 1000.04C673.29 1001.18 673.026 1001.09 671.972 999.686C670.566 997.928 670.566 997.928 671.181 999.861C671.708 1001.71 671.444 1001.88 668.369 1001.88C665.205 1001.88 659.317 999.158 659.317 997.665C659.317 996.258 661.514 994.852 662.832 995.38C663.535 995.731 665.645 996.258 667.49 996.61Z" fill="black"/>
<path d="M648.157 877.36C647.542 878.678 646.663 879.732 646.136 879.732C645.696 879.732 645.257 880.699 645.257 881.929C645.257 884.653 647.454 884.829 648.772 882.369C649.299 881.314 649.651 879.293 649.475 877.711L649.211 874.899L648.157 877.36Z" fill="black"/>
<path d="M647.015 893.002C646.4 893.969 646.224 895.023 646.4 895.287C646.663 895.463 647.103 894.848 647.454 893.881C647.718 892.914 648.86 891.948 649.915 891.772L651.848 891.42L649.915 891.245C648.772 891.245 647.542 891.86 647.015 893.002Z" fill="black"/>
<path d="M651.057 896.166C651.848 899.505 652.288 899.857 652.288 897.045C652.288 895.814 651.848 894.496 651.409 894.233C650.794 893.881 650.706 894.496 651.057 896.166Z" fill="black"/>
<path d="M620.475 896.429C620.299 896.957 617.487 898.011 614.236 898.714C609.578 899.769 608.348 900.472 608.348 901.702C608.348 903.811 609.578 904.163 615.817 903.723L621.09 903.372L618.629 905.217C617.311 906.272 616.52 907.502 616.784 907.941C617.048 908.381 618.454 907.766 619.948 906.535C622.496 904.426 625.66 903.46 624.605 905.217C624.342 905.657 624.517 906.096 624.957 906.096C625.484 906.096 625.923 905.657 625.923 905.129C625.923 904.514 626.538 903.635 627.329 903.02C628.472 902.229 628.56 901.614 627.769 900.12C627.242 899.154 626.011 898.011 625.045 897.748C624.078 897.484 623.287 896.781 623.287 896.342C623.287 895.287 620.914 895.287 620.475 896.429Z" fill="black"/>
<path d="M652.111 902.932C649.914 904.602 650.09 904.778 654.045 904.778C655.978 904.866 657.56 904.514 657.56 904.163C657.56 903.811 656.769 903.46 655.89 903.46C654.923 903.46 654.045 903.108 653.869 902.669C653.781 902.229 652.902 902.317 652.111 902.932Z" fill="black"/>
<path d="M547.448 958.647C545.603 960.668 545.515 963.568 547.361 964.974C548.503 966.028 548.591 965.853 547.624 963.832C546.745 961.898 546.833 961.107 548.064 959.262C549.733 956.713 549.47 956.362 547.448 958.647Z" fill="black"/>
<path d="M549.47 970.51C549.47 976.31 553.337 984.658 557.818 988.613C567.134 996.786 581.018 993.973 586.379 982.901C587.433 980.704 588.224 978.859 588.048 978.683C587.873 978.507 585.852 978.068 583.567 977.804C579.7 977.189 579.349 977.277 578.909 979.298C578.206 982.11 573.549 986.416 570.033 987.558C564.937 989.316 558.697 985.889 555.534 979.737C553.249 975.256 552.194 968.05 553.952 968.665C554.655 968.928 555.358 970.598 555.622 972.531C556.325 977.804 559.137 981.846 563.355 984.043C566.782 985.713 567.485 985.801 570.385 984.834C573.461 983.78 577.591 979.21 577.591 976.925C577.591 976.398 576.712 977.365 575.746 979.034C573.812 982.11 573.812 982.11 572.933 980.089C572.23 978.507 572.318 977.804 573.285 977.189C574.252 976.574 574.076 976.398 572.582 976.398C571.44 976.398 567.924 974.992 564.673 973.322C561.509 971.565 558.258 970.422 557.643 970.598C556.94 970.862 556.588 970.774 556.852 970.422C557.203 969.807 551.14 965.853 549.822 965.853C549.646 965.853 549.47 967.962 549.47 970.51ZM561.158 974.904C560.806 975.431 560.279 975.08 559.928 974.113C558.873 971.389 559.137 970.598 560.455 972.356C561.158 973.234 561.421 974.465 561.158 974.904ZM568.012 978.155C568.979 978.155 569.682 978.771 569.77 979.649C569.77 981.055 569.858 981.055 570.473 979.562C571.088 977.892 571.176 977.892 571.791 979.474C573.021 982.813 567.749 983.604 564.058 980.704C562.212 979.21 561.861 978.595 562.828 978.068C563.443 977.628 564.497 977.452 565.112 977.716C565.815 977.98 567.046 978.155 568.012 978.155Z" fill="black"/>
</g>
<defs>
<clipPath id="clip0_1_529">
<rect width="206.167" height="178.414" fill="white" transform="translate(90.3704 56.01)"/>
</clipPath>
<clipPath id="clip1_1_529">
<rect width="190.243" height="196.219" fill="white" transform="translate(523.333 75.1074)"/>
</clipPath>
<clipPath id="clip2_1_529">
<rect width="230.929" height="215.934" fill="white" transform="translate(77.9896 422.584)"/>
</clipPath>
<clipPath id="clip3_1_529">
<rect width="202.231" height="175.333" fill="white" transform="translate(517.339 442.884)"/>
</clipPath>
<clipPath id="clip4_1_529">
<rect width="148.513" height="140.604" fill="white" transform="translate(544.197 873.581)"/>
</clipPath>
</defs>
</svg>
