<svg width="724" height="340" viewBox="0 0 724 340" fill="none" xmlns="http://www.w3.org/2000/svg">
<path d="M1.83008 1.05078C1.83008 0.636568 1.49429 0.300781 1.08008 0.300781C0.665865 0.300781 0.330078 0.636568 0.330078 1.05078H1.83008ZM275.205 122.212L274.74 121.624L275.205 122.212ZM387.01 338.536V339.286V338.536ZM722.869 196.733C722.855 196.319 722.508 195.995 722.094 196.009L715.348 196.236C714.934 196.25 714.609 196.597 714.623 197.011C714.637 197.425 714.984 197.749 715.398 197.736L721.395 197.533L721.597 203.53C721.611 203.944 721.958 204.268 722.372 204.254C722.786 204.24 723.11 203.893 723.096 203.479L722.869 196.733ZM0.462022 10.4209C0.473759 10.8349 0.818925 11.161 1.23297 11.1493C1.64702 11.1376 1.97316 10.7924 1.96142 10.3784L0.462022 10.4209ZM3.00235 28.5525C2.96645 28.1399 2.60282 27.8345 2.19017 27.8704C1.77751 27.9063 1.4721 28.2699 1.508 28.6826L3.00235 28.5525ZM3.68249 47.0182C3.74439 47.4278 4.12659 47.7096 4.53615 47.6477C4.94571 47.5858 5.22755 47.2036 5.16564 46.7941L3.68249 47.0182ZM8.51285 64.8438C8.4235 64.4393 8.0232 64.1839 7.61873 64.2732C7.21427 64.3625 6.95881 64.7629 7.04815 65.1673L8.51285 64.8438ZM11.6491 82.9884C11.7669 83.3855 12.1844 83.6118 12.5815 83.494C12.9786 83.3761 13.2049 82.9586 13.0871 82.5616L11.6491 82.9884ZM18.9315 99.8748C18.7843 99.4876 18.3512 99.293 17.964 99.4401C17.5768 99.5872 17.3822 100.02 17.5293 100.408L18.9315 99.8748ZM24.7168 117.329C24.8935 117.704 25.3404 117.864 25.7151 117.688C26.0897 117.511 26.2502 117.064 26.0736 116.689L24.7168 117.329ZM34.5234 132.905C34.3174 132.545 33.8591 132.421 33.4997 132.627C33.1404 132.833 33.016 133.291 33.222 133.65L34.5234 132.905ZM43.0379 149.271C43.2724 149.612 43.7393 149.699 44.0807 149.464C44.4222 149.23 44.5089 148.763 44.2744 148.422L43.0379 149.271ZM55.2504 163.081C54.9887 162.759 54.5163 162.711 54.1952 162.973C53.8741 163.234 53.8258 163.707 54.0874 164.028L55.2504 163.081ZM66.3005 177.829C66.5874 178.128 67.0622 178.137 67.3609 177.851C67.6597 177.564 67.6693 177.089 67.3824 176.79L66.3005 177.829ZM80.584 189.471C80.274 189.196 79.8 189.224 79.5253 189.535C79.2506 189.845 79.2792 190.319 79.5892 190.593L80.584 189.471ZM93.854 202.255C94.1848 202.504 94.655 202.438 94.9043 202.107C95.1536 201.776 95.0875 201.306 94.7567 201.057L93.854 202.255ZM109.796 211.497C109.447 211.274 108.983 211.376 108.76 211.725C108.537 212.074 108.64 212.538 108.989 212.761L109.796 211.497ZM124.886 222.073C125.251 222.268 125.706 222.131 125.902 221.766C126.097 221.4 125.96 220.946 125.595 220.75L124.886 222.073ZM142.049 228.785C141.67 228.617 141.227 228.788 141.059 229.167C140.891 229.546 141.063 229.989 141.441 230.157L142.049 228.785ZM158.553 236.983C158.943 237.122 159.372 236.919 159.511 236.529C159.65 236.139 159.446 235.71 159.056 235.57L158.553 236.983ZM176.519 241.074C176.12 240.965 175.707 241.2 175.597 241.599C175.488 241.998 175.722 242.411 176.122 242.521L176.519 241.074ZM194.053 246.729C194.46 246.809 194.853 246.543 194.933 246.137C195.012 245.73 194.747 245.337 194.34 245.257L194.053 246.729ZM212.419 248.065C212.008 248.018 211.636 248.313 211.588 248.724C211.541 249.136 211.836 249.508 212.247 249.555L212.419 248.065ZM230.633 250.927C231.047 250.94 231.394 250.616 231.408 250.202C231.422 249.788 231.097 249.441 230.683 249.427L230.633 250.927ZM249.009 249.235C248.596 249.258 248.279 249.612 248.302 250.026C248.325 250.439 248.679 250.756 249.092 250.733L249.009 249.235ZM267.452 248.828C267.861 248.765 268.142 248.382 268.078 247.973C268.015 247.563 267.632 247.283 267.223 247.346L267.452 248.828ZM285.102 243.576C284.702 243.684 284.466 244.097 284.574 244.496C284.683 244.896 285.095 245.132 285.495 245.024L285.102 243.576ZM302.914 239.078C303.296 238.918 303.476 238.479 303.316 238.097C303.156 237.715 302.717 237.535 302.335 237.695L302.914 239.078ZM318.609 229.35C318.257 229.569 318.15 230.031 318.368 230.383C318.587 230.735 319.049 230.842 319.401 230.624L318.609 229.35ZM334.096 219.446C334.399 219.163 334.415 218.688 334.133 218.385C333.85 218.083 333.376 218.066 333.073 218.348L334.096 219.446ZM344.884 204.564C344.653 204.908 344.745 205.374 345.088 205.604C345.432 205.835 345.898 205.744 346.129 205.4L344.884 204.564ZM354.471 188.876C354.61 188.486 354.407 188.057 354.017 187.918C353.627 187.778 353.198 187.982 353.059 188.372L354.471 188.876ZM357.056 170.724C357.011 171.136 357.309 171.505 357.721 171.55C358.133 171.594 358.503 171.296 358.547 170.884L357.056 170.724ZM358.501 151.553C358.454 151.142 358.083 150.846 357.671 150.893C357.259 150.939 356.964 151.311 357.01 151.722L358.501 151.553ZM351.893 132.991C352.074 133.364 352.522 133.52 352.895 133.34C353.268 133.16 353.424 132.711 353.244 132.338L351.893 132.991ZM340.534 116.964C340.198 116.722 339.729 116.799 339.488 117.135C339.246 117.471 339.322 117.94 339.658 118.182L340.534 116.964ZM321.777 111.039C322.186 111.105 322.571 110.827 322.637 110.418C322.703 110.009 322.424 109.624 322.016 109.558L321.777 111.039ZM302.075 109.877C301.668 109.949 301.396 110.339 301.468 110.747C301.541 111.155 301.93 111.426 302.338 111.354L302.075 109.877ZM283.865 117.56C284.233 117.37 284.376 116.917 284.186 116.549C283.995 116.181 283.543 116.038 283.175 116.228L283.865 117.56ZM267.686 127.552C267.377 127.828 267.35 128.302 267.626 128.611C267.902 128.92 268.376 128.947 268.685 128.672L267.686 127.552ZM255.958 141.585C256.228 141.271 256.193 140.798 255.879 140.527C255.565 140.257 255.092 140.293 254.821 140.607L255.958 141.585ZM243.943 155.322C243.723 155.673 243.829 156.136 244.181 156.355C244.532 156.575 244.994 156.469 245.214 156.118L243.943 155.322ZM236.938 172.186C237.095 171.803 236.912 171.365 236.529 171.207C236.146 171.05 235.708 171.234 235.55 171.617L236.938 172.186ZM230.15 189.159C230.065 189.565 230.325 189.962 230.73 190.047C231.136 190.132 231.533 189.872 231.618 189.467L230.15 189.159ZM229.574 207.422C229.582 207.008 229.253 206.666 228.839 206.657C228.425 206.649 228.083 206.978 228.074 207.392L229.574 207.422ZM229.376 225.694C229.443 226.103 229.828 226.381 230.237 226.314C230.646 226.248 230.923 225.863 230.857 225.454L229.376 225.694ZM235.282 242.993C235.147 242.602 234.72 242.393 234.328 242.528C233.937 242.663 233.728 243.089 233.863 243.481L235.282 242.993ZM241.186 260.291C241.38 260.657 241.834 260.796 242.2 260.602C242.566 260.407 242.705 259.953 242.51 259.587L241.186 260.291ZM252.153 274.915C251.908 274.581 251.439 274.509 251.105 274.754C250.771 274.999 250.699 275.469 250.944 275.802L252.153 274.915ZM262.751 289.807C263.039 290.105 263.513 290.114 263.812 289.827C264.11 289.539 264.119 289.065 263.832 288.766L262.751 289.807ZM277.204 301.004C276.882 300.744 276.41 300.794 276.149 301.116C275.889 301.439 275.939 301.911 276.262 302.171L277.204 301.004ZM291.172 312.812C291.522 313.032 291.985 312.927 292.206 312.576C292.426 312.225 292.321 311.762 291.97 311.542L291.172 312.812ZM307.868 320.325C307.494 320.145 307.046 320.302 306.866 320.675C306.687 321.048 306.843 321.497 307.216 321.677L307.868 320.325ZM324.092 328.713C324.482 328.852 324.911 328.648 325.05 328.258C325.189 327.867 324.985 327.439 324.595 327.3L324.092 328.713ZM341.992 332.49C341.589 332.392 341.184 332.639 341.086 333.041C340.988 333.444 341.234 333.849 341.637 333.947L341.992 332.49ZM359.614 337.387C360.024 337.445 360.404 337.16 360.462 336.75C360.519 336.339 360.234 335.96 359.824 335.902L359.614 337.387ZM377.897 337.579C377.484 337.56 377.133 337.88 377.114 338.294C377.095 338.708 377.415 339.058 377.829 339.077L377.897 337.579ZM396.482 339.215C396.896 339.209 397.226 338.868 397.22 338.454C397.214 338.04 396.873 337.709 396.459 337.715L396.482 339.215ZM415.204 337.141C414.79 337.16 414.47 337.511 414.49 337.925C414.509 338.339 414.86 338.659 415.274 338.639L415.204 337.141ZM434.028 337.459C434.441 337.426 434.749 337.064 434.716 336.652C434.683 336.239 434.322 335.931 433.909 335.964L434.028 337.459ZM452.544 334.151C452.132 334.199 451.837 334.571 451.884 334.982C451.932 335.394 452.304 335.689 452.715 335.641L452.544 334.151ZM471.397 333.141C471.807 333.079 472.088 332.696 472.025 332.287C471.963 331.877 471.58 331.596 471.171 331.659L471.397 333.141ZM489.666 328.462C489.259 328.541 488.993 328.934 489.072 329.341C489.15 329.747 489.544 330.013 489.951 329.935L489.666 328.462ZM508.326 325.997C508.729 325.902 508.978 325.498 508.883 325.094C508.788 324.691 508.384 324.442 507.981 324.537L508.326 325.997ZM526.139 319.841C525.74 319.954 525.508 320.368 525.621 320.767C525.733 321.165 526.147 321.397 526.546 321.285L526.139 319.841ZM544.551 315.779C544.944 315.649 545.157 315.225 545.027 314.831C544.897 314.438 544.473 314.225 544.08 314.355L544.551 315.779ZM561.723 308.071C561.336 308.219 561.142 308.652 561.29 309.039C561.438 309.426 561.872 309.62 562.259 309.472L561.723 308.071ZM579.688 302.329C580.067 302.163 580.24 301.72 580.074 301.341C579.908 300.961 579.466 300.788 579.086 300.955L579.688 302.329ZM596.069 293.025C595.698 293.209 595.547 293.659 595.731 294.03C595.915 294.401 596.365 294.553 596.736 294.368L596.069 293.025ZM613.368 285.596C613.73 285.394 613.859 284.937 613.657 284.575C613.455 284.214 612.998 284.085 612.636 284.287L613.368 285.596ZM628.789 274.733C628.438 274.952 628.331 275.415 628.55 275.766C628.77 276.117 629.233 276.224 629.584 276.005L628.789 274.733ZM645.302 265.649C645.642 265.413 645.726 264.946 645.49 264.606C645.254 264.265 644.787 264.181 644.446 264.417L645.302 265.649ZM659.594 253.373C659.265 253.625 659.203 254.096 659.454 254.424C659.706 254.753 660.177 254.816 660.506 254.564L659.594 253.373ZM675.188 242.797C675.505 242.531 675.547 242.058 675.281 241.74C675.015 241.423 674.542 241.381 674.224 241.647L675.188 242.797ZM688.342 229.298C688.035 229.577 688.013 230.051 688.293 230.357C688.572 230.664 689.046 230.686 689.352 230.407L688.342 229.298ZM703.016 217.47C703.312 217.18 703.316 216.705 703.026 216.409C702.736 216.114 702.261 216.109 701.966 216.399L703.016 217.47ZM715.137 203.05C714.85 203.349 714.86 203.823 715.159 204.11C715.458 204.396 715.933 204.386 716.22 204.087L715.137 203.05ZM0.330078 1.05078C0.330078 4.20598 0.374385 7.3293 0.462022 10.4209L1.96142 10.3784C1.87419 7.30108 1.83008 4.19193 1.83008 1.05078H0.330078ZM1.508 28.6826C2.05192 34.9344 2.77981 41.0459 3.68249 47.0182L5.16564 46.7941C4.26776 40.8535 3.54357 34.7733 3.00235 28.5525L1.508 28.6826ZM7.04815 65.1673C8.39538 71.2663 9.93281 77.2063 11.6491 82.9884L13.0871 82.5616C11.381 76.8138 9.85246 70.9084 8.51285 64.8438L7.04815 65.1673ZM17.5293 100.408C19.7399 106.226 22.1404 111.865 24.7168 117.329L26.0736 116.689C23.5137 111.261 21.1284 105.657 18.9315 99.8748L17.5293 100.408ZM33.222 133.65C36.3182 139.053 39.5956 144.259 43.0379 149.271L44.2744 148.422C40.855 143.443 37.5992 138.271 34.5234 132.905L33.222 133.65ZM54.0874 164.028C58.0043 168.836 62.0815 173.436 66.3005 177.829L67.3824 176.79C63.1913 172.426 59.1412 167.857 55.2504 163.081L54.0874 164.028ZM79.5892 190.593C84.2202 194.697 88.9819 198.583 93.854 202.255L94.7567 201.057C89.9158 197.408 85.1848 193.547 80.584 189.471L79.5892 190.593ZM108.989 212.761C114.201 216.088 119.507 219.191 124.886 222.073L125.595 220.75C120.249 217.886 114.975 214.802 109.796 211.497L108.989 212.761ZM141.441 230.157C147.1 232.662 152.812 234.937 158.553 236.983L159.056 235.57C153.35 233.536 147.673 231.275 142.049 228.785L141.441 230.157ZM176.122 242.521C182.103 244.164 188.089 245.566 194.053 246.729L194.34 245.257C188.413 244.101 182.464 242.707 176.519 241.074L176.122 242.521ZM212.247 249.555C218.44 250.27 224.579 250.726 230.633 250.927L230.683 249.427C224.67 249.229 218.572 248.776 212.419 248.065L212.247 249.555ZM249.092 250.733C255.358 250.386 261.49 249.75 267.452 248.828L267.223 247.346C261.312 248.259 255.228 248.891 249.009 249.235L249.092 250.733ZM285.495 245.024C291.568 243.375 297.391 241.391 302.914 239.078L302.335 237.695C296.876 239.981 291.116 241.943 285.102 243.576L285.495 245.024ZM319.401 230.624C324.755 227.293 329.677 223.565 334.096 219.446L333.073 218.348C328.73 222.397 323.887 226.067 318.609 229.35L319.401 230.624ZM346.129 205.4C349.554 200.298 352.36 194.787 354.471 188.876L353.059 188.372C350.99 194.163 348.241 199.563 344.884 204.564L346.129 205.4ZM358.547 170.884C358.873 167.848 359.039 164.733 359.039 161.538H357.539C357.539 164.681 357.376 167.743 357.056 170.724L358.547 170.884ZM359.039 161.538C359.039 158.006 358.855 154.681 358.501 151.553L357.01 151.722C357.357 154.789 357.539 158.058 357.539 161.538H359.039ZM353.244 132.338C350.03 125.692 345.648 120.643 340.534 116.964L339.658 118.182C344.566 121.713 348.787 126.566 351.893 132.991L353.244 132.338ZM322.016 109.558C315.46 108.502 308.635 108.71 302.075 109.877L302.338 111.354C308.756 110.212 315.41 110.013 321.777 111.039L322.016 109.558ZM283.175 116.228C280.08 117.831 277.236 119.647 274.74 121.624L275.671 122.8C278.084 120.889 280.846 119.124 283.865 117.56L283.175 116.228ZM274.74 121.624C272.285 123.569 269.935 125.546 267.686 127.552L268.685 128.672C270.911 126.685 273.239 124.727 275.671 122.8L274.74 121.624ZM254.821 140.607C250.697 145.398 247.077 150.313 243.943 155.322L245.214 156.118C248.307 151.175 251.882 146.321 255.958 141.585L254.821 140.607ZM235.55 171.617C233.176 177.405 231.385 183.267 230.15 189.159L231.618 189.467C232.834 183.664 234.598 177.89 236.938 172.186L235.55 171.617ZM228.074 207.392C227.95 213.526 228.394 219.643 229.376 225.694L230.857 225.454C229.889 219.49 229.451 213.463 229.574 207.422L228.074 207.392ZM233.863 243.481C235.832 249.208 238.283 254.826 241.186 260.291L242.51 259.587C239.643 254.19 237.224 248.643 235.282 242.993L233.863 243.481ZM250.944 275.802C254.507 280.66 258.451 285.341 262.751 289.807L263.832 288.766C259.576 284.347 255.676 279.718 252.153 274.915L250.944 275.802ZM276.262 302.171C280.943 305.952 285.92 309.509 291.172 312.812L291.97 311.542C286.768 308.27 281.839 304.747 277.204 301.004L276.262 302.171ZM307.216 321.677C312.623 324.282 318.254 326.636 324.092 328.713L324.595 327.3C318.807 325.24 313.225 322.907 307.868 320.325L307.216 321.677ZM341.637 333.947C347.466 335.366 353.463 336.52 359.614 337.387L359.824 335.902C353.721 335.042 347.773 333.897 341.992 332.49L341.637 333.947ZM377.829 339.077C380.859 339.216 383.92 339.286 387.01 339.286V337.786C383.942 337.786 380.904 337.716 377.897 337.579L377.829 339.077ZM387.01 339.286C390.195 339.286 393.352 339.262 396.482 339.215L396.459 337.715C393.337 337.762 390.187 337.786 387.01 337.786V339.286ZM415.274 338.639C421.641 338.343 427.892 337.948 434.028 337.459L433.909 335.964C427.789 336.452 421.555 336.846 415.204 337.141L415.274 338.639ZM452.715 335.641C459.071 334.91 465.298 334.074 471.397 333.141L471.171 331.659C465.089 332.589 458.882 333.422 452.544 334.151L452.715 335.641ZM489.951 329.935C496.216 328.725 502.34 327.409 508.326 325.997L507.981 324.537C502.015 325.945 495.911 327.256 489.666 328.462L489.951 329.935ZM526.546 321.285C532.701 319.551 538.701 317.712 544.551 315.779L544.08 314.355C538.252 316.281 532.273 318.113 526.139 319.841L526.546 321.285ZM562.259 309.472C568.235 307.186 574.043 304.801 579.688 302.329L579.086 300.955C573.463 303.417 567.677 305.793 561.723 308.071L562.259 309.472ZM596.736 294.368C602.459 291.526 608 288.597 613.368 285.596L612.636 284.287C607.289 287.276 601.769 290.194 596.069 293.025L596.736 294.368ZM629.584 276.005C635.013 272.613 640.249 269.155 645.302 265.649L644.446 264.417C639.413 267.909 634.197 271.354 628.789 274.733L629.584 276.005ZM660.506 254.564C665.6 250.666 670.489 246.736 675.188 242.797L674.224 241.647C669.542 245.573 664.669 249.489 659.594 253.373L660.506 254.564ZM689.352 230.407C694.118 226.063 698.667 221.74 703.016 217.47L701.966 216.399C697.628 220.657 693.093 224.968 688.342 229.298L689.352 230.407ZM716.22 204.087C718.424 201.786 720.572 199.511 722.667 197.271L721.571 196.246C719.48 198.483 717.336 200.753 715.137 203.05L716.22 204.087Z" fill="white"/>
</svg>
