<svg width="48" height="48" viewBox="0 0 48 48" fill="none" xmlns="http://www.w3.org/2000/svg">
<circle cx="24.002" cy="24" r="23.5" stroke="black"/>
<path d="M33.7119 20.2102L24.7119 29.2102C24.6189 29.3039 24.5083 29.3783 24.3865 29.4291C24.2646 29.4798 24.1339 29.506 24.0019 29.506C23.8699 29.506 23.7392 29.4798 23.6173 29.4291C23.4955 29.3783 23.3849 29.3039 23.2919 29.2102L14.2919 20.2102C14.1036 20.0219 13.9978 19.7665 13.9978 19.5002C13.9978 19.2339 14.1036 18.9785 14.2919 18.7902C14.4802 18.6019 14.7356 18.4961 15.0019 18.4961C15.2682 18.4961 15.5236 18.6019 15.7119 18.7902L24.0019 27.0902L32.2919 18.7902C32.4802 18.6019 32.7356 18.4961 33.0019 18.4961C33.2682 18.4961 33.5236 18.6019 33.7119 18.7902C33.9002 18.9785 34.006 19.2339 34.006 19.5002C34.006 19.7665 33.9002 20.0219 33.7119 20.2102Z" fill="#C71A1A"/>
</svg>
