<svg width="208" height="237" viewBox="0 0 208 237" fill="none" xmlns="http://www.w3.org/2000/svg">
<mask id="mask0_1_2165" style="mask-type:luminance" maskUnits="userSpaceOnUse" x="24" y="84" width="185" height="153">
<path d="M24.1916 84.1523H208.003V236.206H24.1916V84.1523Z" fill="white"/>
</mask>
<g mask="url(#mask0_1_2165)">
<path d="M196.168 202.961C170.667 201.387 169.532 198.005 169.532 198.005C169.532 198.005 171.671 237.686 170.766 252.121L58.683 236.137C58.683 236.137 58.7791 235.753 58.9312 235.12C59.8361 231.41 62.8549 218.897 62.5853 217.858C62.5853 217.858 62.5853 217.858 62.5853 217.877C62.1423 218.357 46.5461 235.139 35.1993 213.131C23.6791 190.795 27.2958 182.224 25.9506 175.901C25.0083 171.537 24.624 167.808 24.987 165.176C25.1231 164.234 25.3527 163.425 25.6997 162.793C25.7771 162.638 25.8732 162.504 25.9693 162.368C27.5467 160.121 39.5074 112.721 51.4708 108.223C63.4315 103.707 84.2779 93.3293 84.2779 93.3293L127.551 84.7559C127.551 84.7559 169.092 96.0386 172.033 101.46C174.975 106.878 193.937 136.44 195.052 144.322C196.168 152.201 221.67 204.539 196.168 202.961Z" fill="#C21B1B"/>
</g>
<path d="M127.533 84.7372C104.281 111.819 84.2596 93.308 84.2596 93.308C88.7786 89.774 87.8764 81.9879 86.4137 76.3372C85.4527 72.5896 84.2596 69.803 84.2596 69.803L117.147 59.999C117.395 68.8421 118.82 74.5302 120.55 78.1816C123.588 84.6224 127.533 84.7372 127.533 84.7372Z" fill="#FFB9B0"/>
<path d="M120.55 78.1816C108.224 93.7511 86.4137 76.3372 86.4137 76.3372C85.4527 72.5896 84.2596 69.803 84.2596 69.803L117.147 59.999C117.395 68.8421 118.82 74.5302 120.55 78.1816Z" fill="#EBA79F"/>
<path d="M130.049 32.6877C128.723 31.6307 126.683 31.9964 125.338 33.0534C124.954 33.3604 124.377 33.1308 124.318 32.6504C122.57 20.8098 116.356 14.756 110.126 11.6598C100.723 7.01002 89.3947 8.27789 81.2589 14.8895C75.8565 19.2723 71.1427 26.5566 72.0475 38.4932C72.0849 38.9737 71.5858 39.318 71.1427 39.1072C71.1427 39.1072 71.1427 39.1072 71.124 39.1072C69.5865 38.3758 67.5286 38.4719 66.4502 39.7985C65.4706 41.029 65.6628 42.8547 66.3541 44.2587C67.0481 45.6627 68.1425 46.8345 68.9326 48.1984C69.72 49.5437 70.1818 51.0251 70.6622 52.5039C71.1427 53.9826 71.6445 55.464 72.4719 56.7906C73.2967 58.0958 74.4898 59.2516 75.9712 59.692C76.8548 59.9616 77.8183 59.9429 78.6832 59.636C80.7598 64.1896 83.3356 68.8981 86.4532 72.8405C94.9706 83.6614 111.915 81.777 117.838 69.3225C119.992 64.7849 121.473 59.6146 122.493 54.714C123.395 54.8101 124.359 54.6179 125.146 54.1561C126.491 53.3874 127.415 52.0047 127.935 50.5447C128.453 49.082 128.608 47.5258 128.741 45.9697C128.877 44.4109 129.011 42.8547 129.473 41.376C129.953 39.8759 130.762 38.4932 131.128 36.9745C131.493 35.4931 131.28 33.6673 130.049 32.6877Z" fill="#FFB9B0"/>
<path d="M108.224 12.8528C108.224 12.8528 112.148 11.2754 112.954 17.1956C113.763 23.1159 119.069 29.5727 120.129 32.1485C121.186 34.7056 122.147 43.5273 122.147 43.5273C122.147 43.5273 122.147 34.3586 125.358 33.0534C125.358 33.0534 128.358 11.6037 116.282 10.9684C116.282 10.9684 114.724 1.39664 105.896 0.203509C97.0694 -1.00564 86.9158 3.52933 83.7021 4.45288C80.491 5.37375 72.3179 6.29729 69.0882 14.4864C65.8558 22.6728 64.5479 22.5394 64.5479 22.5394C64.5479 22.5394 66.7393 22.6542 68.3168 20.9245C68.3168 20.9245 65.7784 25.3073 68.0285 31.3024C70.2787 37.3001 75.3555 49.6585 75.3555 49.6585C75.3555 49.6585 72.5475 37.6844 73.471 36.4166C74.3946 35.1487 74.1437 24.3651 74.3759 22.6542C74.5868 20.9245 93.6075 23.3268 108.224 12.8528Z" fill="#1C0735"/>
<path d="M106.51 11.7187C107.204 13.1413 106.702 14.927 105.664 16.1015C104.607 17.2919 103.107 17.9646 101.607 18.445C100.107 18.9255 98.5504 19.2912 97.1064 19.9638C94.608 21.1543 92.6248 23.3083 90.0303 24.2506C87.0862 25.3262 83.5495 24.7871 81.0671 26.6715C79.8553 27.5951 79.0679 28.959 78.3766 30.3043C77.6826 31.6683 77.0286 33.0723 75.9903 34.188C74.952 35.301 73.3932 36.0698 71.9144 35.7441C71.6448 32.6505 70.9509 29.613 70.6839 26.5167C70.4704 24.1358 70.2969 21.5974 71.4527 19.4834C72.9528 16.7341 76.2973 15.5623 79.4149 15.3328C82.5299 15.1005 85.6822 15.5623 88.7784 15.0231C91.7413 14.524 94.4532 13.1413 97.2612 12.063C100.088 11.046 103.627 10.9099 106.51 11.7187Z" fill="#1C0735"/>
<path d="M46.4908 155.583C47.7586 155.719 48.5674 157.083 48.6822 158.332C48.7969 159.581 48.4526 160.871 48.4126 162.138C48.3165 164.695 49.4322 167.116 50.5293 169.423C52.0667 172.69 53.6255 175.957 55.163 179.224C57.8562 184.915 60.5281 190.603 63.2213 196.293C60.6055 189.105 58.8545 181.589 58.0297 173.958C57.5092 169.076 57.3544 164.119 56.0278 159.389C54.1247 152.585 49.7792 146.222 50.1049 139.17C48.7195 142.784 49.4509 146.588 50.7214 150.22C51.9893 153.853 53.6629 157.449 53.9138 161.292C52.8541 160.35 51.2206 159.928 49.7979 159.928C51.4128 160.331 52.5872 161.735 53.2972 163.233C54.0286 164.733 54.2982 166.404 54.5678 168.059C54.9895 170.731 55.4326 173.402 55.8543 176.093C53.0276 170.287 50.1449 164.386 49.24 157.985C49.1253 157.12 49.0078 156.218 48.4526 155.564C47.8948 154.929 46.9312 154.854 46.4908 155.583Z" fill="#D63A3A"/>
<path d="M161.954 194.121C161.204 194.487 160.339 194.62 159.493 194.698C158.706 194.756 157.878 194.775 157.166 194.428C156.456 194.084 155.935 193.43 155.61 192.717C155.281 192.007 155.129 191.22 155.012 190.43C154.86 189.49 154.782 188.452 155.321 187.702C155.839 186.97 156.821 186.722 157.705 186.722C159.168 186.722 160.609 187.317 161.647 188.337C162.608 189.277 163.014 190.392 163.302 191.66C163.417 192.181 163.572 192.488 163.284 192.968C163.014 193.467 162.475 193.87 161.954 194.121Z" fill="#D63A3A"/>
<path d="M165.996 169.076C165.996 169.076 160.476 166.174 157.572 158.639C154.668 151.125 152.052 148.317 152.052 148.317C152.052 148.317 148.531 141.706 148.937 136.594C148.937 136.594 145.32 134.998 144.415 139.399C143.513 143.82 145.128 149.337 146.532 152.7C147.936 156.045 146.916 160.561 144.167 161.466C141.418 162.368 137.11 162.061 137.11 162.061C137.11 162.061 133.301 160.254 131.686 161.869C130.09 163.465 128.934 164.271 129.436 167.981C129.436 167.981 124.917 171.844 129.839 175.207C129.839 175.207 125.283 180.975 131.838 182.568C131.838 182.568 129.281 184.53 132.03 186.991C134.782 189.45 135.684 191.852 140.454 191.911C145.224 191.969 150.589 190.758 153.859 189.047C157.129 187.336 163.436 192.41 163.436 192.41C163.436 192.41 171.225 179.053 165.996 169.076Z" fill="#FFB9B0"/>
<path d="M163.628 166.233C164.725 165.176 166.436 164.984 167.899 165.406C169.359 165.827 170.611 166.77 171.745 167.771C172.898 168.769 173.995 169.845 175.303 170.613C177.38 171.844 179.841 172.209 182.227 172.556C184.784 172.919 187.341 173.306 189.88 173.669C191.265 173.883 192.861 174.016 193.899 173.074C194.938 172.132 194.919 170.517 194.783 169.135C194.284 164.002 193.053 158.946 191.11 154.182C193.592 158.89 194.516 164.253 195.341 169.519C195.533 170.749 195.725 172.055 195.266 173.229C194.553 175.015 192.514 175.938 190.574 176.072C188.649 176.208 186.727 175.765 184.803 175.709C182.881 175.65 180.764 176.093 179.552 177.591C179.379 176.093 178.015 175.036 176.648 174.401C175.284 173.766 173.763 173.363 172.647 172.343C171.63 171.422 171.091 170.114 170.226 169.057C168.726 167.231 165.996 165.886 163.628 166.233Z" fill="#D63A3A"/>
<path d="M154.898 192.738C154.956 194.198 156.187 195.255 157.514 195.544C158.88 195.851 160.263 195.544 161.611 195.197C162.476 194.967 163.418 194.794 164.09 194.18L164.341 193.947C164.63 194.487 164.977 195.004 165.38 195.466C166.399 196.619 167.785 197.388 169.322 197.716C167.745 197.658 166.167 196.926 165.051 195.795C164.667 195.41 164.341 194.986 164.053 194.505L164.475 194.564C163.746 195.293 162.705 195.506 161.763 195.754C160.38 196.101 158.84 196.39 157.417 195.965C155.995 195.602 154.706 194.254 154.898 192.738Z" fill="#D63A3A"/>
<path d="M164.976 164.079C161.496 160.139 159.379 155.161 158.13 150.047C156.878 144.935 156.475 139.669 156.072 134.44C157.07 139.707 159.475 144.359 162.86 148.531C163.724 141.321 163.284 133.789 160.956 126.908C167.072 132.134 170.456 140.419 170.763 148.454C170.918 152.142 170.379 155.967 171.572 159.448C172.207 161.311 173.323 162.985 174.148 164.77C174.975 166.559 175.552 168.595 174.994 170.498C171.687 168.211 167.648 167.098 164.976 164.079Z" fill="#D63A3A"/>
<path d="M129.358 168.211C130.859 168.71 132.359 169.212 133.84 169.711C135.03 170.114 136.242 170.517 137.494 170.709C138.743 170.923 140.051 170.923 141.244 170.517" fill="#E8B18B"/>
<path d="M129.839 175.38C130.589 175.631 131.358 175.88 132.129 176.093C135.108 176.937 138.204 177.361 141.3 177.302" fill="#E8B18B"/>
<path d="M131.686 182.646C134.475 184.608 138.148 185.28 141.455 184.416L131.686 182.646Z" fill="#E8B18B"/>
<path d="M87.0675 201.694C81.1445 209.536 76.049 217.647 70.126 225.508C68.1428 228.143 66.1062 230.815 63.3543 232.582C61.9503 233.484 60.3354 234.178 58.9314 235.099C59.8363 231.391 62.8551 218.878 62.5856 217.84C62.5856 217.84 62.5856 217.84 62.5856 217.858C64.1444 210.593 64.6435 203.116 62.7777 195.987C60.7198 188.123 56.8548 180.743 57.2018 172.631C59.7215 178.84 62.2599 185.067 64.7796 191.276C66.4506 195.389 68.1241 199.521 69.7977 203.634C70.1821 204.576 70.6065 205.577 71.434 206.173C72.6057 207.019 74.2206 206.826 75.6433 206.498C79.7031 205.596 83.5868 203.962 87.0675 201.694Z" fill="#D63A3A"/>
<path d="M43.2016 160.062C42.8733 162.387 42.4516 164.714 41.488 166.847C40.5271 168.98 38.9683 170.923 36.8356 171.921C34.4493 173.037 31.5079 172.823 29.239 171.459C26.9889 170.114 25.4301 167.731 24.9683 165.155C25.1045 164.213 25.334 163.407 25.681 162.771C25.7771 162.849 25.8732 162.926 25.9693 162.985C26.8341 163.617 27.8911 163.924 28.9107 164.213C30.3147 164.6 31.7374 164.984 33.1815 165.099C37.1239 165.387 41.0476 163.348 43.2016 160.062Z" fill="#D63A3A"/>
<path d="M44.2404 152.009C44.2404 152.009 42.8364 142.784 43.8347 138.575C44.8357 134.366 44.1443 131.461 44.7396 128.944C45.3348 126.427 46.5466 125.234 45.4522 123.427C44.3552 121.62 42.6229 120.987 42.009 119.199C41.4137 117.392 40.0471 117.547 40.0471 117.547V128.157L13.0268 112.972C13.0268 112.972 8.35302 112.78 10.3149 118.796C10.3149 118.796 3.4497 118.083 3.1988 121.756C3.1988 124.159 4.54675 125.157 4.54675 125.157C4.54675 125.157 4.8537 125.869 4.39193 125.869C3.94884 125.869 0.276024 126.369 0.833887 129.329C1.39175 132.289 4.35189 133.346 4.35189 133.346C4.35189 133.346 2.89184 135.401 3.35361 136.498C3.7967 137.593 6.0068 138.612 6.31376 139.304C6.62338 140.016 12.6424 150.741 21.3734 153.642C24.0853 154.95 24.4883 160.465 24.4883 160.465C24.4883 160.465 26.605 169.885 32.6241 169.5C38.6431 169.116 45.2387 165.443 44.2404 152.009Z" fill="#FFB9B0"/>
<path d="M36.9509 149.068L14.3161 148.646C12.8534 148.627 11.7003 147.415 11.7377 145.955L12.6425 96.7886C12.6612 95.3285 13.873 94.1754 15.3357 94.2128L37.9706 94.6345C39.4306 94.6559 40.5864 95.865 40.5463 97.3251L39.6441 146.492C39.6041 147.933 38.4136 149.086 36.9509 149.068Z" fill="#7C7E7D"/>
<path d="M14.3155 147.818C13.3146 147.799 12.5272 146.972 12.5459 145.974L13.448 96.807C13.4694 95.8087 14.2942 95.0186 15.2951 95.04L37.93 95.4617C38.9309 95.4804 39.7183 96.3078 39.6996 97.3061L38.7974 146.473C38.7761 147.474 37.9513 148.261 36.9504 148.242L14.3155 147.818Z" fill="white"/>
<path d="M28.9298 97.1727L22.9508 97.0579C22.5451 97.0579 22.2008 96.7109 22.2194 96.2892C22.2194 95.8835 22.5664 95.5392 22.9882 95.5579L28.9699 95.6726C29.3729 95.6726 29.7199 96.0196 29.7012 96.4414C29.6799 96.8444 29.3355 97.1914 28.9298 97.1727Z" fill="#7C7E7D"/>
<path d="M9.27614 137.227C10.891 136.824 12.3911 135.922 13.5255 134.654C13.9499 134.173 14.353 133.634 14.5265 132.999C14.7 132.366 14.6226 131.635 14.2195 131.154C13.8138 130.655 13.0264 130.5 12.5272 130.903C13.296 130.308 13.7764 129.502 14.2195 128.616C14.5852 127.925 14.8334 127.1 14.6599 126.331C14.4864 125.562 13.8138 124.85 13.0451 124.946C13.9499 124.214 14.5451 122.832 14.5265 121.62C14.5265 120.411 13.9499 119.218 13.0451 118.489C13.7364 117.565 14.2569 116.375 14.5451 115.241C14.6599 114.797 14.7373 114.336 14.6599 113.874C14.5852 113.415 14.3716 112.972 13.9873 112.742C13.4481 112.414 12.7381 112.606 12.295 113.049C11.8519 113.49 11.6224 114.106 11.4889 114.739C11.3528 115.374 11.3154 116.009 11.1606 116.623C10.6988 118.489 9.33487 119.93 8.46738 121.62C7.50646 123.504 7.19951 125.733 7.60256 127.828C7.94955 129.654 6.96729 131.635 6.85251 133.498C6.79379 134.325 6.7751 135.19 7.1221 135.959C7.44774 136.709 8.48873 137.419 9.27614 137.227Z" fill="#F1B79C"/>
<path d="M37.4124 118.393C36.7771 119.236 36.6997 120.411 36.9506 121.449C37.2202 122.485 37.7781 123.408 38.3146 124.332C38.8724 125.234 39.4303 126.176 39.6812 127.214C39.7586 127.484 39.796 127.772 39.9508 128.002C40.1056 128.231 40.3939 128.405 40.6635 128.309C41.0265 128.194 41.1039 127.714 41.1039 127.329C41.1226 125.658 41.1439 123.966 41.1439 122.292C41.1439 121.409 41.1626 120.525 41.0478 119.661C40.9704 119.084 40.8343 117.912 40.3939 117.68C39.4116 117.103 38.0263 117.584 37.4124 118.393Z" fill="#F1B79C"/>
<path d="M12.3917 130.327C11.8339 130.962 11.1239 131.48 10.3338 131.769C9.41023 132.116 8.41195 132.174 7.42968 132.308C6.45008 132.422 5.44913 132.633 4.64304 133.191C6.0844 132.98 7.44837 132.729 8.8924 132.519C9.52767 132.422 10.1603 132.326 10.7395 132.057C11.4308 131.731 12.0661 131.021 12.3917 130.327Z" fill="#DDAB97"/>
<path d="M12.7948 124.89C10.1603 125.178 7.44837 126.62 4.79518 125.926C7.52577 126.08 10.0642 124.658 12.7948 124.89Z" fill="#DDAB97"/>
<path d="M13.0457 118.527C12.0848 118.527 11.1986 118.623 10.2564 118.815C11.1025 118.372 12.1408 118.257 13.0457 118.527Z" fill="#DDAB97"/>
<path d="M108.435 130.282L84.7309 92.7195C100.977 106.428 120.025 92.9029 127.852 84.5469L108.435 130.282Z" fill="white"/>
<path d="M73.08 106.412L84.8592 92.9839L96.9014 111.455L108.538 130.323L117.847 107.299L127.987 84.1924L137.629 98.7381L108.538 130.323L84.8592 110.888L73.08 106.412Z" fill="#D63A3A"/>
</svg>
