<svg width="49" height="49" viewBox="0 0 49 49" fill="none" xmlns="http://www.w3.org/2000/svg">
<rect x="0.923828" y="0.230835" width="48" height="48" rx="24" fill="#F1CBCB"/>
<path fill-rule="evenodd" clip-rule="evenodd" d="M27.9238 14.9808C27.2335 14.9808 26.6738 15.5405 26.6738 16.2308C26.6738 16.9212 27.2335 17.4808 27.9238 17.4808C28.6142 17.4808 29.1738 16.9212 29.1738 16.2308C29.1738 15.5405 28.6142 14.9808 27.9238 14.9808ZM25.1738 16.2308C25.1738 14.7121 26.405 13.4808 27.9238 13.4808C29.4426 13.4808 30.6738 14.7121 30.6738 16.2308C30.6738 17.7496 29.4426 18.9808 27.9238 18.9808C26.405 18.9808 25.1738 17.7496 25.1738 16.2308ZM25.0848 19.3457C25.0965 19.3574 25.1083 19.3691 25.1201 19.3808L25.6974 19.9546C26.6067 20.8583 26.9231 21.1541 27.3032 21.3109C27.6834 21.4677 28.1163 21.4808 29.3983 21.4808H31.4238C31.838 21.4808 32.1738 21.8166 32.1738 22.2308C32.1738 22.645 31.838 22.9808 31.4238 22.9808H29.3983C29.3503 22.9808 29.303 22.9809 29.2563 22.9809C28.1731 22.9814 27.4204 22.9818 26.7313 22.6976C26.0423 22.4134 25.5086 21.8826 24.7407 21.1186C24.7076 21.0857 24.6741 21.0523 24.6401 21.0185L24.0627 20.4447C23.654 20.0385 23.4035 19.7921 23.202 19.6418C23.1086 19.5721 23.0546 19.5459 23.029 19.5363C23.0237 19.5343 23.02 19.5332 23.0177 19.5326C23.0155 19.5336 23.012 19.5354 23.0072 19.5383C22.9837 19.5524 22.9354 19.5879 22.8561 19.6733C22.6851 19.8576 22.4832 20.1452 22.1547 20.6186L20.9281 22.3859C20.5936 22.8677 20.3907 23.1633 20.2759 23.3923C20.2226 23.4986 20.206 23.5575 20.201 23.5849C20.2001 23.5902 20.1996 23.594 20.1994 23.5964C20.2009 23.5984 20.2032 23.6013 20.2068 23.6053C20.2254 23.626 20.2704 23.6675 20.3716 23.73C20.5895 23.8646 20.9175 24.0097 21.455 24.2443L22.9709 24.9057C23.6186 25.1883 24.1646 25.4265 24.5853 25.673C25.0321 25.9347 25.4095 26.2451 25.6628 26.7083C25.9162 27.1715 25.974 27.6567 25.9534 28.1741C25.9339 28.6613 25.84 29.2495 25.7286 29.9473L25.6644 30.3491C25.5991 30.7581 25.2146 31.0368 24.8056 30.9715C24.3966 30.9062 24.1179 30.5216 24.1832 30.1126L24.2404 29.7542C24.3606 29.0015 24.4391 28.5018 24.4546 28.1143C24.4692 27.7469 24.4216 27.5648 24.3468 27.4281C24.2721 27.2915 24.1444 27.1531 23.8272 26.9673C23.4925 26.7713 23.0295 26.5679 22.3308 26.263L20.809 25.599C20.3324 25.3911 19.9034 25.2039 19.5831 25.006C19.235 24.7909 18.8934 24.4912 18.7558 24.0058C18.6181 23.5204 18.7515 23.0859 18.9349 22.7201C19.1036 22.3835 19.3706 21.999 19.6671 21.5719C19.6766 21.5582 19.6862 21.5444 19.6958 21.5306L20.9224 19.7633C20.9319 19.7496 20.9413 19.736 20.9508 19.7224C21.2417 19.3031 21.5042 18.9249 21.7566 18.6529C22.0314 18.3568 22.3861 18.0835 22.8815 18.0383C23.3769 17.9932 23.7751 18.1979 24.0989 18.4395C24.3964 18.6614 24.7228 18.9859 25.0848 19.3457ZM18.9238 27.9808C17.6812 27.9808 16.6738 28.9882 16.6738 30.2308C16.6738 31.4735 17.6812 32.4808 18.9238 32.4808C20.1665 32.4808 21.1738 31.4735 21.1738 30.2308C21.1738 28.9882 20.1665 27.9808 18.9238 27.9808ZM15.1738 30.2308C15.1738 28.1598 16.8528 26.4808 18.9238 26.4808C20.9949 26.4808 22.6738 28.1598 22.6738 30.2308C22.6738 32.3019 20.9949 33.9808 18.9238 33.9808C16.8528 33.9808 15.1738 32.3019 15.1738 30.2308ZM30.9238 27.9808C29.6812 27.9808 28.6738 28.9882 28.6738 30.2308C28.6738 31.4735 29.6812 32.4808 30.9238 32.4808C32.1665 32.4808 33.1738 31.4735 33.1738 30.2308C33.1738 28.9882 32.1665 27.9808 30.9238 27.9808ZM27.1738 30.2308C27.1738 28.1598 28.8528 26.4808 30.9238 26.4808C32.9949 26.4808 34.6738 28.1598 34.6738 30.2308C34.6738 32.3019 32.9949 33.9808 30.9238 33.9808C28.8528 33.9808 27.1738 32.3019 27.1738 30.2308Z" fill="#C21010"/>
</svg>
