<svg width="32" height="32" viewBox="0 0 32 32" fill="none" xmlns="http://www.w3.org/2000/svg">
<g clip-path="url(#clip0_16_127)">
<path d="M28 1C29.654 1 31 2.346 31 4V28C31 29.654 29.654 31 28 31H4C2.346 31 1 29.654 1 28V4C1 2.346 2.346 1 4 1H28ZM28 0H4C1.8 0 0 1.8 0 4V28C0 30.2 1.8 32 4 32H28C30.2 32 32 30.2 32 28V4C32 1.8 30.2 0 28 0Z" fill="#C9C9C9"/>
<path d="M13.5971 25.2613H17.4241V15.9993H19.9771L20.3151 12.8083H17.4241L17.4281 11.2103C17.4281 10.3783 17.5071 9.93226 18.7011 9.93226H20.2971V6.73926H17.7431C14.6761 6.73926 13.5971 8.28826 13.5971 10.8913V12.8073H11.6851V15.9993H13.5971V25.2613Z" fill="#C9C9C9"/>
</g>
<defs>
<clipPath id="clip0_16_127">
<rect width="32" height="32" fill="white"/>
</clipPath>
</defs>
</svg>
