<svg width="32" height="32" viewBox="0 0 32 32" fill="none" xmlns="http://www.w3.org/2000/svg">
<g clip-path="url(#clip0_16_131)">
<path d="M28 1C29.654 1 31 2.346 31 4V28C31 29.654 29.654 31 28 31H4C2.346 31 1 29.654 1 28V4C1 2.346 2.346 1 4 1H28ZM28 0H4C1.8 0 0 1.8 0 4V28C0 30.2 1.8 32 4 32H28C30.2 32 32 30.2 32 28V4C32 1.8 30.2 0 28 0Z" fill="#C9C9C9"/>
<path d="M15.9999 13.7263C15.5503 13.7263 15.1108 13.8597 14.7369 14.1095C14.3631 14.3593 14.0717 14.7143 13.8996 15.1297C13.7276 15.5451 13.6825 16.0022 13.7703 16.4432C13.858 16.8842 14.0745 17.2892 14.3924 17.6072C14.7104 17.9251 15.1154 18.1416 15.5564 18.2293C15.9974 18.317 16.4545 18.272 16.8699 18.1C17.2853 17.9279 17.6403 17.6365 17.8901 17.2627C18.1399 16.8888 18.2733 16.4493 18.2733 15.9997C18.2733 15.7011 18.2145 15.4055 18.1002 15.1297C17.986 14.8539 17.8185 14.6033 17.6074 14.3922C17.3963 14.1811 17.1457 14.0136 16.8699 13.8994C16.5941 13.7851 16.2985 13.7263 15.9999 13.7263ZM25.1024 11.4805C25.0976 10.7726 24.9672 10.0712 24.7174 9.40884C24.5334 8.92416 24.2487 8.48401 23.8822 8.11743C23.5156 7.75084 23.0754 7.46617 22.5908 7.28217C21.9284 7.03235 21.227 6.902 20.5191 6.89717C19.3366 6.83301 18.9883 6.83301 15.9999 6.83301C13.0116 6.83301 12.6633 6.83301 11.4808 6.89717C10.7729 6.902 10.0714 7.03235 9.40909 7.28217C8.92441 7.46617 8.48425 7.75084 8.11767 8.11743C7.75109 8.48401 7.46641 8.92416 7.28242 9.40884C7.03259 10.0712 6.90224 10.7726 6.89742 11.4805C6.83325 12.663 6.83325 13.0113 6.83325 15.9997C6.83325 18.988 6.83325 19.3363 6.89742 20.5188C6.90729 21.2292 7.03746 21.9328 7.28242 22.5997C7.46559 23.0821 7.75004 23.5197 8.11659 23.883C8.4816 24.2518 8.92269 24.5365 9.40909 24.7172C10.0714 24.967 10.7729 25.0974 11.4808 25.1022C12.6633 25.1663 13.0116 25.1663 15.9999 25.1663C18.9883 25.1663 19.3366 25.1663 20.5191 25.1022C21.227 25.0974 21.9284 24.967 22.5908 24.7172C23.0771 24.5365 23.5182 24.2518 23.8833 23.883C24.2498 23.5197 24.5342 23.0821 24.7174 22.5997C24.967 21.9341 25.0973 21.2297 25.1024 20.5188C25.1666 19.3363 25.1666 18.988 25.1666 15.9997C25.1666 13.0113 25.1666 12.663 25.1024 11.4805ZM22.7741 18.8138C22.7447 19.3795 22.6239 19.9367 22.4166 20.4638C22.2386 20.9036 21.9741 21.303 21.6387 21.6384C21.3032 21.9738 20.9038 22.2384 20.4641 22.4163C19.932 22.6121 19.3717 22.7205 18.8049 22.7372C18.0808 22.7372 17.8883 22.7372 15.9999 22.7372C14.1116 22.7372 13.9191 22.7372 13.1949 22.7372C12.6282 22.7205 12.0679 22.6121 11.5358 22.4163C11.0812 22.2474 10.6707 21.9779 10.3349 21.628C10.0028 21.2992 9.74628 20.9019 9.58325 20.4638C9.38668 19.9323 9.28131 19.3713 9.27159 18.8047C9.27159 18.0805 9.27159 17.888 9.27159 15.9997C9.27159 14.1113 9.27159 13.9188 9.27159 13.1947C9.28131 12.628 9.38668 12.0671 9.58325 11.5355C9.75218 11.0809 10.0217 10.6704 10.3716 10.3347C10.7019 10.0043 11.0987 9.74809 11.5358 9.58301C12.0679 9.38721 12.6282 9.27887 13.1949 9.26217C13.9191 9.26217 14.1116 9.26217 15.9999 9.26217C17.8883 9.26217 18.0808 9.26217 18.8049 9.26217C19.3717 9.27887 19.932 9.38721 20.4641 9.58301C20.9187 9.75193 21.3292 10.0214 21.6649 10.3713C21.9971 10.7002 22.2536 11.0975 22.4166 11.5355C22.6124 12.0676 22.7207 12.6279 22.7374 13.1947C22.7374 13.9188 22.7374 14.1113 22.7374 15.9997C22.7374 17.888 22.8016 18.0805 22.7741 18.8047V18.8138ZM21.3074 11.9938C21.1983 11.6977 21.0262 11.4288 20.8031 11.2057C20.5799 10.9826 20.311 10.8105 20.0149 10.7013C19.6084 10.5604 19.1802 10.4921 18.7499 10.4997C18.0349 10.4997 17.8333 10.4997 15.9999 10.4997C14.1666 10.4997 13.9649 10.4997 13.2499 10.4997C12.8175 10.5039 12.3892 10.5846 11.9849 10.738C11.6934 10.8422 11.4273 11.0072 11.2045 11.2222C10.9816 11.4371 10.8071 11.6971 10.6924 11.9847C10.5593 12.3929 10.4943 12.8203 10.4999 13.2497C10.4999 13.9647 10.4999 14.1663 10.4999 15.9997C10.4999 17.833 10.4999 18.0347 10.4999 18.7497C10.509 19.1816 10.5895 19.609 10.7383 20.0147C10.8474 20.3108 11.0195 20.5797 11.2426 20.8028C11.4658 21.026 11.7347 21.198 12.0308 21.3072C12.4219 21.451 12.8334 21.5315 13.2499 21.5455C13.9649 21.5455 14.1666 21.5455 15.9999 21.5455C17.8333 21.5455 18.0349 21.5455 18.7499 21.5455C19.1823 21.5413 19.6106 21.4606 20.0149 21.3072C20.311 21.198 20.5799 21.026 20.8031 20.8028C21.0262 20.5797 21.1983 20.3108 21.3074 20.0147C21.4608 19.6104 21.5415 19.1821 21.5458 18.7497C21.5458 18.0347 21.5458 17.833 21.5458 15.9997C21.5458 14.1663 21.5458 13.9647 21.5458 13.2497C21.546 12.8168 21.4652 12.3878 21.3074 11.9847V11.9938ZM15.9999 19.5013C15.5405 19.5013 15.0856 19.4107 14.6613 19.2346C14.2369 19.0585 13.8515 18.8005 13.5271 18.4752C13.2027 18.1499 12.9456 17.7638 12.7706 17.339C12.5957 16.9142 12.5062 16.4591 12.5074 15.9997C12.5074 15.3067 12.713 14.6293 13.0982 14.0533C13.4834 13.4773 14.0308 13.0285 14.6712 12.7637C15.3116 12.4989 16.0161 12.4301 16.6956 12.566C17.3751 12.7018 17.999 13.0362 18.4884 13.5269C18.9777 14.0175 19.3105 14.6423 19.4446 15.3222C19.5787 16.002 19.508 16.7064 19.2416 17.3461C18.9751 17.9858 18.5249 18.532 17.9478 18.9157C17.3708 19.2993 16.6929 19.5032 15.9999 19.5013ZM19.6666 13.1855C19.4639 13.1641 19.2764 13.0684 19.1401 12.9169C19.0038 12.7654 18.9284 12.5689 18.9284 12.3651C18.9284 12.1613 19.0038 11.9648 19.1401 11.8133C19.2764 11.6618 19.4639 11.5661 19.6666 11.5447C19.8692 11.5661 20.0568 11.6618 20.193 11.8133C20.3293 11.9648 20.4047 12.1613 20.4047 12.3651C20.4047 12.5689 20.3293 12.7654 20.193 12.9169C20.0568 13.0684 19.8692 13.1641 19.6666 13.1855Z" fill="#C9C9C9"/>
</g>
<defs>
<clipPath id="clip0_16_131">
<rect width="32" height="32" fill="white"/>
</clipPath>
</defs>
</svg>
