<svg width="32" height="32" viewBox="0 0 32 32" fill="none" xmlns="http://www.w3.org/2000/svg">
<g clip-path="url(#clip0_16_136)">
<path d="M28 1C29.654 1 31 2.346 31 4V28C31 29.654 29.654 31 28 31H4C2.346 31 1 29.654 1 28V4C1 2.346 2.346 1 4 1H28ZM28 0H4C1.8 0 0 1.8 0 4V28C0 30.2 1.8 32 4 32H28C30.2 32 32 30.2 32 28V4C32 1.8 30.2 0 28 0Z" fill="#C9C9C9"/>
<path d="M24.2989 23.9206V17.7836C24.2989 14.4956 22.5439 12.9656 20.2029 12.9656C18.3139 12.9656 17.4679 14.0046 16.9969 14.7336V13.2166H13.4389C13.4859 14.2216 13.4389 23.9206 13.4389 23.9206H16.9969V17.9426C16.9969 17.6236 17.0199 17.3036 17.1139 17.0756C17.3709 16.4366 17.9559 15.7746 18.9389 15.7746C20.2269 15.7746 20.7419 16.7556 20.7419 18.1946V23.9216L24.2989 23.9206ZM9.68993 11.7556C10.9299 11.7556 11.7029 10.9326 11.7029 9.90564C11.6799 8.85564 10.9299 8.05664 9.71293 8.05664C8.49593 8.05664 7.70093 8.85564 7.70093 9.90564C7.70093 10.9336 8.47293 11.7556 9.66793 11.7556H9.68993ZM11.4689 23.9206V13.2166H7.91193V23.9206H11.4689Z" fill="#C9C9C9"/>
</g>
<defs>
<clipPath id="clip0_16_136">
<rect width="32" height="32" fill="white"/>
</clipPath>
</defs>
</svg>
