<svg width="71" height="61" viewBox="0 0 71 61" fill="none" xmlns="http://www.w3.org/2000/svg">
<path d="M36.4006 42.438C36.4006 42.438 40.4601 53.5699 27.9064 59.5158C18.6903 63.8809 2.96875 54.0845 2.96875 54.0845L2.96875 44.0673C2.96875 44.0673 16.0919 53.8528 26.2043 50.3302C32.5507 48.1196 35.2522 44.7929 36.4006 42.438L37.2466 39.6375C37.2466 39.6375 37.1977 40.8037 36.4006 42.438Z" fill="url(#paint0_linear_1_15)"/>
<path d="M70.5678 26.1607C70.5678 34.4107 63.8798 41.0986 55.6299 41.0986C47.3799 41.0986 40.692 34.4107 40.692 26.1607C40.692 17.9107 47.3799 11.2228 55.6299 11.2228C63.8798 11.2228 70.5678 17.9107 70.5678 26.1607ZM49.4023 26.1607C49.4023 29.6001 52.1905 32.3882 55.6299 32.3882C59.0693 32.3882 61.8574 29.6001 61.8574 26.1607C61.8574 22.7213 59.0693 19.9331 55.6299 19.9331C52.1905 19.9331 49.4023 22.7213 49.4023 26.1607Z" fill="white"/>
<path d="M7.84894 27.4181C7.89313 23.5876 9.49892 20.0749 12.0611 17.4904C14.7477 14.7635 18.3958 13.1976 22.2232 13.1286L37.5867 11.7214L36.3105 26.8889C36.2201 34.6207 29.771 41.0559 21.9363 41.1783C17.967 41.2575 14.3956 39.7227 11.8414 37.1905C10.5518 35.9146 9.53342 34.3913 8.84735 32.7119C8.16128 31.0326 7.82168 29.2319 7.84894 27.4181ZM16.7722 23.1644C15.8565 24.0884 15.2353 25.2631 14.9871 26.5401C14.739 27.8172 14.8751 29.1391 15.3783 30.3387C15.8814 31.5384 16.729 32.5619 17.8138 33.2799C18.8987 33.9978 20.172 34.378 21.4729 34.3723C22.7738 34.3666 24.0438 33.9752 25.1223 33.2478C26.2007 32.5203 27.0393 31.4894 27.5319 30.2853C28.0245 29.0813 28.149 27.7582 27.8896 26.4835C27.6303 25.2087 26.9988 24.0394 26.0749 23.1235C25.4614 22.5153 24.7342 22.034 23.9346 21.7069C23.1351 21.3798 22.279 21.2134 21.4151 21.2172C20.5513 21.221 19.6966 21.3949 18.9 21.729C18.1034 22.0631 17.3804 22.5508 16.7722 23.1644Z" fill="url(#paint1_linear_1_15)"/>
<path d="M16.8124 32.4665C15.8884 31.5505 15.2568 30.3812 14.9973 29.1062C14.7379 27.8313 14.8624 26.5081 15.3551 25.3039C15.8477 24.0997 16.6864 23.0687 17.765 22.3412C18.8437 21.6137 20.1138 21.2223 21.4148 21.2167C22.7159 21.2111 23.9894 21.5914 25.0743 22.3095C26.1592 23.0277 27.0067 24.0514 27.5098 25.2513C28.0128 26.4512 28.1488 27.7732 27.9004 29.0504C27.6521 30.3275 27.0306 31.5023 26.1145 32.4262C24.8863 33.6651 23.2163 34.3653 21.4718 34.3728C19.7273 34.3804 18.0513 33.6946 16.8124 32.4665Z" fill="black"/>
<path d="M38.4208 11.7905C38.4313 11.6689 38.415 11.5465 38.3731 11.4319C38.3312 11.3172 38.2647 11.2132 38.1783 11.127L38.1779 11.1267C38.0912 11.041 37.9867 10.9754 37.8719 10.9343C37.7571 10.8933 37.6348 10.8779 37.5134 10.8892L22.1799 12.2945C18.1492 12.3657 14.3466 14.0013 11.4701 16.9028C8.64315 19.7544 7.0612 23.4854 7.01593 27.4084C6.9846 29.3344 7.3441 31.2468 8.07271 33.03C8.80131 34.8131 9.88389 36.4301 11.255 37.7831C14.0878 40.5914 17.8876 42.0937 21.9505 42.0126C30.2233 41.8834 37.0339 35.1198 37.1462 26.9288L38.4208 11.7905ZM21.9212 40.3439C18.3105 40.416 14.9398 39.0855 12.4305 36.5978C11.2188 35.4018 10.2621 33.9726 9.61832 32.3965C8.97455 30.8203 8.65705 29.13 8.68499 27.4277C8.72524 23.9404 10.1353 20.6199 12.6554 18.0779C15.2305 15.4803 18.6336 14.019 22.2378 13.963C22.2588 13.9627 22.2798 13.9616 22.3009 13.9597L36.6733 12.6432L35.4804 26.8187C35.4787 26.8387 35.4777 26.8588 35.4775 26.879C35.4365 30.4013 34.0028 33.7453 31.4404 36.2957C28.9154 38.8329 25.5003 40.2852 21.9212 40.3439Z" fill="url(#paint2_linear_1_15)"/>
<path d="M50.8662 29.9989C50.8662 29.9989 41.7331 33.5373 40.522 42.4811L29.6992 41.4707C37.1076 31.6725 50.6421 28.8287 50.6421 28.8287L50.8662 29.9989Z" fill="black"/>
<path d="M55.613 27.369C55.6395 27.3294 55.6542 27.283 55.6554 27.2353C55.6565 27.1875 55.6441 27.1405 55.6196 27.0996C55.595 27.0586 55.5593 27.0256 55.5167 27.0041C55.474 26.9827 55.4261 26.9739 55.3786 26.9787L51.8732 27.3293C51.6411 27.3525 51.5627 27.6512 51.7532 27.7854L52.8614 28.5659C52.9057 28.5971 52.9427 28.6374 52.97 28.6842C52.9972 28.731 53.0141 28.783 53.0195 28.8369L53.1596 30.2373C53.1831 30.4722 53.4882 30.5484 53.6193 30.3522L55.613 27.369Z" fill="#C71A1A"/>
<defs>
<linearGradient id="paint0_linear_1_15" x1="9.56051" y1="23.0638" x2="42.9104" y2="34.5577" gradientUnits="userSpaceOnUse">
<stop stop-color="#F60000"/>
<stop offset="1" stop-color="#9D3232"/>
</linearGradient>
<linearGradient id="paint1_linear_1_15" x1="-2.05366" y1="63.662" x2="-19.6456" y2="39.4752" gradientUnits="userSpaceOnUse">
<stop stop-color="#F60000"/>
<stop offset="1" stop-color="#9D3232"/>
</linearGradient>
<linearGradient id="paint2_linear_1_15" x1="-3.20179" y1="65.5562" x2="-21.7908" y2="39.885" gradientUnits="userSpaceOnUse">
<stop stop-color="#F60000"/>
<stop offset="1" stop-color="#9D3232"/>
</linearGradient>
</defs>
</svg>
