<svg width="25" height="25" viewBox="0 0 25 25" fill="none" xmlns="http://www.w3.org/2000/svg">
<g clip-path="url(#clip0_1_2212)">
<g clip-path="url(#clip1_1_2212)">
<path fill-rule="evenodd" clip-rule="evenodd" d="M3.36487 1.22858C4.02187 0.842583 4.88388 0.823595 5.73288 1.27759L21.7559 9.84461C22.9719 10.4946 23.0899 11.3856 23.0889 11.8306C23.0889 12.2766 22.9709 13.1666 21.7559 13.8156L16.6929 16.5226C16.6839 16.5276 16.6749 16.5326 16.6659 16.5376L5.73288 22.3826C5.30188 22.6126 4.86389 22.7206 4.45789 22.7206C4.06289 22.7206 3.69188 22.6216 3.36588 22.4316L3.35086 22.4226C3.34486 22.4186 3.33788 22.4146 3.33188 22.4106L3.32687 22.4076C2.67687 22.0076 2.25586 21.2566 2.25586 20.3016V3.3596C2.25586 2.3996 2.67889 1.64659 3.32889 1.25059C3.33989 1.24259 3.35187 1.23558 3.36487 1.22858ZM4.05588 20.0356L11.4959 11.8296L4.05588 3.6236V20.0356ZM6.65488 19.8486L14.8119 15.4876L12.7109 13.1696L6.65488 19.8486ZM16.4489 9.04758L13.9259 11.8296L16.4489 14.6126L20.9069 12.2286C21.1869 12.0786 21.2889 11.9336 21.2889 11.8286C21.2889 11.7256 21.1869 11.5816 20.9069 11.4316L16.4489 9.04758ZM12.7109 10.4896L14.8119 8.17258L6.65686 3.8126L12.7109 10.4896Z" fill="#C71A1A"/>
</g>
</g>
<defs>
<clipPath id="clip0_1_2212">
<rect width="24" height="24" fill="white" transform="translate(0.333008 0.0854492)"/>
</clipPath>
<clipPath id="clip1_1_2212">
<rect width="24" height="24" fill="white" transform="translate(0.188477 -0.17041)"/>
</clipPath>
</defs>
</svg>
