<svg width="49" height="49" viewBox="0 0 49 49" fill="none" xmlns="http://www.w3.org/2000/svg">
<rect x="0.517578" y="0.0350342" width="48" height="48" rx="24" fill="#F1CBCB"/>
<path d="M20.5176 25.035H28.5176M20.5176 25.035V30.035C20.5176 31.9207 20.5176 32.8635 21.1034 33.4492C21.6892 34.035 22.632 34.035 24.5176 34.035C26.4032 34.035 27.346 34.035 27.9318 33.4492C28.5176 32.8635 28.5176 31.9207 28.5176 30.035V25.035M20.5176 25.035C17.7597 24.4222 15.5847 22.3037 14.8995 19.5629L14.5176 18.035M28.5176 25.035C30.2283 25.035 31.6682 26.3155 31.8681 28.0145L32.5176 33.535" stroke="#C21010" stroke-width="1.5" stroke-linecap="round"/>
<circle cx="24.5176" cy="18.035" r="4" stroke="#C21010" stroke-width="1.5"/>
</svg>
